<?xml version="1.0" encoding="UTF-8"?> <svg xmlns="http://www.w3.org/2000/svg" xmlns:xlink="http://www.w3.org/1999/xlink" width="24px" height="24px" viewBox="0 0 24 24" version="1.1"><title>icon</title><defs><polygon id="path-1" points="0 0 24.0013714 0 24.0013714 24 0 24"></polygon></defs><g id="Desktop" stroke="none" stroke-width="1" fill="none" fill-rule="evenodd"><g id="D-001-home" transform="translate(-284, -1745)"><g id="services" transform="translate(0, 1361)"><g id="list" transform="translate(284, 296)"><g id="icon" transform="translate(0, 88)"><mask id="mask-2" fill="white"><use xlink:href="#path-1"></use></mask><g id="Clip-2"></g><path d="M15.6846965,18.8636854 C15.8160996,18.8636854 15.9475027,18.890739 16.0711762,18.9448461 L20.2548183,20.7690301 L18.0924647,17.7003816 C17.8470501,17.3544824 17.8586445,16.886842 18.1214507,16.5506047 C20.9330901,12.9447495 20.6316359,7.80263772 17.4180577,4.58905941 C15.7040205,2.87695454 13.4276554,1.93201179 11.0044281,1.93201179 C8.58120072,1.93201179 6.30290323,2.87695454 4.58886602,4.58905941 C1.0525773,8.12534823 1.0525773,13.8800303 4.58886602,17.4163191 C7.40437021,20.2318234 11.6807674,20.8579204 15.2325153,18.9757645 C15.3735804,18.9023334 15.5281723,18.8636854 15.6846965,18.8636854 M23.0355393,24 C22.9041362,24 22.7727331,23.9748788 22.6490597,23.9188393 L15.7136825,20.8965684 C11.4971896,22.9139922 6.53092622,22.0907905 3.22266049,18.7825247 C1.14533242,16.7051965 -0.000579719462,13.941867 -0.000579719462,11.0026893 C-0.000579719462,8.06351149 1.14533242,5.30211437 3.22266049,3.22285383 C5.29998856,1.14552569 8.0652504,-0.000386479653 11.0044281,-0.000386479653 C13.9436057,-0.000386479653 16.7069352,1.14552569 18.7842632,3.22285383 C22.5157242,6.95431488 23.0162153,12.8230084 20.0712405,17.1535129 L23.8239578,22.4772702 C24.0751695,22.830899 24.057778,23.3082014 23.7833774,23.6444387 C23.5959348,23.8763265 23.3196018,24 23.0355393,24" id="Fill-1" fill="#B09E80" mask="url(#mask-2)"></path></g></g></g></g></g></svg> 