<?xml version="1.0" encoding="UTF-8"?> <svg xmlns="http://www.w3.org/2000/svg" xmlns:xlink="http://www.w3.org/1999/xlink" version="1.1" width="33px" height="32px" viewBox="0 0 33.0 32.0"><defs><clipPath id="i0"><path d="M1920,0 L1920,6746 L0,6746 L0,0 L1920,0 Z"></path></clipPath><clipPath id="i1"><path d="M32,0 L32,32 L0,32 L0,0 L32,0 Z"></path></clipPath><clipPath id="i2"><path d="M23.3639612,0 C24.0684022,0 24.6401225,0.577133655 24.6401225,1.28824477 L24.6401225,2.27246377 L30.7248596,2.27246377 C31.4293007,2.27246377 32.0010209,2.84959742 32.0010209,3.56070853 L32.0010209,30.7117552 C32.0010209,31.4228663 31.4293007,32 30.7248596,32 L1.27616131,32 C0.571720265,32 0,31.4228663 0,30.7117552 L0,3.56070853 C0,2.84959742 0.571720265,2.27246377 1.27616131,2.27246377 L7.36345074,2.27246377 L7.36345074,1.28824477 C7.36345074,0.577133655 7.93261868,0 8.63961205,0 C9.34405309,0 9.91577335,0.577133655 9.91577335,1.28824477 L9.91577335,2.27246377 L14.7243492,2.27246377 L14.7243492,1.28824477 C14.7243492,0.577133655 15.2960694,0 16.0005105,0 C16.7075038,0 17.2766718,0.577133655 17.2766718,1.28824477 L17.2766718,2.27246377 L22.0877999,2.27246377 L22.0877999,1.28824477 C22.0877999,0.577133655 22.6569678,0 23.3639612,0 Z M7.36345074,4.8489533 L2.55232261,4.8489533 L2.55232261,29.4235105 L29.4486983,29.4235105 L29.4486983,4.8489533 L24.6401225,4.8489533 L24.6401225,7.43574879 C24.6401225,8.1468599 24.0684022,8.72399356 23.3639612,8.72399356 C22.6569678,8.72399356 22.0877999,8.1468599 22.0877999,7.43574879 L22.0877999,4.8489533 L17.2766718,4.8489533 L17.2766718,7.43574879 C17.2766718,8.1468599 16.7075038,8.72399356 16.0005105,8.72399356 C15.2960694,8.72399356 14.7243492,8.1468599 14.7243492,7.43574879 L14.7243492,4.8489533 L9.91577335,4.8489533 L9.91577335,7.43574879 C9.91577335,8.1468599 9.34405309,8.72399356 8.63961205,8.72399356 C7.93261868,8.72399356 7.36345074,8.1468599 7.36345074,7.43574879 L7.36345074,4.8489533 Z"></path></clipPath><clipPath id="i3"><path d="M1.6590097,0 C2.57529352,0 3.3180194,0.749758454 3.3180194,1.6747182 C3.3180194,2.59967794 2.57529352,3.34943639 1.6590097,3.34943639 C0.742725881,3.34943639 0,2.59967794 0,1.6747182 C0,0.749758454 0.742725881,0 1.6590097,0 Z"></path></clipPath><clipPath id="i4"><path d="M1.6590097,0 C2.57529352,0 3.3180194,0.749758454 3.3180194,1.6747182 C3.3180194,2.59967794 2.57529352,3.34943639 1.6590097,3.34943639 C0.742725881,3.34943639 0,2.59967794 0,1.6747182 C0,0.749758454 0.742725881,0 1.6590097,0 Z"></path></clipPath><clipPath id="i5"><path d="M1.6590097,0 C2.57529352,0 3.3180194,0.749758454 3.3180194,1.6747182 C3.3180194,2.59967794 2.57529352,3.34943639 1.6590097,3.34943639 C0.742725881,3.34943639 0,2.59967794 0,1.6747182 C0,0.749758454 0.742725881,0 1.6590097,0 Z"></path></clipPath><clipPath id="i6"><path d="M1.6590097,0 C2.57529352,0 3.3180194,0.749758454 3.3180194,1.6747182 C3.3180194,2.59967794 2.57529352,3.34943639 1.6590097,3.34943639 C0.742725881,3.34943639 0,2.59967794 0,1.6747182 C0,0.749758454 0.742725881,0 1.6590097,0 Z"></path></clipPath><clipPath id="i7"><path d="M1.6590097,0 C2.57529352,0 3.3180194,0.749758454 3.3180194,1.6747182 C3.3180194,2.59967794 2.57529352,3.34943639 1.6590097,3.34943639 C0.742725881,3.34943639 0,2.59967794 0,1.6747182 C0,0.749758454 0.742725881,0 1.6590097,0 Z"></path></clipPath><clipPath id="i8"><path d="M1.6590097,0 C2.57529352,0 3.3180194,0.749758454 3.3180194,1.6747182 C3.3180194,2.59967794 2.57529352,3.34943639 1.6590097,3.34943639 C0.742725881,3.34943639 0,2.59967794 0,1.6747182 C0,0.749758454 0.742725881,0 1.6590097,0 Z"></path></clipPath><clipPath id="i9"><path d="M1.6590097,0 C2.57529352,0 3.3180194,0.749758454 3.3180194,1.6747182 C3.3180194,2.59967794 2.57529352,3.34943639 1.6590097,3.34943639 C0.742725881,3.34943639 0,2.59967794 0,1.6747182 C0,0.749758454 0.742725881,0 1.6590097,0 Z"></path></clipPath><clipPath id="i10"><path d="M1.6590097,0 C2.57529352,0 3.3180194,0.749758454 3.3180194,1.6747182 C3.3180194,2.59967794 2.57529352,3.34943639 1.6590097,3.34943639 C0.742725881,3.34943639 0,2.59967794 0,1.6747182 C0,0.749758454 0.742725881,0 1.6590097,0 Z"></path></clipPath><clipPath id="i11"><path d="M1.6590097,0 C2.57529352,0 3.3180194,0.749758454 3.3180194,1.6747182 C3.3180194,2.59967794 2.57529352,3.34943639 1.6590097,3.34943639 C0.742725881,3.34943639 0,2.59967794 0,1.6747182 C0,0.749758454 0.742725881,0 1.6590097,0 Z"></path></clipPath></defs><g transform="translate(-544.0 -1251.0)"><g clip-path="url(#i0)"><g transform="translate(410.0 1170.0)"><g transform="translate(74.5 81.0)"><g transform="translate(60.0 0.0)"><g clip-path="url(#i1)"><g transform="translate(-0.0010209290454294973 0.0)"><g clip-path="url(#i2)"><polygon points="0.00102092904,0 32.0010209,0 32.0010209,32 0.00102092904,32 0.00102092904,0" stroke="none" fill="#AF9E80"></polygon></g></g></g><g transform="translate(6.9788157223072975 11.045925925925932)"><g clip-path="url(#i3)"><polygon points="0,0 3.3180194,0 3.3180194,3.34943639 0,3.34943639 0,0" stroke="none" fill="#AF9E80"></polygon></g></g><g transform="translate(14.34099030117407 11.045925925925932)"><g clip-path="url(#i4)"><polygon points="0,0 3.3180194,0 3.3180194,3.34943639 0,3.34943639 0,0" stroke="none" fill="#AF9E80"></polygon></g></g><g transform="translate(21.70316488004084 11.045925925925932)"><g clip-path="url(#i5)"><polygon points="0,0 3.3180194,0 3.3180194,3.34943639 0,3.34943639 0,0" stroke="none" fill="#AF9E80"></polygon></g></g><g transform="translate(6.9788157223072975 17.40032206119162)"><g clip-path="url(#i6)"><polygon points="0,0 3.3180194,0 3.3180194,3.34943639 0,3.34943639 0,0" stroke="none" fill="#AF9E80"></polygon></g></g><g transform="translate(14.34099030117407 17.40032206119162)"><g clip-path="url(#i7)"><polygon points="0,0 3.3180194,0 3.3180194,3.34943639 0,3.34943639 0,0" stroke="none" fill="#AF9E80"></polygon></g></g><g transform="translate(21.70316488004084 17.40032206119162)"><g clip-path="url(#i8)"><polygon points="0,0 3.3180194,0 3.3180194,3.34943639 0,3.34943639 0,0" stroke="none" fill="#AF9E80"></polygon></g></g><g transform="translate(6.9788157223072975 23.75342995169082)"><g clip-path="url(#i9)"><polygon points="0,0 3.3180194,0 3.3180194,3.34943639 0,3.34943639 0,0" stroke="none" fill="#AF9E80"></polygon></g></g><g transform="translate(14.34099030117407 23.75342995169082)"><g clip-path="url(#i10)"><polygon points="0,0 3.3180194,0 3.3180194,3.34943639 0,3.34943639 0,0" stroke="none" fill="#AF9E80"></polygon></g></g><g transform="translate(21.70316488004084 23.75342995169082)"><g clip-path="url(#i11)"><polygon points="0,0 3.3180194,0 3.3180194,3.34943639 0,3.34943639 0,0" stroke="none" fill="#AF9E80"></polygon></g></g></g></g></g></g></g></svg> 