<?xml version="1.0" encoding="UTF-8"?> <svg xmlns="http://www.w3.org/2000/svg" xmlns:xlink="http://www.w3.org/1999/xlink" version="1.1" width="48px" height="48px" viewBox="0 0 48.0 48.0"><defs><clipPath id="i0"><path d="M1920,0 L1920,6746 L0,6746 L0,0 L1920,0 Z"></path></clipPath><clipPath id="i1"><path d="M48,0 L48,48 L0,48 L0,0 L48,0 Z"></path></clipPath><clipPath id="i2"><path d="M35.0459418,0 C36.1026034,0 36.9601838,0.865700483 36.9601838,1.93236715 L36.9601838,3.40869565 L46.0872894,3.40869565 C47.143951,3.40869565 48.0015314,4.27439614 48.0015314,5.3410628 L48.0015314,46.0676329 C48.0015314,47.1342995 47.143951,48 46.0872894,48 L1.91424196,48 C0.857580398,48 0,47.1342995 0,46.0676329 L0,5.3410628 C0,4.27439614 0.857580398,3.40869565 1.91424196,3.40869565 L11.0451761,3.40869565 L11.0451761,1.93236715 C11.0451761,0.865700483 11.898928,0 12.9594181,0 C14.0160796,0 14.87366,0.865700483 14.87366,1.93236715 L14.87366,3.40869565 L22.0865237,3.40869565 L22.0865237,1.93236715 C22.0865237,0.865700483 22.9441041,0 24.0007657,0 C25.0612557,0 25.9150077,0.865700483 25.9150077,1.93236715 L25.9150077,3.40869565 L33.1316998,3.40869565 L33.1316998,1.93236715 C33.1316998,0.865700483 33.9854518,0 35.0459418,0 Z M11.0451761,7.27342995 L3.82848392,7.27342995 L3.82848392,44.1352657 L44.1730475,44.1352657 L44.1730475,7.27342995 L36.9601838,7.27342995 L36.9601838,11.1536232 C36.9601838,12.2202899 36.1026034,13.0859903 35.0459418,13.0859903 C33.9854518,13.0859903 33.1316998,12.2202899 33.1316998,11.1536232 L33.1316998,7.27342995 L25.9150077,7.27342995 L25.9150077,11.1536232 C25.9150077,12.2202899 25.0612557,13.0859903 24.0007657,13.0859903 C22.9441041,13.0859903 22.0865237,12.2202899 22.0865237,11.1536232 L22.0865237,7.27342995 L14.87366,7.27342995 L14.87366,11.1536232 C14.87366,12.2202899 14.0160796,13.0859903 12.9594181,13.0859903 C11.898928,13.0859903 11.0451761,12.2202899 11.0451761,11.1536232 L11.0451761,7.27342995 Z"></path></clipPath><clipPath id="i3"><path d="M2.48851455,0 C3.86294028,0 4.9770291,1.12463768 4.9770291,2.51207729 C4.9770291,3.89951691 3.86294028,5.02415459 2.48851455,5.02415459 C1.11408882,5.02415459 0,3.89951691 0,2.51207729 C0,1.12463768 1.11408882,0 2.48851455,0 Z"></path></clipPath><clipPath id="i4"><path d="M2.48851455,0 C3.86294028,0 4.9770291,1.12463768 4.9770291,2.51207729 C4.9770291,3.89951691 3.86294028,5.02415459 2.48851455,5.02415459 C1.11408882,5.02415459 0,3.89951691 0,2.51207729 C0,1.12463768 1.11408882,0 2.48851455,0 Z"></path></clipPath><clipPath id="i5"><path d="M2.48851455,0 C3.86294028,0 4.9770291,1.12463768 4.9770291,2.51207729 C4.9770291,3.89951691 3.86294028,5.02415459 2.48851455,5.02415459 C1.11408882,5.02415459 0,3.89951691 0,2.51207729 C0,1.12463768 1.11408882,0 2.48851455,0 Z"></path></clipPath><clipPath id="i6"><path d="M2.48851455,0 C3.86294028,0 4.9770291,1.12463768 4.9770291,2.51207729 C4.9770291,3.89951691 3.86294028,5.02415459 2.48851455,5.02415459 C1.11408882,5.02415459 0,3.89951691 0,2.51207729 C0,1.12463768 1.11408882,0 2.48851455,0 Z"></path></clipPath><clipPath id="i7"><path d="M2.48851455,0 C3.86294028,0 4.9770291,1.12463768 4.9770291,2.51207729 C4.9770291,3.89951691 3.86294028,5.02415459 2.48851455,5.02415459 C1.11408882,5.02415459 0,3.89951691 0,2.51207729 C0,1.12463768 1.11408882,0 2.48851455,0 Z"></path></clipPath><clipPath id="i8"><path d="M2.48851455,0 C3.86294028,0 4.9770291,1.12463768 4.9770291,2.51207729 C4.9770291,3.89951691 3.86294028,5.02415459 2.48851455,5.02415459 C1.11408882,5.02415459 0,3.89951691 0,2.51207729 C0,1.12463768 1.11408882,0 2.48851455,0 Z"></path></clipPath></defs><g transform="translate(-936.0 -2200.0)"><g clip-path="url(#i0)"><g transform="translate(460.0 2200.0)"><g transform="translate(350.0 0.0)"><g transform="translate(126.0 0.0)"><g clip-path="url(#i1)"><g transform="translate(-0.0015313935681433577 0.0)"><g clip-path="url(#i2)"><polygon points="0.00153139357,0 48.0015314,0 48.0015314,48 0.00153139357,48 0.00153139357,0" stroke="none" fill="#AF9E80"></polygon></g></g></g><g transform="translate(10.46822358346095 16.568888888888885)"><g clip-path="url(#i3)"><polygon points="0,0 4.9770291,0 4.9770291,5.02415459 0,5.02415459 0,0" stroke="none" fill="#AF9E80"></polygon></g></g><g transform="translate(21.51148545176111 16.568888888888885)"><g clip-path="url(#i4)"><polygon points="0,0 4.9770291,0 4.9770291,5.02415459 0,5.02415459 0,0" stroke="none" fill="#AF9E80"></polygon></g></g><g transform="translate(32.55474732006125 16.568888888888885)"><g clip-path="url(#i4)"><polygon points="0,0 4.9770291,0 4.9770291,5.02415459 0,5.02415459 0,0" stroke="none" fill="#AF9E80"></polygon></g></g><g transform="translate(10.46822358346095 26.10048309178743)"><g clip-path="url(#i5)"><polygon points="0,0 4.9770291,0 4.9770291,5.02415459 0,5.02415459 0,0" stroke="none" fill="#AF9E80"></polygon></g></g><g transform="translate(21.51148545176111 26.10048309178743)"><g clip-path="url(#i6)"><polygon points="0,0 4.9770291,0 4.9770291,5.02415459 0,5.02415459 0,0" stroke="none" fill="#AF9E80"></polygon></g></g><g transform="translate(32.55474732006125 26.10048309178743)"><g clip-path="url(#i6)"><polygon points="0,0 4.9770291,0 4.9770291,5.02415459 0,5.02415459 0,0" stroke="none" fill="#AF9E80"></polygon></g></g><g transform="translate(10.46822358346095 35.63014492753624)"><g clip-path="url(#i7)"><polygon points="0,0 4.9770291,0 4.9770291,5.02415459 0,5.02415459 0,0" stroke="none" fill="#AF9E80"></polygon></g></g><g transform="translate(21.51148545176111 35.63014492753624)"><g clip-path="url(#i8)"><polygon points="0,0 4.9770291,0 4.9770291,5.02415459 0,5.02415459 0,0" stroke="none" fill="#AF9E80"></polygon></g></g><g transform="translate(32.55474732006125 35.63014492753624)"><g clip-path="url(#i8)"><polygon points="0,0 4.9770291,0 4.9770291,5.02415459 0,5.02415459 0,0" stroke="none" fill="#AF9E80"></polygon></g></g></g></g></g></g></g></svg> 