<?xml version="1.0" encoding="UTF-8"?> <svg xmlns="http://www.w3.org/2000/svg" xmlns:xlink="http://www.w3.org/1999/xlink" version="1.1" width="48px" height="48px" viewBox="0 0 48.0 48.0"><defs><clipPath id="i0"><path d="M1920,0 L1920,6746 L0,6746 L0,0 L1920,0 Z"></path></clipPath><clipPath id="i1"><path d="M48,0 L48,48 L0,48 L0,0 L48,0 Z"></path></clipPath><clipPath id="i2"><path d="M23.8809623,0 C24.9437985,0 25.8095269,0.857971014 25.8133917,1.92463768 C25.8211215,2.99130435 24.9592579,3.86086957 23.8925569,3.8647343 C12.8467906,3.92270531 3.86485877,12.9584541 3.86485877,24 C3.86485877,35.1033816 12.8970337,44.1391304 24.000773,44.1391304 C35.1045122,44.1391304 44.1366872,35.1033816 44.1366872,24 C44.1366872,20.7884058 43.348256,17.67343 41.8950691,14.8444444 L25.697446,31.5864734 C25.3302844,31.9613527 24.8278527,32.173913 24.3099617,32.173913 C24.2519888,32.173913 24.1940159,32.1700483 24.1399079,32.1661836 C23.5601791,32.115942 23.0345583,31.8067633 22.7060453,31.3236715 L14.6825985,19.4357488 C14.0874102,18.5507246 14.3193017,17.3487923 15.2043544,16.7536232 C16.0932719,16.1584541 17.2913781,16.3903382 17.8904313,17.2714976 L24.5766369,27.1845411 L40.8940707,10.3227053 C40.9597733,10.2531401 41.0448002,10.2222222 41.1182325,10.1681159 C41.1568811,10.1371981 41.1762054,10.0908213 41.2187188,10.0637681 C41.2573674,10.036715 41.2998808,10.0328502 41.3385294,10.0135266 C41.4815292,9.93236715 41.6206641,9.87439614 41.7713936,9.83574879 C41.8718799,9.80483092 41.9685014,9.78164251 42.0728526,9.77004831 C42.2042578,9.75458937 42.3279333,9.75845411 42.4554736,9.77004831 C42.5868788,9.78164251 42.7066894,9.80096618 42.8342298,9.83574879 C42.9308512,9.86666667 43.0236078,9.90531401 43.1163645,9.95169082 C43.2593642,10.021256 43.3907694,10.1024155 43.5144449,10.2067633 C43.5492286,10.2338164 43.5917421,10.2454106 43.6265258,10.2763285 C43.6613095,10.3111111 43.6729041,10.3574879 43.7076878,10.3961353 C43.7695256,10.4618357 43.8468228,10.5043478 43.9009308,10.5855072 C46.5831428,14.5623188 48.0015459,19.2 48.0015459,24 C48.0015459,37.236715 37.2340494,48.0038647 24.000773,48.0038647 C10.7636317,48.0038647 0,37.236715 0,24 C0,10.836715 10.7095237,0.0695652174 23.8732326,0 Z"></path></clipPath></defs><g transform="translate(-586.0 -2200.0)"><g clip-path="url(#i0)"><g transform="translate(460.0 2200.0)"><g transform="translate(126.0 0.0)"><g clip-path="url(#i1)"><g transform="translate(0.0 -0.002318840579711434)"><g clip-path="url(#i2)"><polygon points="0,0.00231884058 48,0.00231884058 48,48.0023188 0,48.0023188 0,0.00231884058" stroke="none" fill="#AF9E80"></polygon></g></g></g></g></g></g></g></svg> 