<?xml version="1.0" encoding="UTF-8"?>
<!DOCTYPE svg PUBLIC "-//W3C//DTD SVG 1.1//EN" "http://www.w3.org/Graphics/SVG/1.1/DTD/svg11.dtd">
<svg xmlns="http://www.w3.org/2000/svg" version="1.1" width="1200px" height="1200px" style="shape-rendering:geometricPrecision; text-rendering:geometricPrecision; image-rendering:optimizeQuality; fill-rule:evenodd; clip-rule:evenodd" xmlns:xlink="http://www.w3.org/1999/xlink">
<g><path style="opacity:1" fill="#fefefe" d="M 0.5,-0.5 C 56.8333,-0.5 113.167,-0.5 169.5,-0.5C 245.799,76.2988 322.299,152.965 399,229.5C 399.5,152.834 399.667,76.1674 399.5,-0.5C 426.167,-0.5 452.833,-0.5 479.5,-0.5C 479.5,159.5 479.5,319.5 479.5,479.5C 319.5,479.5 159.5,479.5 -0.5,479.5C -0.5,452.833 -0.5,426.167 -0.5,399.5C 76.1674,399.667 152.834,399.5 229.5,399C 152.965,322.299 76.2988,245.799 -0.5,169.5C -0.5,150.833 -0.5,132.167 -0.5,113.5C 94.9654,208.465 190.299,303.632 285.5,399C 323.5,399.667 361.5,399.667 399.5,399C 266.299,265.965 133.299,132.799 0.5,-0.5 Z"/></g>
<g><path style="opacity:1" fill="#01247d" d="M 169.5,-0.5 C 246.167,-0.5 322.833,-0.5 399.5,-0.5C 399.667,76.1674 399.5,152.834 399,229.5C 322.299,152.965 245.799,76.2988 169.5,-0.5 Z"/></g>
<g><path style="opacity:1" fill="#ce142a" d="M 479.5,-0.5 C 559.5,-0.5 639.5,-0.5 719.5,-0.5C 719.5,159.5 719.5,319.5 719.5,479.5C 879.5,479.5 1039.5,479.5 1199.5,479.5C 1199.5,559.5 1199.5,639.5 1199.5,719.5C 1039.5,719.5 879.5,719.5 719.5,719.5C 719.5,879.5 719.5,1039.5 719.5,1199.5C 639.5,1199.5 559.5,1199.5 479.5,1199.5C 479.5,1039.5 479.5,879.5 479.5,719.5C 319.5,719.5 159.5,719.5 -0.5,719.5C -0.5,639.5 -0.5,559.5 -0.5,479.5C 159.5,479.5 319.5,479.5 479.5,479.5C 479.5,319.5 479.5,159.5 479.5,-0.5 Z"/></g>
<g><path style="opacity:1" fill="#fefefe" d="M 719.5,-0.5 C 746.167,-0.5 772.833,-0.5 799.5,-0.5C 799.333,76.1674 799.5,152.834 800,229.5C 876.701,152.965 953.201,76.2988 1029.5,-0.5C 1048.17,-0.5 1066.83,-0.5 1085.5,-0.5C 990.535,94.9654 895.368,190.299 800,285.5C 799.333,323.5 799.333,361.5 800,399.5C 933.035,266.299 1066.2,133.299 1199.5,0.5C 1199.5,56.8333 1199.5,113.167 1199.5,169.5C 1122.7,245.799 1046.03,322.299 969.5,399C 1046.17,399.5 1122.83,399.667 1199.5,399.5C 1199.5,426.167 1199.5,452.833 1199.5,479.5C 1039.5,479.5 879.5,479.5 719.5,479.5C 719.5,319.5 719.5,159.5 719.5,-0.5 Z"/></g>
<g><path style="opacity:1" fill="#00247d" d="M 799.5,-0.5 C 876.167,-0.5 952.833,-0.5 1029.5,-0.5C 953.201,76.2988 876.701,152.965 800,229.5C 799.5,152.834 799.333,76.1674 799.5,-0.5 Z"/></g>
<g><path style="opacity:1" fill="#cf182c" d="M 1085.5,-0.5 C 1123.5,-0.5 1161.5,-0.5 1199.5,-0.5C 1199.5,-0.166667 1199.5,0.166667 1199.5,0.5C 1066.2,133.299 933.035,266.299 800,399.5C 799.333,361.5 799.333,323.5 800,285.5C 895.368,190.299 990.535,94.9654 1085.5,-0.5 Z"/></g>
<g><path style="opacity:1" fill="#cf172c" d="M -0.5,-0.5 C -0.166667,-0.5 0.166667,-0.5 0.5,-0.5C 133.299,132.799 266.299,265.965 399.5,399C 361.5,399.667 323.5,399.667 285.5,399C 190.299,303.632 94.9654,208.465 -0.5,113.5C -0.5,75.5 -0.5,37.5 -0.5,-0.5 Z"/></g>
<g><path style="opacity:1" fill="#00247d" d="M -0.5,169.5 C 76.2988,245.799 152.965,322.299 229.5,399C 152.834,399.5 76.1674,399.667 -0.5,399.5C -0.5,322.833 -0.5,246.167 -0.5,169.5 Z"/></g>
<g><path style="opacity:1" fill="#01247d" d="M 1199.5,169.5 C 1199.5,246.167 1199.5,322.833 1199.5,399.5C 1122.83,399.667 1046.17,399.5 969.5,399C 1046.03,322.299 1122.7,245.799 1199.5,169.5 Z"/></g>
<g><path style="opacity:1" fill="#fefefe" d="M -0.5,719.5 C 159.5,719.5 319.5,719.5 479.5,719.5C 479.5,879.5 479.5,1039.5 479.5,1199.5C 452.833,1199.5 426.167,1199.5 399.5,1199.5C 399.667,1122.83 399.5,1046.17 399,969.5C 322.299,1046.03 245.799,1122.7 169.5,1199.5C 150.833,1199.5 132.167,1199.5 113.5,1199.5C 208.465,1104.03 303.632,1008.7 399,913.5C 399.667,875.5 399.667,837.5 399,799.5C 265.965,932.701 132.799,1065.7 -0.5,1198.5C -0.5,1142.17 -0.5,1085.83 -0.5,1029.5C 76.2988,953.201 152.965,876.701 229.5,800C 152.834,799.5 76.1674,799.333 -0.5,799.5C -0.5,772.833 -0.5,746.167 -0.5,719.5 Z"/></g>
<g><path style="opacity:1" fill="#fefefe" d="M 1199.5,719.5 C 1199.5,746.167 1199.5,772.833 1199.5,799.5C 1122.83,799.333 1046.17,799.5 969.5,800C 1046.03,876.701 1122.7,953.201 1199.5,1029.5C 1199.5,1048.17 1199.5,1066.83 1199.5,1085.5C 1104.03,990.535 1008.7,895.368 913.5,800C 875.833,799.333 838.167,799.333 800.5,800C 933.75,932.75 1066.42,1065.92 1198.5,1199.5C 1142.17,1199.5 1085.83,1199.5 1029.5,1199.5C 953.201,1122.7 876.701,1046.03 800,969.5C 799.5,1046.17 799.333,1122.83 799.5,1199.5C 772.833,1199.5 746.167,1199.5 719.5,1199.5C 719.5,1039.5 719.5,879.5 719.5,719.5C 879.5,719.5 1039.5,719.5 1199.5,719.5 Z"/></g>
<g><path style="opacity:1" fill="#00247d" d="M -0.5,799.5 C 76.1674,799.333 152.834,799.5 229.5,800C 152.965,876.701 76.2988,953.201 -0.5,1029.5C -0.5,952.833 -0.5,876.167 -0.5,799.5 Z"/></g>
<g><path style="opacity:1" fill="#cf152b" d="M 1199.5,1085.5 C 1199.5,1123.5 1199.5,1161.5 1199.5,1199.5C 1199.17,1199.5 1198.83,1199.5 1198.5,1199.5C 1066.42,1065.92 933.75,932.75 800.5,800C 838.167,799.333 875.833,799.333 913.5,800C 1008.7,895.368 1104.03,990.535 1199.5,1085.5 Z"/></g>
<g><path style="opacity:1" fill="#01247d" d="M 1199.5,799.5 C 1199.5,876.167 1199.5,952.833 1199.5,1029.5C 1122.7,953.201 1046.03,876.701 969.5,800C 1046.17,799.5 1122.83,799.333 1199.5,799.5 Z"/></g>
<g><path style="opacity:1" fill="#cf172c" d="M 113.5,1199.5 C 75.5,1199.5 37.5,1199.5 -0.5,1199.5C -0.5,1199.17 -0.5,1198.83 -0.5,1198.5C 132.799,1065.7 265.965,932.701 399,799.5C 399.667,837.5 399.667,875.5 399,913.5C 303.632,1008.7 208.465,1104.03 113.5,1199.5 Z"/></g>
<g><path style="opacity:1" fill="#01247d" d="M 399.5,1199.5 C 322.833,1199.5 246.167,1199.5 169.5,1199.5C 245.799,1122.7 322.299,1046.03 399,969.5C 399.5,1046.17 399.667,1122.83 399.5,1199.5 Z"/></g>
<g><path style="opacity:1" fill="#00247d" d="M 1029.5,1199.5 C 952.833,1199.5 876.167,1199.5 799.5,1199.5C 799.333,1122.83 799.5,1046.17 800,969.5C 876.701,1046.03 953.201,1122.7 1029.5,1199.5 Z"/></g>
</svg>
