<?xml version="1.0" encoding="UTF-8"?> <svg xmlns="http://www.w3.org/2000/svg" xmlns:xlink="http://www.w3.org/1999/xlink" version="1.1" width="48px" height="48px" viewBox="0 0 48.0 48.0"><defs><clipPath id="i0"><path d="M1920,0 L1920,6746 L0,6746 L0,0 L1920,0 Z"></path></clipPath><clipPath id="i1"><path d="M39.1915197,0 L39.1915197,39.0357891 L0,39.0357891 L0,0 L39.1915197,0 Z"></path></clipPath><clipPath id="i2"><path d="M18.0488885,0.555984556 C18.7893363,-0.185328185 19.9892414,-0.185328185 20.7334863,0.555984556 L30.1618543,9.94720668 C30.902302,10.6847372 30.902302,11.8836971 30.1618543,12.6212276 L22.7573768,19.996533 L38.633336,35.8099441 C39.3775809,36.5474746 39.3775809,37.7464345 38.633336,38.483965 C38.2650107,38.8546214 37.7789732,39.0361674 37.2929357,39.0361674 C36.8068982,39.0361674 36.3208607,38.8546214 35.9487382,38.483965 L20.0727791,22.6705539 L12.6720987,30.0458593 C12.2999763,30.4127334 11.8139388,30.5980616 11.3279013,30.5980616 C10.8418638,30.5980616 10.3558263,30.4127334 9.98370382,30.0458593 L0.555335812,20.6508549 C-0.185111937,19.9133244 -0.185111937,18.7143645 0.555335812,17.976834 Z M19.3892888,4.56512489 L4.584131,19.3157356 L11.3279013,26.0329367 L26.1330591,11.2861083 L19.3892888,4.56512489 Z"></path></clipPath><clipPath id="i3"><path d="M48,0 L48,48 L0,48 L0,0 L48,0 Z"></path></clipPath><clipPath id="i4"><path d="M26.6409303,0 C27.6889487,0 28.5395143,0.847214562 28.5395143,1.89110393 L28.5395143,9.10755654 C28.5395143,10.1514459 27.6889487,10.9986605 26.6409303,10.9986605 L1.89858397,10.9986605 C0.85056562,10.9986605 0,10.1514459 0,9.10755654 L0,1.89110393 C0,0.847214562 0.85056562,0 1.89858397,0 Z M24.7423463,3.78220786 L3.79716795,3.78220786 L3.79716795,7.2164526 L24.7423463,7.2164526 L24.7423463,3.78220786 Z"></path></clipPath></defs><g transform="translate(-1286.0 -2446.0)"><g clip-path="url(#i0)"><g transform="translate(460.0 2200.0)"><g transform="translate(0.0 246.0)"><g transform="translate(700.0 0.0)"><g transform="translate(126.0 0.0)"><g transform="translate(8.807341191361445 0.0)"><g clip-path="url(#i1)"><g transform="translate(0.0 -0.0003782207863913811)"><g clip-path="url(#i2)"><polygon points="0,0.000378220786 39.1915197,0.000378220786 39.1915197,39.0361674 0,39.0361674 0,0.000378220786" stroke="none" fill="#AF9E80"></polygon></g></g></g></g><g clip-path="url(#i3)"><g transform="translate(0.0 37.00133953195178)"><g clip-path="url(#i4)"><polygon points="0,0 28.5395143,0 28.5395143,10.9986605 0,10.9986605 0,0" stroke="none" fill="#AF9E80"></polygon></g></g></g></g></g></g></g></g></g></svg> 