<?xml version="1.0" encoding="UTF-8"?> <svg xmlns="http://www.w3.org/2000/svg" xmlns:xlink="http://www.w3.org/1999/xlink" version="1.1" width="48px" height="44px" viewBox="0 0 48.0 44.0"><defs><clipPath id="i0"><path d="M1920,0 L1920,6746 L0,6746 L0,0 L1920,0 Z"></path></clipPath><clipPath id="i1"><path d="M48,0 L48,44 L0,44 L0,0 L48,0 Z"></path></clipPath><clipPath id="i2"><path d="M31.2281562,0.411835749 C31.9306379,-0.137278583 32.9558813,-0.137278583 33.6583629,0.411835749 L47.3168841,11.0433977 C47.7497647,11.3799517 48.0003797,11.8759259 48.0003797,12.4037842 L48.0003797,42.2295491 C48.0003797,43.2073269 47.1498074,44.0008857 46.1017807,44.0008857 L1.89859899,44.0008857 C0.850572348,44.0008857 0,43.2073269 0,42.2295491 L0,20.718438 C0,19.7371176 0.850572348,18.9471014 1.89859899,18.9471014 L16.8823422,18.9471014 L16.8823422,12.4037842 C16.8823422,11.8759259 17.1329573,11.3799517 17.5658379,11.0433977 Z M32.4432596,4.07850242 L20.6795402,13.2292271 L20.6795402,18.9471014 L24.9589824,18.9471014 C26.007009,18.9471014 26.8575813,19.7371176 26.8575813,20.718438 L26.8575813,40.4582126 L44.2031817,40.4582126 L44.2031817,13.2292271 L32.4432596,4.07850242 Z M23.0603834,22.4897746 L3.79719798,22.4897746 L3.79719798,40.4582126 L23.0603834,40.4582126 L23.0603834,22.4897746 Z"></path></clipPath></defs><g transform="translate(-936.0 -2448.0)"><g clip-path="url(#i0)"><g transform="translate(460.0 2200.0)"><g transform="translate(0.0 246.0)"><g transform="translate(350.0 2.0)"><g transform="translate(126.0 0.0)"><g clip-path="url(#i1)"><g transform="translate(0.0 -0.0008856682770783664)"><g clip-path="url(#i2)"><polygon points="0,0.000885668277 48,0.000885668277 48,44.0008857 0,44.0008857 0,0.000885668277" stroke="none" fill="#AF9E80"></polygon></g></g></g></g></g></g></g></g></g></svg> 