<?xml version="1.0" encoding="UTF-8"?> <svg xmlns="http://www.w3.org/2000/svg" xmlns:xlink="http://www.w3.org/1999/xlink" version="1.1" width="32px" height="32px" viewBox="0 0 32.0 32.0"><defs><clipPath id="i0"><path d="M1920,0 L1920,6746 L0,6746 L0,0 L1920,0 Z"></path></clipPath><clipPath id="i1"><path d="M5.4980846,0 C8.52881245,0 10.9961692,2.43737872 10.9961692,5.43128367 C10.9961692,8.42518861 8.52881245,10.8625673 5.4980846,10.8625673 C2.46735675,10.8625673 0,8.42518861 0,5.43128367 C0,2.43737872 2.46735675,0 5.4980846,0 Z M5.4980846,2.57651028 C3.90447469,2.57651028 2.60819953,3.85703589 2.60819953,5.43128367 C2.60819953,7.00553145 3.90447469,8.28605705 5.4980846,8.28605705 C7.09169451,8.28605705 8.38796968,7.00553145 8.38796968,5.43128367 C8.38796968,3.85703589 7.09169451,2.57651028 5.4980846,2.57651028 Z"></path></clipPath><clipPath id="i2"><path d="M25.542098,0 C27.9233841,0 29.8612764,1.91434714 29.8612764,4.26412451 C29.8612764,6.51599449 28.0798761,8.3478933 25.8394327,8.49990741 C29.2587823,8.65707453 32,11.4319761 32,14.8484287 L32,22.4259455 C32,23.1370623 31.4157633,23.7142006 30.6959002,23.7142006 L1.30409976,23.7142006 C0.584236694,23.7142006 0,23.1370623 0,22.4259455 L0,14.8484287 C0,11.4319761 2.7386095,8.65707453 6.16056728,8.49990741 C3.92012389,8.3478933 2.13872361,6.51599449 2.13872361,4.26412451 C2.13872361,1.91434714 4.07661586,0 6.45790203,0 C8.83658,0 10.7744722,1.91434714 10.7744722,4.26412451 C10.7744722,4.55784668 10.7431739,4.84383932 10.6857935,5.12210243 C12.0863966,4.11726342 13.7921591,3.50405398 15.6491972,3.50405398 C17.9470209,3.50405398 20.0283642,4.42129164 21.5567691,5.89247901 C21.3455049,5.3900595 21.2255278,4.84126281 21.2255278,4.26412451 C21.2255278,1.91434714 23.16342,0 25.542098,0 Z M25.542098,11.0454996 L24.039775,11.0454996 L24.1099066,11.597827 L24.1258456,11.8777124 L24.1258456,21.1376903 L29.3918005,21.1376903 L29.3918005,14.8484287 C29.3918005,12.7537259 27.6651724,11.0454996 25.542098,11.0454996 Z M15.6491972,6.08056426 C12.4124216,6.08056426 9.78074823,8.68283964 9.78074823,11.8777124 L9.78074823,21.1376903 L21.5176461,21.1376903 L21.5176461,11.8777124 C21.5176461,8.68283964 18.8859728,6.08056426 15.6491972,6.08056426 Z M7.25861928,11.0454996 L6.45790203,11.0454996 C4.33482761,11.0454996 2.60819953,12.7537259 2.60819953,14.8484287 L2.60819953,21.1376903 L7.1725487,21.1376903 L7.1725487,11.8777124 C7.1725487,11.7832403 7.1789243,11.6901997 7.1884877,11.597827 L7.25861928,11.0454996 Z M22.9052082,7.61358787 C23.0773494,7.90215702 23.2520988,8.19072617 23.3903334,8.4973309 C23.4346728,8.49217788 23.4764039,8.46898928 23.5233515,8.46898928 L24.9500367,8.46898928 C24.183226,8.36592887 23.4868367,8.06447717 22.9052082,7.61358787 Z M6.45790203,2.57651028 C5.5137338,2.57651028 4.74692314,3.3340043 4.74692314,4.26412451 C4.74692314,5.19682123 5.5137338,5.95173874 6.45790203,5.95173874 C7.39946206,5.95173874 8.16627272,5.19682123 8.16627272,4.26412451 C8.16627272,3.3340043 7.39946206,2.57651028 6.45790203,2.57651028 Z M25.542098,2.57651028 C24.6005379,2.57651028 23.8337273,3.3340043 23.8337273,4.26412451 C23.8337273,5.19682123 24.6005379,5.95173874 25.542098,5.95173874 C26.4862662,5.95173874 27.2530769,5.19682123 27.2530769,4.26412451 C27.2530769,3.3340043 26.4862662,2.57651028 25.542098,2.57651028 Z"></path></clipPath></defs><g transform="translate(-944.0 -1252.0)"><g clip-path="url(#i0)"><g transform="translate(410.0 1170.0)"><g transform="translate(400.0 0.0)"><g transform="translate(71.0 82.0)"><g transform="translate(63.0 0.0)"><g transform="translate(10.15111256011085 0.0)"><g clip-path="url(#i1)"><polygon points="0,0 10.9961692,0 10.9961692,10.8625673 0,10.8625673 0,0" stroke="none" fill="#AF9E80"></polygon></g></g><g transform="translate(0.0 8.285799402571675)"><g clip-path="url(#i2)"><polygon points="0,0 32,0 32,23.7142006 0,23.7142006 0,0" stroke="none" fill="#AF9E80"></polygon></g></g></g></g></g></g></g></g></svg> 