<?xml version="1.0" encoding="UTF-8"?> <svg xmlns="http://www.w3.org/2000/svg" xmlns:xlink="http://www.w3.org/1999/xlink" version="1.1" width="48px" height="48px" viewBox="0 0 48.0 48.0"><defs><clipPath id="i0"><path d="M1920,0 L1920,6746 L0,6746 L0,0 L1920,0 Z"></path></clipPath><clipPath id="i1"><path d="M32.6834004,0 L32.6834004,32.6857638 L0,32.6857638 L0,0 L32.6834004,0 Z"></path></clipPath><clipPath id="i2"><path d="M16.3417002,0 C17.4899459,0 18.4218555,0.93191766 18.4218555,2.08017335 C18.4218555,8.79913326 23.8843434,14.2616685 30.603245,14.2616685 C31.7556511,14.2616685 32.6834004,15.1935861 32.6834004,16.3418418 C32.6834004,17.4942579 31.7556511,18.4220152 30.603245,18.4220152 C23.8843434,18.4220152 18.4218555,23.8887107 18.4218555,30.6076706 C18.4218555,31.7559263 17.4899459,32.687844 16.3417002,32.687844 C15.1934544,32.687844 14.2615449,31.7559263 14.2615449,30.6076706 C14.2615449,23.8887107 8.799057,18.4220152 2.08015532,18.4220152 C0.927749272,18.4220152 0,17.4942579 0,16.3418418 C0,15.1935861 0.927749272,14.2616685 2.08015532,14.2616685 C8.799057,14.2616685 14.2615449,8.79913326 14.2615449,2.08017335 C14.2615449,0.93191766 15.1934544,0 16.3417002,0 Z M16.3417002,10.055558 C14.8647899,12.6848971 12.6847871,14.8649187 10.0513105,16.3418418 C12.6847871,17.8187649 14.8647899,20.0029469 16.3417002,22.632286 C17.8186105,20.0029469 19.9986132,17.8187649 22.6320899,16.3418418 C19.9986132,14.8649187 17.8186105,12.6848971 16.3417002,10.055558 Z"></path></clipPath><clipPath id="i3"><path d="M22.7356816,0 L22.7356816,22.7362947 L0,22.7362947 L0,0 L22.7356816,0 Z"></path></clipPath><clipPath id="i4"><path d="M11.370129,0 C12.5183747,0 13.4502843,0.93191766 13.4502843,2.08017335 C13.4502843,6.05330444 16.6828457,9.28589382 20.6559423,9.28589382 C21.8083484,9.28589382 22.7360976,10.2178115 22.7360976,11.3660672 C22.7360976,12.5184832 21.8083484,13.4462405 20.6559423,13.4462405 C16.6828457,13.4462405 13.4502843,16.6829902 13.4502843,20.6561213 C13.4502843,21.8085374 12.5183747,22.7362947 11.370129,22.7362947 C10.2218832,22.7362947 9.28997365,21.8085374 9.28997365,20.6561213 C9.28997365,16.6829902 6.05741229,13.4462405 2.08015532,13.4462405 C0.931909583,13.4462405 0,12.5184832 0,11.3660672 C0,10.2178115 0.931909583,9.28589382 2.08015532,9.28589382 C6.05741229,9.28589382 9.28997365,6.05330444 9.28997365,2.08017335 C9.28997365,0.93191766 10.2218832,0 11.370129,0 Z M11.370129,8.62855905 C10.6171127,9.68944745 9.69352378,10.6172048 8.62848426,11.3660672 C9.69352378,12.1190899 10.6171127,13.0468472 11.370129,14.1077356 C12.1189849,13.0468472 13.0467342,12.1190899 14.1117737,11.3660672 C13.0467342,10.6172048 12.1189849,9.68944745 11.370129,8.62855905 Z"></path></clipPath><clipPath id="i5"><path d="M6.72306199,0 C7.87130772,0 8.80321731,0.927757313 8.80321731,2.08017335 C8.80321731,3.49469122 9.95146304,4.64294691 11.3659687,4.64294691 C12.5142144,4.64294691 13.446124,5.57486457 13.446124,6.72312026 C13.446124,7.87137595 12.5142144,8.80329361 11.3659687,8.80329361 C9.95146304,8.80329361 8.80321731,9.95570964 8.80321731,11.3702275 C8.80321731,12.5184832 7.87130772,13.4504009 6.72306199,13.4504009 C5.57065594,13.4504009 4.64290667,12.5184832 4.64290667,11.3702275 C4.64290667,9.95570964 3.49050062,8.80329361 2.08015532,8.80329361 C0.927749272,8.80329361 0,7.87137595 0,6.72312026 C0,5.57486457 0.927749272,4.64294691 2.08015532,4.64294691 C3.49050062,4.64294691 4.64290667,3.49469122 4.64290667,2.08017335 C4.64290667,0.927757313 5.57065594,0 6.72306199,0 Z"></path></clipPath></defs><g transform="translate(-1286.0 -2200.0)"><g clip-path="url(#i0)"><g transform="translate(460.0 2200.0)"><g transform="translate(700.0 0.0)"><g transform="translate(126.0 0.0)"><g transform="translate(12.30328664540286 15.314236186348861)"><g clip-path="url(#i1)"><g clip-path="url(#i2)"><polygon points="0,0 32.6834004,0 32.6834004,32.6857638 0,32.6857638 0,0" stroke="none" fill="#AF9E80"></polygon></g></g></g><g clip-path="url(#i3)"><g transform="translate(-0.0004160310636525111 0.0)"><g clip-path="url(#i4)"><polygon points="0.000416031064,0 22.7360976,0 22.7360976,22.7362947 0.000416031064,22.7362947 0.000416031064,0" stroke="none" fill="#AF9E80"></polygon></g></g></g><g transform="translate(34.55387602274303 4.644195016251351)"><g clip-path="url(#i5)"><polygon points="0,0 13.446124,0 13.446124,13.4504009 0,13.4504009 0,0" stroke="none" fill="#AF9E80"></polygon></g></g></g></g></g></g></g></svg> 