<?xml version="1.0" encoding="UTF-8"?> <svg xmlns="http://www.w3.org/2000/svg" xmlns:xlink="http://www.w3.org/1999/xlink" version="1.1" width="32px" height="29px" viewBox="0 0 32.0 29.0"><defs><clipPath id="i0"><path d="M1920,0 L1920,6746 L0,6746 L0,0 L1920,0 Z"></path></clipPath><clipPath id="i1"><path d="M1.2761155,0 C1.98053126,0 2.55223101,0.563009187 2.55223101,1.25671694 L2.55223101,12.6601664 C2.55223101,13.3538742 1.98053126,13.9168833 1.2761155,13.9168833 C0.571699746,13.9168833 0,13.3538742 0,12.6601664 L0,1.25671694 C0,0.563009187 0.571699746,0 1.2761155,0 Z"></path></clipPath><clipPath id="i2"><path d="M2.55223101,0 L2.55223101,23.9721269 L0,23.9721269 L0,0 L2.55223101,0 Z"></path></clipPath><clipPath id="i3"><path d="M1.2761155,0 C1.98053126,0 2.55223101,0.563009187 2.55223101,1.25671694 L2.55223101,22.7164153 C2.55223101,23.4101231 1.98053126,23.9731323 1.2761155,23.9731323 C0.571699746,23.9731323 0,23.4101231 0,22.7164153 L0,1.25671694 C0,0.563009187 0.571699746,0 1.2761155,0 Z"></path></clipPath><clipPath id="i4"><path d="M2.55223101,0 L2.55223101,18.9452591 L0,18.9452591 L0,0 L2.55223101,0 Z"></path></clipPath><clipPath id="i5"><path d="M1.2761155,0 C1.98053126,0 2.55223101,0.563009187 2.55223101,1.25671694 L2.55223101,17.6895476 C2.55223101,18.3832553 1.98053126,18.9462645 1.2761155,18.9462645 C0.571699746,18.9462645 0,18.3832553 0,17.6895476 L0,1.25671694 C0,0.563009187 0.571699746,0 1.2761155,0 Z"></path></clipPath><clipPath id="i6"><path d="M2.5521034,0 L2.5521034,28.9997487 L0.00012761155,28.9997487 L0.00012761155,0 L2.5521034,0 Z"></path></clipPath><clipPath id="i7"><path d="M1.2761155,0 C1.98053126,0 2.55223101,0.563009187 2.55223101,1.25671694 L2.55223101,27.7432831 C2.55223101,28.4369908 1.98053126,29 1.2761155,29 C0.571699746,29 0,28.4369908 0,27.7432831 L0,1.25671694 C0,0.563009187 0.571699746,0 1.2761155,0 Z"></path></clipPath><clipPath id="i8"><path d="M2.55223101,0 L2.55223101,28.9997487 L0,28.9997487 L0,0 L2.55223101,0 Z"></path></clipPath></defs><g transform="translate(-1344.0 -1253.0)"><g clip-path="url(#i0)"><g transform="translate(410.0 1170.0)"><g transform="translate(800.0 0.0)"><g transform="translate(53.0 83.0)"><g transform="translate(81.0 0.0)"><g transform="translate(0.0 15.082865314612603)"><g clip-path="url(#i1)"><polygon points="0,0 2.55223101,0 2.55223101,13.9168833 0,13.9168833 0,0" stroke="none" fill="#AF9E80"></polygon></g></g><g transform="translate(7.362676014212411 5.027873114924544)"><g clip-path="url(#i2)"><g clip-path="url(#i3)"><polygon points="0,0 2.55223101,0 2.55223101,23.9721269 0,23.9721269 0,0" stroke="none" fill="#AF9E80"></polygon></g></g></g><g transform="translate(22.08649670403247 10.054740856300896)"><g transform=""><g clip-path="url(#i4)"><g transform=""><g transform=""><g clip-path="url(#i5)"><polygon points="0,0 2.55223101,0 2.55223101,18.9452591 0,18.9452591 0,0" stroke="none" fill="#AF9E80"></polygon></g></g></g></g></g></g><g transform="translate(29.44776899119097 0.0)"><g clip-path="url(#i6)"><g transform="translate(0.00012761155044005434 -0.00025134338706855885)"><g clip-path="url(#i7)"><polygon points="0,0.000251343387 2.55197579,0.000251343387 2.55197579,29 0,29 0,0.000251343387" stroke="none" fill="#AF9E80"></polygon></g></g></g></g><g transform="translate(14.723820689820059 0.0)"><g clip-path="url(#i8)"><g transform="translate(0.0 -0.00025134338706855885)"><g clip-path="url(#i7)"><polygon points="0,0.000251343387 2.55223101,0.000251343387 2.55223101,29 0,29 0,0.000251343387" stroke="none" fill="#AF9E80"></polygon></g></g></g></g></g></g></g></g></g></g></svg> 