<?xml version="1.0" encoding="UTF-8"?> <svg xmlns="http://www.w3.org/2000/svg" xmlns:xlink="http://www.w3.org/1999/xlink" version="1.1" width="32px" height="48px" viewBox="0 0 32.0 48.0"><defs><clipPath id="i0"><path d="M1920,0 L1920,6746 L0,6746 L0,0 L1920,0 Z"></path></clipPath><clipPath id="i1"><path d="M10.1486847,0 C15.7453298,0 20.2973694,4.61452991 20.2973694,10.2880055 C20.2973694,15.9576164 15.7453298,20.5721463 10.1486847,20.5721463 C4.55203965,20.5721463 0,15.9576164 0,10.2880055 C0,4.61452991 4.55203965,0 10.1486847,0 Z M10.1486847,3.86476542 C6.65650019,3.86476542 3.81242852,6.74788042 3.81242852,10.2880055 C3.81242852,13.8281307 6.65650019,16.7073809 10.1486847,16.7073809 C13.6408692,16.7073809 16.4849409,13.8281307 16.4849409,10.2880055 C16.4849409,6.74788042 13.6408692,3.86476542 10.1486847,3.86476542 Z"></path></clipPath><clipPath id="i2"><path d="M32,0 L32,24.2282144 L0,24.2282144 L0,0 L32,0 Z"></path></clipPath><clipPath id="i3"><path d="M16.0007625,0 C24.8227221,0 32.001525,7.27735328 32.001525,16.2204205 L32.001525,22.2958317 C32.001525,23.3625069 31.147541,24.2282144 30.0953107,24.2282144 L1.90621426,24.2282144 C0.853983988,24.2282144 0,23.3625069 0,22.2958317 L0,16.2204205 C0,7.27735328 7.1788029,0 16.0007625,0 Z M16.0007625,3.86476542 C9.28326344,3.86476542 3.81242852,9.40683902 3.81242852,16.2204205 L3.81242852,20.363449 L28.1890965,20.363449 L28.1890965,16.2204205 C28.1890965,9.40683902 22.722074,3.86476542 16.0007625,3.86476542 Z"></path></clipPath></defs><g transform="translate(-594.0 -2446.0)"><g clip-path="url(#i0)"><g transform="translate(460.0 2200.0)"><g transform="translate(0.0 246.0)"><g transform="translate(134.0 0.0)"><g transform="translate(5.85131528783859 0.0)"><g clip-path="url(#i1)"><polygon points="0,0 20.2973694,0 20.2973694,20.5721463 0,20.5721463 0,0" stroke="none" fill="#AF9E80"></polygon></g></g><g transform="translate(0.0 23.771785602138607)"><g clip-path="url(#i2)"><g transform="translate(-0.0015249714067859799 0.0)"><g clip-path="url(#i3)"><polygon points="0.00152497141,0 32.001525,0 32.001525,24.2282144 0.00152497141,24.2282144 0.00152497141,0" stroke="none" fill="#AF9E80"></polygon></g></g></g></g></g></g></g></g></g></svg> 