<?xml version="1.0" encoding="UTF-8"?> <svg xmlns:xlink="http://www.w3.org/1999/xlink" xmlns="http://www.w3.org/2000/svg" width="23.999023px" height="24px" viewBox="0 0 23.999023 24" version="1.1"><defs><path d="M0 0L23.9992 0L23.9992 24L0 24L0 0Z" id="path_1"></path><clipPath id="clip_1"><use xlink:href="#path_1" clip-rule="evenodd" fill-rule="evenodd"></use></clipPath></defs><g id="icon"><path d="M0 0L23.9992 0L23.9992 24L0 24L0 0Z" id="Clip-2" fill="none" fill-rule="evenodd" stroke="none"></path><g clip-path="url(#clip_1)"><path d="M21.9498 5.29159C21.9227 5.25101 21.8841 5.22976 21.8531 5.19691C21.8357 5.17758 21.83 5.1544 21.8126 5.137C21.7952 5.12155 21.7739 5.11575 21.7565 5.10222C21.6947 5.05005 21.629 5.00947 21.5575 4.97469C21.5111 4.9515 21.4647 4.93217 21.4164 4.91672C21.3527 4.89932 21.2928 4.88966 21.2271 4.88386C21.1633 4.87807 21.1014 4.87614 21.0357 4.88386C20.9836 4.88966 20.9353 4.90126 20.885 4.91672C20.8097 4.93604 20.7401 4.96502 20.6686 5.0056C20.6493 5.01527 20.628 5.0172 20.6087 5.03073C20.5874 5.04425 20.5778 5.06744 20.5585 5.0829C20.5217 5.10995 20.4792 5.12541 20.4464 5.16019L12.2879 13.5911L8.94493 8.63459C8.64541 8.19401 8.04638 8.07807 7.60193 8.37565C7.15942 8.67324 7.04348 9.2742 7.34106 9.71671L11.3527 15.6607C11.5169 15.9022 11.7797 16.0568 12.0696 16.0819C12.0966 16.0839 12.1256 16.0858 12.1546 16.0858C12.4135 16.0858 12.6647 15.9795 12.8483 15.7921L20.9469 7.42106C21.6734 8.83556 22.0676 10.393 22.0676 11.9988C22.0676 17.5505 17.5517 22.0684 12 22.0684C6.44831 22.0684 1.93237 17.5505 1.93237 11.9988C1.93237 6.47807 6.42319 1.96019 11.9459 1.93121C12.4792 1.92928 12.9101 1.49449 12.9063 0.961159C12.9043 0.427826 12.4715 -0.00115942 11.9401 -0.00115942L11.9362 -0.00115942C5.35459 0.0336232 0 5.4172 0 11.9988C0 18.6172 5.38164 24.0008 12 24.0008C18.6164 24.0008 24 18.6172 24 11.9988C24 9.59884 23.2908 7.28 21.9498 5.29159" id="Fill-1" fill="#B09E80" fill-rule="evenodd" stroke="none"></path></g></g></svg> 