<?xml version="1.0" encoding="UTF-8"?> <svg xmlns="http://www.w3.org/2000/svg" xmlns:xlink="http://www.w3.org/1999/xlink" width="21px" height="24px" viewBox="0 0 21 24" version="1.1"><title>icon</title><g id="Desktop" stroke="none" stroke-width="1" fill="none" fill-rule="evenodd"><g id="D-001-home" transform="translate(-284, -1701)" fill="#B09E80"><g id="services" transform="translate(0, 1361)"><g id="list" transform="translate(284, 296)"><g id="icon" transform="translate(0, 44)"><path d="M1.93235382,22.0676329 L18.4307907,22.0676329 L18.4307907,9.28888889 L1.93235382,9.28888889 L1.93235382,22.0676329 Z M6.53715298,5.57681159 C6.53715298,3.56714976 8.17192431,1.93236715 10.1815723,1.93236715 C12.1912203,1.93236715 13.8259916,3.56714976 13.8259916,5.57681159 L13.8259916,7.35652174 L6.53715298,7.35652174 L6.53715298,5.57681159 Z M19.3969677,7.35652174 L15.7583454,7.35652174 L15.7583454,5.57681159 C15.7583454,2.50241546 13.2559472,0 10.1815723,0 C7.105265,0 4.60479916,2.50241546 4.60479916,5.57681159 L4.60479916,7.35652174 L0.966176911,7.35652174 C0.432847256,7.35652174 0,7.78743961 0,8.32270531 L0,23.0338164 C0,23.5671498 0.432847256,24 0.966176911,24 L19.3969677,24 C19.9302973,24 20.3631446,23.5671498 20.3631446,23.0338164 L20.3631446,8.32270531 C20.3631446,7.78743961 19.9302973,7.35652174 19.3969677,7.35652174 L19.3969677,7.35652174 Z" id="Fill-1"></path><path d="M10.1807993,13.1530435 C9.64746969,13.1530435 9.21462243,13.5858937 9.21462243,14.1192271 L9.21462243,19.1685024 C9.21462243,19.7037681 9.64746969,20.134686 10.1807993,20.134686 C10.714129,20.134686 11.1469763,19.7037681 11.1469763,19.1685024 L11.1469763,14.1192271 C11.1469763,13.5858937 10.714129,13.1530435 10.1807993,13.1530435" id="Fill-3"></path></g></g></g></g></g></svg> 