<?xml version="1.0" encoding="UTF-8"?> <svg xmlns:xlink="http://www.w3.org/1999/xlink" xmlns="http://www.w3.org/2000/svg" width="150px" height="88px" viewBox="0 0 150 88" version="1.1"><g id="logo"><path d="M5.84961 86.4658L5.84961 81.0482L6.61892 81.0482L6.61892 85.7946L9.56796 85.7946L9.56796 86.4658L5.84961 86.4658ZM14.1678 82.3587L14.9051 82.3587L14.9051 86.4658L14.1999 86.4658L14.1999 85.8425C14.0556 86.0503 13.8473 86.2101 13.6068 86.3379C13.3664 86.4498 13.094 86.5137 12.8055 86.5137L12.8055 86.5137C12.2606 86.5137 11.8278 86.3699 11.5073 86.0663C11.1867 85.7626 11.0264 85.3152 11.0264 84.7239L11.0264 84.7239L11.0264 82.3587L11.7637 82.3587L11.7637 84.628C11.7637 85.0275 11.8599 85.3311 12.0522 85.5229C12.2445 85.7307 12.517 85.8265 12.8696 85.8265L12.8696 85.8265C13.2703 85.8265 13.5748 85.7147 13.7992 85.475C14.0236 85.2352 14.1358 84.8996 14.1358 84.4682L14.1358 84.4682L14.1358 82.3427L14.1678 82.3587ZM20.5787 86.4658L19.7293 86.4658L18.5433 84.8996L17.3412 86.4658L16.5078 86.4658L18.1266 84.3723L16.5879 82.3746L17.4214 82.3746L18.5593 83.8449L19.6812 82.3746L20.4986 82.3746L18.944 84.3723L20.5787 86.4658ZM25.1786 82.3587L25.9159 82.3587L25.9159 86.4658L25.2107 86.4658L25.2107 85.8425C25.0664 86.0503 24.8581 86.2101 24.6176 86.3379C24.3772 86.4498 24.1048 86.5137 23.8163 86.5137L23.8163 86.5137C23.2713 86.5137 22.8386 86.3699 22.5181 86.0663C22.1975 85.7626 22.0372 85.3152 22.0372 84.7239L22.0372 84.7239L22.0372 82.3587L22.7745 82.3587L22.7745 84.628C22.7745 85.0275 22.8707 85.3311 23.063 85.5229C23.2553 85.7307 23.5278 85.8265 23.8804 85.8265L23.8804 85.8265C24.2811 85.8265 24.5856 85.7147 24.81 85.475C25.0344 85.2352 25.1465 84.8996 25.1465 84.4682L25.1465 84.4682L25.1465 82.3427L25.1786 82.3587ZM28.8328 83.0458C28.9611 82.8061 29.1534 82.6303 29.4098 82.5025C29.6663 82.3746 29.9708 82.3107 30.3394 82.3107L30.3394 82.3107L30.3394 83.0299C30.3394 83.0299 30.2432 83.0299 30.1631 83.0299L30.1631 83.0299C29.7624 83.0299 29.4419 83.1577 29.2175 83.3974C28.9931 83.6371 28.8649 83.9727 28.8649 84.4202L28.8649 84.4202L28.8649 86.4658L28.1276 86.4658L28.1276 82.3587L28.8489 82.3587L28.8489 83.0458L28.8328 83.0458ZM35.0995 82.3587L35.8368 82.3587L33.8494 86.8653C33.6731 87.2808 33.4647 87.5845 33.2404 87.7443C32.9999 87.9201 32.7275 88 32.3909 88L32.3909 88C32.1825 88 31.9902 87.968 31.7979 87.9041C31.6056 87.8402 31.4453 87.7443 31.3331 87.6164L31.3331 87.6164L31.6536 87.0571C31.862 87.2648 32.1184 87.3607 32.3909 87.3607L32.3909 87.3607C32.5672 87.3607 32.7275 87.3128 32.8397 87.2169C32.9519 87.121 33.0641 86.9612 33.1762 86.7215L33.1762 86.7215L33.3045 86.4338L31.4934 82.3427L32.2627 82.3427L33.7051 85.6188L35.1316 82.3427L35.0995 82.3587ZM42.392 81.0482C43.0972 81.0482 43.6421 81.208 44.0588 81.5436C44.4755 81.8792 44.6679 82.3427 44.6679 82.934L44.6679 82.934C44.6679 83.5253 44.4595 83.9887 44.0588 84.3243C43.6581 84.6599 43.0972 84.8197 42.392 84.8197L41.0457 84.8197L41.0457 86.4658L40.2764 86.4658L40.2764 81.0482L42.392 81.0482ZM42.3759 84.1485C42.8728 84.1485 43.2414 84.0367 43.4979 83.8289C43.7543 83.6212 43.8825 83.3175 43.8825 82.934L43.8825 82.934C43.8825 82.5344 43.7543 82.2468 43.4979 82.039C43.2414 81.8313 42.8568 81.7194 42.3759 81.7194L41.0617 81.7194L41.0617 84.1485L42.3759 84.1485L42.3759 84.1485ZM47.12 83.0458C47.2483 82.8061 47.4406 82.6303 47.697 82.5025C47.9535 82.3746 48.258 82.3107 48.6266 82.3107L48.6266 82.3107L48.6266 83.0299C48.6266 83.0299 48.5305 83.0299 48.4503 83.0299L48.4503 83.0299C48.0496 83.0299 47.7291 83.1577 47.5047 83.3974C47.2803 83.6371 47.1521 83.9727 47.1521 84.4202L47.1521 84.4202L47.1521 86.4658L46.4148 86.4658L46.4148 82.3587L47.1361 82.3587L47.1361 83.0458L47.12 83.0458ZM52.0404 86.4977C51.6237 86.4977 51.2711 86.4019 50.9346 86.2261C50.614 86.0503 50.3576 85.7946 50.1652 85.475C49.9889 85.1553 49.8928 84.8038 49.8928 84.3883L49.8928 84.3883C49.8928 83.9887 49.9889 83.6212 50.1652 83.3015C50.3415 82.9819 50.598 82.7422 50.9346 82.5664C51.2711 82.3906 51.6237 82.2947 52.0404 82.2947L52.0404 82.2947C52.4572 82.2947 52.8098 82.3906 53.1463 82.5664C53.4669 82.7422 53.7233 82.9979 53.8996 83.3015C54.0759 83.6052 54.1721 83.9727 54.1721 84.3883L54.1721 84.3883C54.1721 84.7878 54.0759 85.1553 53.8996 85.475C53.7233 85.7946 53.4669 86.0343 53.1463 86.2261C52.8258 86.4019 52.4572 86.4977 52.0404 86.4977L52.0404 86.4977ZM52.0404 85.8425C52.2969 85.8425 52.5373 85.7786 52.7456 85.6667C52.954 85.5389 53.1143 85.3791 53.2425 85.1553C53.3547 84.9316 53.4188 84.6919 53.4188 84.4042L53.4188 84.4042C53.4188 84.1166 53.3547 83.8769 53.2425 83.6531C53.1303 83.4294 52.954 83.2696 52.7456 83.1417C52.5373 83.0299 52.2969 82.9659 52.0404 82.9659L52.0404 82.9659C51.784 82.9659 51.5436 83.0299 51.3352 83.1417C51.1269 83.2536 50.9666 83.4294 50.8384 83.6531C50.7102 83.8769 50.6621 84.1166 50.6621 84.4042L50.6621 84.4042C50.6621 84.6919 50.7262 84.9316 50.8384 85.1553C50.9666 85.3791 51.1269 85.5389 51.3352 85.6667C51.5436 85.7946 51.784 85.8425 52.0404 85.8425L52.0404 85.8425ZM58.1629 82.3107C58.5636 82.3107 58.9162 82.3906 59.2367 82.5664C59.5573 82.7422 59.7977 82.9819 59.974 83.3015C60.1503 83.6212 60.2464 83.9727 60.2464 84.3883L60.2464 84.3883C60.2464 84.8038 60.1503 85.1713 59.974 85.4909C59.7977 85.8106 59.5412 86.0503 59.2367 86.2261C58.9162 86.4019 58.5636 86.4818 58.1629 86.4818L58.1629 86.4818C57.8744 86.4818 57.6019 86.4178 57.3455 86.306C57.1051 86.1941 56.8967 86.0343 56.7204 85.8106L56.7204 85.8106L56.7204 87.9361L55.9832 87.9361L55.9832 82.3267L56.7044 82.3267L56.7044 82.9819C56.8647 82.7582 57.073 82.5824 57.3295 82.4705C57.5859 82.3587 57.8584 82.2947 58.1629 82.2947L58.1629 82.2947L58.1629 82.3107ZM58.0988 85.8425C58.3552 85.8425 58.5956 85.7786 58.804 85.6667C59.0123 85.5389 59.1726 85.3791 59.3008 85.1553C59.4291 84.9316 59.4771 84.6919 59.4771 84.4042L59.4771 84.4042C59.4771 84.1166 59.413 83.8769 59.3008 83.6531C59.1726 83.4294 59.0123 83.2696 58.804 83.1417C58.5956 83.0299 58.3552 82.9659 58.0988 82.9659L58.0988 82.9659C57.8423 82.9659 57.6019 83.0299 57.3936 83.1417C57.1852 83.2536 57.0249 83.4294 56.8967 83.6531C56.7685 83.8769 56.7204 84.1166 56.7204 84.4042L56.7204 84.4042C56.7204 84.6919 56.7845 84.9316 56.8967 85.1553C57.0089 85.3791 57.1852 85.5389 57.3936 85.6667C57.6019 85.7946 57.8423 85.8425 58.0988 85.8425L58.0988 85.8425ZM65.7599 84.4202C65.7599 84.4202 65.7599 84.5481 65.7599 84.644L62.4262 84.644C62.4742 85.0115 62.6345 85.2992 62.907 85.5069C63.1795 85.7307 63.516 85.8425 63.9167 85.8425L63.9167 85.8425C64.4136 85.8425 64.7982 85.6827 65.1027 85.3471L65.1027 85.3471L65.5194 85.8265C65.3271 86.0503 65.1027 86.2101 64.8303 86.322C64.5578 86.4338 64.2373 86.4977 63.9007 86.4977L63.9007 86.4977C63.4679 86.4977 63.0833 86.4019 62.7467 86.2261C62.4101 86.0503 62.1537 85.7946 61.9614 85.475C61.7851 85.1553 61.6889 84.7878 61.6889 84.3883L61.6889 84.3883C61.6889 83.9887 61.7851 83.6371 61.9614 83.3175C62.1377 82.9979 62.3781 82.7422 62.6986 82.5664C63.0192 82.3906 63.3718 82.2947 63.7564 82.2947L63.7564 82.2947C64.1571 82.2947 64.4937 82.3906 64.8142 82.5664C65.1348 82.7422 65.3592 82.9979 65.5355 83.3175C65.7118 83.6371 65.7919 84.0047 65.7919 84.4202L65.7919 84.4202L65.7599 84.4202ZM63.7244 82.934C63.3718 82.934 63.0673 83.0458 62.8269 83.2536C62.5864 83.4773 62.4422 83.749 62.4101 84.1006L65.0547 84.1006C65.0066 83.749 64.8784 83.4773 64.6379 83.2536C64.3975 83.0299 64.093 82.918 63.7404 82.918L63.7404 82.918L63.7244 82.934ZM68.2762 83.0299C68.4044 82.7901 68.5967 82.6143 68.8531 82.4865C69.1096 82.3587 69.4141 82.2947 69.7827 82.2947L69.7827 82.2947L69.7827 83.0139C69.7827 83.0139 69.6866 83.0139 69.6064 83.0139L69.6064 83.0139C69.2057 83.0139 68.8852 83.1417 68.6608 83.3814C68.4364 83.6212 68.3082 83.9568 68.3082 84.4042L68.3082 84.4042L68.3082 86.4498L67.5709 86.4498L67.5709 82.3427L68.2922 82.3427L68.2922 83.0299L68.2762 83.0299ZM73.7094 85.6667L73.9498 86.1941C73.8376 86.29 73.7094 86.3539 73.5491 86.4019C73.3889 86.4498 73.2286 86.4818 73.0523 86.4818L73.0523 86.4818C72.6356 86.4818 72.315 86.3699 72.0907 86.1462C71.8663 85.9224 71.7541 85.6028 71.7541 85.1873L71.7541 85.1873L71.7541 82.934L71.0489 82.934L71.0489 82.3267L71.7541 82.3267L71.7541 81.4318L72.4913 81.4318L72.4913 82.3267L73.6774 82.3267L73.6774 82.934L72.4913 82.934L72.4913 85.1553C72.4913 85.3791 72.5394 85.5549 72.6516 85.6667C72.7638 85.7786 72.9241 85.8425 73.1324 85.8425L73.1324 85.8425C73.3568 85.8425 73.5491 85.7786 73.7094 85.6508L73.7094 85.6508L73.7094 85.6667ZM78.4535 82.3427L79.1908 82.3427L77.2034 86.8493C77.0271 87.2648 76.8187 87.5685 76.5944 87.7283C76.3539 87.9041 76.0815 87.984 75.7449 87.984L75.7449 87.984C75.5365 87.984 75.3442 87.952 75.1519 87.8881C74.9596 87.8242 74.7993 87.7283 74.6871 87.6004L74.6871 87.6004L75.0076 87.0411C75.216 87.2489 75.4724 87.3447 75.7449 87.3447L75.7449 87.3447C75.9212 87.3447 76.0815 87.2968 76.1937 87.2009C76.3219 87.105 76.4181 86.9452 76.5302 86.7055L76.5302 86.7055L76.6585 86.4178L74.8474 82.3267L75.6167 82.3267L77.0591 85.6028L78.4856 82.3267L78.4535 82.3427ZM89.4162 86.4498L88.679 86.4498L88.679 82.5025C88.679 82.5025 86.7076 85.7946 86.7076 85.7946L86.355 85.7946L84.3836 82.5344L84.3836 86.4498L83.6464 86.4498L83.6464 81.0322L84.2875 81.0322L86.5473 84.8357L88.7751 81.0322L89.4162 81.0322L89.4162 86.4498L89.4162 86.4498ZM93.2147 82.3107C93.7917 82.3107 94.2244 82.4545 94.529 82.7262C94.8335 82.9979 94.9777 83.4134 94.9777 83.9727L94.9777 83.9727L94.9777 86.4498L94.2725 86.4498L94.2725 85.9065C94.1443 86.0982 93.968 86.2421 93.7436 86.3379C93.5192 86.4338 93.2468 86.4818 92.9262 86.4818L92.9262 86.4818C92.4614 86.4818 92.0928 86.3699 91.8203 86.1462C91.5479 85.9224 91.4036 85.6348 91.4036 85.2672L91.4036 85.2672C91.4036 84.8996 91.5318 84.612 91.8043 84.4042C92.0607 84.1805 92.4935 84.0686 93.0544 84.0686L94.2405 84.0686L94.2405 83.9248C94.2405 83.6052 94.1443 83.3655 93.968 83.1897C93.7757 83.0139 93.5032 82.934 93.1506 82.934L93.1506 82.934C92.9102 82.934 92.6698 82.9819 92.4294 83.0618C92.189 83.1417 91.9966 83.2536 91.8364 83.3814L91.8364 83.3814L91.5318 82.8221C91.7402 82.6463 91.9966 82.5185 92.2851 82.4386C92.5736 82.3427 92.8942 82.3107 93.2307 82.3107L93.2307 82.3107L93.2147 82.3107ZM93.0384 85.9224C93.3269 85.9224 93.5673 85.8585 93.7757 85.7307C93.984 85.6028 94.1283 85.427 94.2244 85.1873L94.2244 85.1873L94.2244 84.612L93.0705 84.612C92.4454 84.612 92.1249 84.8197 92.1249 85.2512L92.1249 85.2512C92.1249 85.459 92.205 85.6188 92.3653 85.7466C92.5255 85.8745 92.7499 85.9224 93.0384 85.9224L93.0384 85.9224ZM99.3211 82.3107C99.85 82.3107 100.267 82.4545 100.571 82.7582C100.876 83.0618 101.036 83.5093 101.036 84.0846L101.036 84.0846L101.036 86.4498L100.299 86.4498L100.299 84.1805C100.299 83.781 100.203 83.4773 100.01 83.2856C99.818 83.0778 99.5455 82.9819 99.1929 82.9819L99.1929 82.9819C98.7922 82.9819 98.4717 83.0938 98.2313 83.3335C97.9909 83.5732 97.8787 83.9088 97.8787 84.3403L97.8787 84.3403L97.8787 86.4498L97.1414 86.4498L97.1414 82.3427L97.8626 82.3427L97.8626 82.9659C98.0069 82.7582 98.2152 82.5984 98.4717 82.4705C98.7281 82.3587 99.0166 82.2947 99.3372 82.2947L99.3372 82.2947L99.3211 82.3107ZM104.69 82.3107C105.267 82.3107 105.7 82.4545 106.005 82.7262C106.309 82.9979 106.453 83.4134 106.453 83.9727L106.453 83.9727L106.453 86.4498L105.748 86.4498L105.748 85.9065C105.62 86.0982 105.444 86.2421 105.219 86.3379C104.995 86.4338 104.722 86.4818 104.402 86.4818L104.402 86.4818C103.937 86.4818 103.568 86.3699 103.296 86.1462C103.023 85.9224 102.879 85.6348 102.879 85.2672L102.879 85.2672C102.879 84.8996 103.007 84.612 103.28 84.4042C103.536 84.1805 103.969 84.0686 104.53 84.0686L105.716 84.0686L105.716 83.9248C105.716 83.6052 105.62 83.3655 105.444 83.1897C105.251 83.0139 104.979 82.934 104.626 82.934L104.626 82.934C104.386 82.934 104.145 82.9819 103.905 83.0618C103.665 83.1417 103.472 83.2536 103.312 83.3814L103.312 83.3814L103.007 82.8221C103.216 82.6463 103.472 82.5185 103.761 82.4386C104.049 82.3427 104.37 82.3107 104.706 82.3107L104.706 82.3107L104.69 82.3107ZM104.514 85.9224C104.802 85.9224 105.043 85.8585 105.251 85.7307C105.46 85.6028 105.604 85.427 105.7 85.1873L105.7 85.1873L105.7 84.612L104.546 84.612C103.921 84.612 103.6 84.8197 103.6 85.2512L103.6 85.2512C103.6 85.459 103.681 85.6188 103.841 85.7466C104.001 85.8585 104.226 85.9224 104.514 85.9224L104.514 85.9224ZM111.855 82.3427L112.56 82.3427L112.56 85.8905C112.56 86.6096 112.383 87.137 112.031 87.4886C111.678 87.8242 111.133 88 110.428 88L110.428 88C110.043 88 109.675 87.952 109.322 87.8402C108.97 87.7283 108.681 87.5845 108.473 87.3927L108.473 87.3927L108.825 86.8174C109.018 86.9772 109.258 87.105 109.531 87.2009C109.803 87.2968 110.108 87.3447 110.396 87.3447L110.396 87.3447C110.877 87.3447 111.229 87.2329 111.47 87.0091C111.694 86.7854 111.822 86.4338 111.822 85.9704L111.822 85.9704L111.822 85.6508C111.646 85.8585 111.438 86.0183 111.181 86.1302C110.925 86.2421 110.652 86.29 110.348 86.29L110.348 86.29C109.947 86.29 109.595 86.2101 109.274 86.0343C108.954 85.8745 108.713 85.6348 108.521 85.3311C108.345 85.0275 108.248 84.6919 108.248 84.2924L108.248 84.2924C108.248 83.9088 108.345 83.5572 108.521 83.2536C108.697 82.95 108.954 82.7262 109.274 82.5504C109.595 82.3906 109.947 82.3107 110.348 82.3107L110.348 82.3107C110.652 82.3107 110.941 82.3746 111.213 82.4865C111.486 82.5984 111.694 82.7742 111.871 82.9819L111.871 82.9819L111.871 82.3427L111.855 82.3427ZM110.412 85.6188C110.685 85.6188 110.925 85.5549 111.133 85.443C111.342 85.3311 111.518 85.1713 111.63 84.9636C111.758 84.7558 111.806 84.5321 111.806 84.2764L111.806 84.2764C111.806 83.8769 111.678 83.5572 111.406 83.3175C111.149 83.0778 110.797 82.95 110.396 82.95L110.396 82.95C109.979 82.95 109.643 83.0778 109.37 83.3175C109.114 83.5572 108.97 83.8769 108.97 84.2764L108.97 84.2764C108.97 84.5321 109.034 84.7718 109.146 84.9636C109.274 85.1713 109.434 85.3311 109.643 85.443C109.851 85.5549 110.108 85.6188 110.38 85.6188L110.38 85.6188L110.412 85.6188ZM118.474 84.4042C118.474 84.4042 118.474 84.5321 118.474 84.628L115.14 84.628C115.188 84.9955 115.348 85.2832 115.621 85.4909C115.893 85.7147 116.23 85.8265 116.631 85.8265L116.631 85.8265C117.128 85.8265 117.512 85.6667 117.817 85.3311L117.817 85.3311L118.233 85.8106C118.041 86.0343 117.817 86.1941 117.544 86.306C117.272 86.4178 116.951 86.4818 116.615 86.4818L116.615 86.4818C116.182 86.4818 115.797 86.3859 115.461 86.2101C115.124 86.0343 114.868 85.7786 114.675 85.459C114.499 85.1394 114.403 84.7718 114.403 84.3723L114.403 84.3723C114.403 83.9727 114.499 83.6212 114.675 83.3015C114.852 82.9819 115.092 82.7262 115.413 82.5504C115.733 82.3746 116.086 82.2787 116.47 82.2787L116.47 82.2787C116.871 82.2787 117.208 82.3746 117.528 82.5504C117.849 82.7262 118.073 82.9819 118.249 83.3015C118.426 83.6212 118.506 83.9887 118.506 84.4042L118.506 84.4042L118.474 84.4042ZM116.438 82.918C116.086 82.918 115.781 83.0299 115.541 83.2376C115.3 83.4613 115.156 83.733 115.124 84.0846L117.769 84.0846C117.721 83.733 117.592 83.4613 117.352 83.2376C117.111 83.0139 116.807 82.902 116.454 82.902L116.454 82.902L116.438 82.918ZM125.43 82.2947C125.943 82.2947 126.359 82.4386 126.664 82.7422C126.968 83.0458 127.113 83.4773 127.113 84.0686L127.113 84.0686L127.113 86.4338L126.375 86.4338L126.375 84.1645C126.375 83.765 126.279 83.4613 126.103 83.2696C125.927 83.0618 125.654 82.9659 125.317 82.9659L125.317 82.9659C124.933 82.9659 124.644 83.0778 124.42 83.3175C124.196 83.5572 124.083 83.8928 124.083 84.3243L124.083 84.3243L124.083 86.4338L123.346 86.4338L123.346 84.1645C123.346 83.765 123.25 83.4613 123.074 83.2696C122.897 83.0618 122.625 82.9659 122.288 82.9659L122.288 82.9659C121.904 82.9659 121.615 83.0778 121.391 83.3175C121.166 83.5572 121.054 83.8928 121.054 84.3243L121.054 84.3243L121.054 86.4338L120.317 86.4338L120.317 82.3267L121.038 82.3267L121.038 82.934C121.182 82.7262 121.391 82.5664 121.631 82.4545C121.872 82.3427 122.144 82.2947 122.465 82.2947L122.465 82.2947C122.785 82.2947 123.074 82.3587 123.314 82.4865C123.554 82.6143 123.747 82.8061 123.891 83.0458L123.891 83.0458C124.051 82.8061 124.26 82.6303 124.532 82.4865C124.805 82.3587 125.125 82.2787 125.462 82.2787L125.462 82.2787L125.43 82.2947ZM133.011 84.4042C133.011 84.4042 133.011 84.5321 133.011 84.628L129.677 84.628C129.725 84.9955 129.885 85.2832 130.158 85.4909C130.43 85.7147 130.767 85.8265 131.167 85.8265L131.167 85.8265C131.664 85.8265 132.049 85.6667 132.354 85.3311L132.354 85.3311L132.77 85.8106C132.578 86.0343 132.354 86.1941 132.081 86.306C131.809 86.4178 131.488 86.4818 131.151 86.4818L131.151 86.4818C130.719 86.4818 130.334 86.3859 129.997 86.2101C129.661 86.0343 129.404 85.7786 129.212 85.459C129.036 85.1394 128.94 84.7718 128.94 84.3723L128.94 84.3723C128.94 83.9727 129.036 83.6212 129.212 83.3015C129.388 82.9819 129.629 82.7262 129.949 82.5504C130.27 82.3746 130.623 82.2787 131.007 82.2787L131.007 82.2787C131.408 82.2787 131.744 82.3746 132.065 82.5504C132.386 82.7262 132.61 82.9819 132.786 83.3015C132.963 83.6212 133.043 83.9887 133.043 84.4042L133.043 84.4042L133.011 84.4042ZM130.975 82.918C130.623 82.918 130.318 83.0299 130.078 83.2376C129.837 83.4613 129.693 83.733 129.661 84.0846L132.305 84.0846C132.257 83.733 132.129 83.4613 131.889 83.2376C131.648 83.0139 131.344 82.902 130.991 82.902L130.991 82.902L130.975 82.918ZM137.017 82.2947C137.546 82.2947 137.963 82.4386 138.268 82.7422C138.572 83.0458 138.732 83.4933 138.732 84.0686L138.732 84.0686L138.732 86.4338L137.995 86.4338L137.995 84.1645C137.995 83.765 137.899 83.4613 137.707 83.2696C137.514 83.0618 137.242 82.9659 136.889 82.9659L136.889 82.9659C136.489 82.9659 136.168 83.0778 135.928 83.3175C135.687 83.5572 135.575 83.8928 135.575 84.3243L135.575 84.3243L135.575 86.4338L134.838 86.4338L134.838 82.3267L135.559 82.3267L135.559 82.95C135.703 82.7422 135.912 82.5824 136.168 82.4545C136.424 82.3427 136.713 82.2787 137.034 82.2787L137.034 82.2787L137.017 82.2947ZM142.964 85.6667L143.204 86.1941C143.092 86.29 142.964 86.3539 142.803 86.4019C142.643 86.4498 142.483 86.4818 142.306 86.4818L142.306 86.4818C141.89 86.4818 141.569 86.3699 141.345 86.1462C141.12 85.9224 141.008 85.6028 141.008 85.1873L141.008 85.1873L141.008 82.934L140.303 82.934L140.303 82.3267L141.008 82.3267L141.008 81.4318L141.746 81.4318L141.746 82.3267L142.932 82.3267L142.932 82.934L141.746 82.934L141.746 85.1553C141.746 85.3791 141.794 85.5549 141.906 85.6667C142.018 85.7786 142.178 85.8425 142.387 85.8425L142.387 85.8425C142.611 85.8425 142.803 85.7786 142.964 85.6508L142.964 85.6508L142.964 85.6667Z" id="Shape" fill="#B09E80" stroke="none"></path><g id="Group" transform="translate(49.876953 23.164795)"><path d="M44.9086 31.3549L11.5557 31.3549L11.5557 19.2892L28.2242 0L44.8926 19.2892L44.8926 31.3549L44.9086 31.3549Z" id="Path" fill="#B09E80" stroke="none"></path><path d="M17.7904 31.3549L0 31.3549L0 24.9145L8.89518 14.6067L17.7904 24.9145L17.7904 31.3549L17.7904 31.3549Z" id="Path" fill="#E9E9E9" stroke="none"></path><path d="M8.60669 24.5469L8.60669 26.6404L6.50711 26.6404L6.50711 24.5469L8.60669 24.5469Z" id="Path" fill="#B09E80" stroke="none"></path><path d="M11.2512 24.5469L11.2512 26.6404L9.15162 26.6404L9.15162 24.5469L11.2512 24.5469Z" id="Path" fill="#B09E80" stroke="none"></path><path d="M8.60669 27.1838L8.60669 29.2773L6.50711 29.2773L6.50711 27.1838L8.60669 27.1838L8.60669 27.1838Z" id="Path" fill="#B09E80" stroke="none"></path><path d="M11.2512 27.1838L11.2512 29.2773L9.15162 29.2773L9.15162 27.1838L11.2512 27.1838L11.2512 27.1838Z" id="Path" fill="#B09E80" stroke="none"></path></g><path d="M8.23806 74.2723L0 74.2723L0 74.0326L1.26616 73.4253L1.26616 65.3229L0 64.6997L0 64.46L4.93642 64.46L4.93642 64.6997L3.52602 65.307L3.52602 73.4413L6.7956 73.4413L7.99765 70.6287L8.23806 70.6287L8.23806 74.2564L8.23806 74.2723ZM14.9695 74.4162L14.9695 74.4162C14.088 74.4162 13.3187 74.2244 12.6616 73.8568C11.9885 73.4733 11.4596 72.9619 11.0749 72.3226C10.6902 71.6674 10.4979 70.9323 10.4979 70.1013L10.4979 70.1013C10.4979 69.2862 10.6902 68.5351 11.0749 67.8959C11.4596 67.2407 11.9885 66.7293 12.6616 66.3457C13.3348 65.9622 14.1041 65.7864 14.9695 65.7864L14.9695 65.7864C15.8511 65.7864 16.6204 65.9782 17.2935 66.3457C17.9667 66.7293 18.4956 67.2407 18.8802 67.8959C19.2649 68.5511 19.4572 69.2862 19.4572 70.1013L19.4572 70.1013C19.4572 70.9323 19.2649 71.6674 18.8802 72.3226C18.4956 72.9779 17.9667 73.4893 17.2935 73.8568C16.6204 74.2404 15.8511 74.4162 14.9695 74.4162ZM15.1779 73.6491L15.1779 73.6491C15.819 73.6491 16.3158 73.3454 16.6684 72.7541C17.0371 72.1628 17.2134 71.3957 17.2134 70.4688L17.2134 70.4688C17.2134 69.7018 17.1172 69.0305 16.9089 68.4392C16.7005 67.8479 16.428 67.3845 16.0594 67.0489C15.6908 66.7133 15.2901 66.5375 14.8093 66.5375L14.8093 66.5375C14.3926 66.5375 14.0239 66.6654 13.7194 66.937C13.3989 67.2087 13.1585 67.5763 12.9822 68.0557C12.8059 68.5351 12.7257 69.0785 12.7257 69.7018L12.7257 69.7018C12.7257 70.4688 12.8379 71.14 13.0463 71.7313C13.2546 72.3226 13.5431 72.7861 13.9117 73.1217C14.2804 73.4573 14.6971 73.6331 15.1779 73.6331L15.1779 73.6491ZM26.4932 74.3522L25.5155 74.3522L22.1177 66.6973L21.2362 66.2179L21.2362 65.9622L25.4514 65.9622L25.4514 66.2179L24.4417 66.6654L26.6535 71.7473L26.7657 71.7473L28.9775 66.6654L27.9357 66.2179L27.9357 65.9622L30.7084 65.9622L30.7084 66.2179L29.9551 66.6334L26.5092 74.3522L26.4932 74.3522ZM39.9402 74.2723L32.3913 74.2723L32.3913 74.0326L33.4972 73.5372L33.4972 66.6813L32.3913 66.1859L32.3913 65.9462L39.5876 65.9462L39.5876 68.1676L39.3472 68.1676L38.3855 66.6973L35.6769 66.6973L35.6769 69.6059L37.6002 69.6059L38.2893 68.5351L38.5137 68.5351L38.5137 71.3638L38.2893 71.3638L37.6002 70.309L35.6769 70.309L35.6769 73.5052L38.69 73.5052L39.7158 71.5875L39.9562 71.5875L39.9562 74.2564L39.9402 74.2723ZM49.4925 74.2723L42.1199 74.2723L42.1199 74.0326L43.2258 73.5372L43.2258 66.6813L42.1199 66.1859L42.1199 65.9462L46.6236 65.9462L46.6236 66.1859L45.4055 66.6813L45.4055 73.5052L48.1462 73.5052L49.2681 71.0921L49.5085 71.0921L49.5085 74.2723L49.4925 74.2723ZM58.2755 74.2723L53.8199 74.2723L53.8199 74.0326L54.9738 73.5372L54.9738 70.341L52.2973 66.7133L51.3196 66.1859L51.3196 65.9462L55.5668 65.9462L55.5668 66.1859L54.6212 66.6494L54.6212 66.6973L56.7849 69.5739L58.7402 66.7293L58.7402 66.6654L57.7626 66.1859L57.7626 65.9462L60.7276 65.9462L60.7276 66.1859L59.7981 66.6174L57.1696 70.357L57.1696 73.5372L58.3075 74.0326L58.3075 74.2723L58.2755 74.2723ZM70.3921 74.2723L66.8341 74.2723L66.8341 74.0326L68.1002 73.4253L68.4208 65.3229L67.1065 64.7157L67.1065 64.4759L70.7928 64.4759L73.7899 71.3798L76.755 64.4759L80.3291 64.4759L80.3291 64.7157L79.0309 65.1791L79.2873 73.4413L80.4253 74.0486L80.4253 74.2883L75.9055 74.2883L75.9055 74.0486L77.0916 73.4573L76.9473 66.4097L73.5495 74.3682L72.7161 74.3682L69.2862 66.4416L69.0939 73.4733L70.3921 74.0646L70.3921 74.3043L70.3921 74.2723ZM89.9776 74.2723L82.4287 74.2723L82.4287 74.0326L83.5346 73.5372L83.5346 66.6813L82.4287 66.1859L82.4287 65.9462L89.625 65.9462L89.625 68.1676L89.3846 68.1676L88.4229 66.6973L85.7143 66.6973L85.7143 69.6059L87.6376 69.6059L88.3267 68.5351L88.5511 68.5351L88.5511 71.3638L88.3267 71.3638L87.6376 70.309L85.7143 70.309L85.7143 73.5052L88.7274 73.5052L89.7532 71.5875L89.9936 71.5875L89.9936 74.2564L89.9776 74.2723ZM95.2345 74.2723L92.1252 74.2723L92.1252 74.0326L93.2311 73.5212L93.5036 66.6654L92.3656 66.1859L92.3656 65.9462L95.8756 65.9462L98.2797 71.3638L100.684 65.9462L104.082 65.9462L104.082 66.1859L102.96 66.5375L103.168 73.5212L104.162 74.0326L104.162 74.2723L99.9466 74.2723L99.9466 74.0326L100.972 73.5372L100.86 67.5763L97.8791 74.3203L97.238 74.3203L94.2889 67.5603L94.1286 73.5372L95.2506 74.0326L95.2506 74.2723L95.2345 74.2723ZM110.733 74.4162L110.733 74.4162C109.851 74.4162 109.082 74.2244 108.425 73.8568C107.752 73.4733 107.223 72.9619 106.838 72.3226C106.454 71.6674 106.261 70.9323 106.261 70.1013L106.261 70.1013C106.261 69.2862 106.454 68.5351 106.838 67.8959C107.223 67.2407 107.752 66.7293 108.425 66.3457C109.098 65.9622 109.868 65.7864 110.733 65.7864L110.733 65.7864C111.614 65.7864 112.384 65.9782 113.057 66.3457C113.73 66.7293 114.259 67.2407 114.644 67.8959C115.028 68.5511 115.221 69.2862 115.221 70.1013L115.221 70.1013C115.221 70.9323 115.028 71.6674 114.644 72.3226C114.259 72.9779 113.73 73.4893 113.057 73.8568C112.384 74.2404 111.614 74.4162 110.733 74.4162ZM110.941 73.6491L110.941 73.6491C111.582 73.6491 112.079 73.3454 112.432 72.7541C112.801 72.1628 112.977 71.3957 112.977 70.4688L112.977 70.4688C112.977 69.7018 112.881 69.0305 112.672 68.4392C112.464 67.8479 112.191 67.3845 111.823 67.0489C111.454 66.7133 111.054 66.5375 110.573 66.5375L110.573 66.5375C110.156 66.5375 109.787 66.6654 109.483 66.937C109.162 67.2087 108.922 67.5763 108.746 68.0557C108.569 68.5351 108.489 69.0785 108.489 69.7018L108.489 69.7018C108.489 70.4688 108.601 71.14 108.81 71.7313C109.018 72.3226 109.307 72.7861 109.675 73.1217C110.044 73.4573 110.461 73.6331 110.941 73.6331L110.941 73.6491ZM121.584 74.2723L117.352 74.2723L117.352 74.0326L118.458 73.5372L118.458 66.6813L117.352 66.1859L117.352 65.9462L121.904 65.9462C122.802 65.9462 123.523 66.122 124.036 66.4896C124.565 66.8571 124.821 67.3366 124.821 67.9598L124.821 67.9598C124.821 68.8707 124.26 69.526 123.154 69.9095L123.154 69.9095L125.446 73.5532L126.408 74.0326L126.408 74.2723L123.33 74.2723L121.167 70.4848L120.622 70.4848L120.622 73.5212L121.567 74.0326L121.567 74.2723L121.584 74.2723ZM121.055 66.6334L120.638 66.6334L120.638 69.7817L121.103 69.7817C121.632 69.7817 122.016 69.6378 122.273 69.3502C122.529 69.0625 122.657 68.663 122.657 68.1835L122.657 68.1835C122.657 67.1608 122.128 66.6334 121.071 66.6334L121.055 66.6334ZM131.969 74.2723L127.738 74.2723L127.738 74.0326L128.716 73.5372L128.716 66.6813L127.738 66.1859L127.738 65.9462L131.969 65.9462L131.969 66.1859L130.895 66.6813L130.895 73.5372L131.969 74.0326L131.969 74.2723ZM141.586 74.2723L134.037 74.2723L134.037 74.0326L135.143 73.5372L135.143 66.6813L134.037 66.1859L134.037 65.9462L141.233 65.9462L141.233 68.1676L140.993 68.1676L140.031 66.6973L137.322 66.6973L137.322 69.6059L139.246 69.6059L139.935 68.5351L140.159 68.5351L140.159 71.3638L139.935 71.3638L139.246 70.309L137.322 70.309L137.322 73.5052L140.336 73.5052L141.361 71.5875L141.602 71.5875L141.602 74.2564L141.586 74.2723ZM146.682 74.4162L146.682 74.4162C146.121 74.4162 145.625 74.3522 145.192 74.2404C144.759 74.1285 144.342 73.9687 143.942 73.7609L143.942 73.7609L143.813 71.6514L144.054 71.6514L145.08 73.2336C145.528 73.5212 146.041 73.6651 146.634 73.6651L146.634 73.6651C147.115 73.6651 147.5 73.5692 147.788 73.3774C148.061 73.1856 148.205 72.9139 148.205 72.5304L148.205 72.5304C148.205 72.2587 148.125 72.035 147.981 71.8752C147.836 71.7154 147.596 71.5556 147.259 71.3798C146.923 71.22 146.49 71.0122 145.945 70.7565L145.945 70.7565C145.336 70.4848 144.871 70.1492 144.567 69.7817C144.262 69.3981 144.118 68.9347 144.118 68.3913L144.118 68.3913C144.118 67.9119 144.262 67.4804 144.535 67.0968C144.807 66.7133 145.192 66.3937 145.673 66.154C146.153 65.9142 146.65 65.8024 147.211 65.8024L147.211 65.8024C147.66 65.8024 148.093 65.8503 148.493 65.9622C148.894 66.0741 149.247 66.2019 149.583 66.3777L149.583 66.3777L149.712 68.3913L149.471 68.3913L148.381 66.8092C148.205 66.7133 148.045 66.6334 147.868 66.6014C147.692 66.5695 147.5 66.5375 147.275 66.5375L147.275 66.5375C146.875 66.5375 146.554 66.6334 146.314 66.8411C146.073 67.0489 145.945 67.3206 145.945 67.6722L145.945 67.6722C145.945 67.8959 146.009 68.0877 146.121 68.2475C146.234 68.4073 146.426 68.5511 146.682 68.6949C146.939 68.8388 147.291 69.0146 147.724 69.2223L147.724 69.2223C148.253 69.478 148.686 69.7337 149.022 69.9734C149.359 70.2132 149.615 70.5008 149.76 70.7885C149.92 71.0921 150 71.4437 150 71.8592L150 71.8592C150 72.3706 149.856 72.8181 149.567 73.2176C149.279 73.6011 148.878 73.9048 148.381 74.1125C147.884 74.3203 147.323 74.4321 146.698 74.4321L146.682 74.4162Z" id="Shape" fill="#E9E9E9" stroke="none"></path><path d="M76.1783 4.56284C73.8062 3.84369 69.3186 4.03546 66.1291 8.84576C66.3215 4.22724 63.5327 1.81409 61.6255 1.047C53.1149 -2.75649 48.467 5.02629 48.467 5.02629L50.9352 5.72946L51.5603 4.78657L51.5282 5.90525L51.6404 5.93721L52.6822 3.97154L52.3136 6.12898L52.6341 6.22487C46.8643 9.16539 46.8643 15.9573 46.8643 15.9573L49.5408 15.2382L50.1819 15.0624L50.2941 15.0304L50.2621 13.8159L51.0314 14.8227L55.7755 13.5442C55.7755 13.5442 55.7434 13.6081 55.7274 13.6401L57.0897 14.4391L55.3267 14.4871C55.2786 14.5989 55.2305 14.6948 55.1825 14.8067L56.4486 15.6058L54.8619 15.6058C54.6696 16.1331 54.4933 16.6765 54.317 17.2678C53.7881 18.77 53.8682 20.448 54.1086 21.8384C54.4131 22.0621 54.6856 22.1101 54.6856 22.1101L54.2048 22.3338C54.4933 23.7241 54.91 24.699 54.91 24.699C54.91 24.699 56.0319 24.651 57.5866 24.0597L57.6667 23.3086L58.2277 23.7881C58.2277 23.7881 58.3398 23.7401 58.3879 23.7082L57.7789 22.2059L59.1412 23.3086C60.4715 22.5575 61.9139 21.3749 63.2122 19.5691C63.1641 19.7928 63.1 20.0165 63.0519 20.2403L63.0519 20.2403C62.8435 21.1192 62.6672 22.0781 62.523 23.1169L62.523 23.1169C62.523 23.1169 62.523 23.1169 62.523 23.1169C62.1063 26.1053 62.0422 29.733 62.7153 33.9041C62.7153 33.952 62.7153 33.984 62.7153 33.984C62.7153 33.984 62.7153 33.984 62.7153 33.984C63.2923 37.4838 64.3822 41.3672 66.2574 45.5862C66.2413 45.6182 66.2574 45.6502 66.3054 45.6981C66.8985 47.0086 67.5556 48.351 68.2928 49.7413L68.3569 49.8692L76.1623 49.8692L75.5692 49.4217C75.4571 49.3418 65.0713 41.3513 65.1996 28.9979C65.1996 28.4705 65.2156 27.9751 65.2316 27.4957L65.2476 27.4957C65.2476 27.4957 65.2476 27.176 65.2476 27.176C65.3598 24.1716 65.6323 21.7745 65.9849 19.8887C66.3695 20.6558 66.7702 21.3589 67.203 21.9822L70.5847 20.5279L67.5876 22.5256C67.8921 22.9411 68.2127 23.3086 68.5332 23.6602L71.6265 22.3498L69.2705 24.3953C69.7994 24.8908 70.3283 25.3222 70.8412 25.6738L72.5561 24.5392L71.6906 26.2172C71.6906 26.2172 71.8188 26.2811 71.8669 26.3131L72.5721 25.8177L72.5721 26.6966C74.3351 27.5756 75.6334 27.7514 75.6334 27.7514C75.6334 27.7514 76.2264 26.6487 76.7232 25.0665C76.7232 25.0665 76.5149 24.715 76.8995 24.4912C77.3323 22.8931 77.6208 20.9275 77.172 19.1216C77.0438 18.4024 76.8835 17.7472 76.7232 17.124L74.864 16.9322L76.4347 16.1331C76.3866 16.0053 76.3546 15.8774 76.3065 15.7496L75.9379 14.7268C75.7616 14.2633 75.5692 13.8638 75.3769 13.4643L80.8422 15.7975L81.8039 14.8387L81.5795 16.1172L81.6917 16.1651L82.461 15.1423L82.3328 16.4368L85.0574 17.6034C85.0574 17.6034 86.5159 7.2956 76.1462 4.56284L76.1783 4.56284ZM55.6472 5.50572C55.6472 5.50572 60.9844 4.13135 64.0937 8.03073C64.1898 8.1426 64.2379 8.20652 64.2379 8.20652C64.1898 8.1426 64.1417 8.09465 64.0937 8.03073C63.5167 7.35952 61.1286 5.04227 55.6472 5.50572L55.6472 5.50572ZM55.9357 23.0849C55.9357 23.0849 56.8172 15.6058 63.8212 10.2201C63.8212 10.2201 57.875 15.2062 55.9357 23.0849ZM64.9111 24.3314L63.7891 25.3222L64.4783 25.3222L63.1801 26.4729L64.7348 27.224C64.7187 27.7833 64.7027 28.3587 64.7027 28.9659C64.6867 30.6759 64.863 32.29 65.1835 33.8242L63.7891 35.0707L65.5522 35.3264C65.6483 35.678 65.7605 36.0296 65.8727 36.3811C65.7445 36.541 65.5361 36.7327 65.1675 36.8286C64.4463 37.0204 64.2539 37.4519 64.8309 37.4519C65.2316 37.4519 65.8567 37.372 66.1932 37.324C68.5813 43.7005 73.1491 47.9994 74.7038 49.3418L68.6134 49.3418C68.4852 49.0861 68.3569 48.8464 68.2287 48.6067C68.5493 48.6226 72.2836 48.7984 70.5687 47.7437C69.543 47.1044 67.9402 46.4972 66.9946 46.0817C66.8985 45.8899 66.8023 45.6821 66.7222 45.4744C68.1806 45.3146 71.7708 44.7872 68.8858 44.4036C67.203 44.1799 66.3375 43.8283 65.9048 43.5407C65.8246 43.3489 65.7605 43.1571 65.6804 42.9494C66.2253 42.438 67.6197 41.0316 67.235 40.2965C66.8504 39.5774 65.2476 39.8171 64.6226 39.9289C63.8533 37.4679 63.3404 35.1666 63.0519 33.0091C63.2923 32.5936 63.6609 32.1302 64.2379 31.8905C65.5041 31.3631 64.286 30.8038 63.8212 30.564C63.3564 30.3243 63.116 29.6531 63.4686 29.4773C63.8212 29.3015 64.7187 28.95 64.2379 28.4865C63.7731 28.023 62.7153 26.7605 62.6993 26.7446C62.7474 25.1465 62.8916 23.6762 63.116 22.3498C63.4045 22.0621 63.7891 21.7425 64.2539 21.5507C65.0232 21.2311 64.1097 20.7037 63.4846 20.4161C63.693 19.5371 63.9174 18.738 64.1417 18.0189C64.27 17.7952 64.3822 17.5554 64.5104 17.3157L64.7508 16.7884L64.8149 16.9961C64.8469 17.092 64.863 17.1879 64.895 17.2678L65.1835 18.0668C65.3117 18.4184 65.456 18.754 65.6002 19.0737C65.3117 20.48 65.0553 22.2059 64.895 24.2995L64.9111 24.3314ZM74.4634 11.2749C71.0495 8.03073 66.626 9.02156 66.626 9.02156C71.5464 7.51934 74.4634 11.2749 74.4634 11.2749ZM74.9602 25.6259C74.4634 16.7564 67.203 10.2042 67.203 10.2042C75.409 16.5007 74.9602 25.6259 74.9602 25.6259L74.9602 25.6259Z" id="Shape" fill="#B09E80" stroke="none"></path></g></svg> 