<svg xmlns="http://www.w3.org/2000/svg" style="display: none;">
  <symbol id="arrival" viewBox="0 0 1024 1024"><path d="M913.23 35.63h-834.080v754.93h149.118v-79.466c0-21.845 17.73-39.575 39.575-39.575 21.924 0 39.575 17.73 39.575 39.575v79.466h149.197v-79.466c0-21.845 17.73-39.575 39.575-39.575s39.575 17.73 39.575 39.575v79.466h149.118v-79.466c0-21.845 17.73-39.575 39.575-39.575 21.924 0 39.575 17.73 39.575 39.575v79.466h149.197v-754.93zM952.805 869.71h-188.772v30.235c0 21.845-17.65 39.575-39.575 39.575-21.845 0-39.575-17.73-39.575-39.575v-30.235h-149.118v30.235c0 21.845-17.73 39.575-39.575 39.575s-39.575-17.73-39.575-39.575v-30.235h-149.197v30.235c0 21.845-17.65 39.575-39.575 39.575-21.845 0-39.575-17.73-39.575-39.575v-30.235h-188.693c-21.845 0-39.575-17.73-39.575-39.575v-834.080c0-21.845 17.73-39.575 39.575-39.575h913.23c21.845 0 39.575 17.73 39.575 39.575v834.080c0 21.845-17.73 39.575-39.575 39.575v0zM690.985 368.961c-1.979 4.828-4.907 9.181-8.548 12.822l-128.856 128.777c-15.434 15.434-40.525 15.434-55.959 0s-15.434-40.525 0-55.959l61.341-61.262h-221.065c-21.924 0-39.575-17.73-39.575-39.575 0-21.924 17.65-39.575 39.575-39.575h221.065l-61.341-61.341c-15.434-15.513-15.434-40.525 0-55.959 7.757-7.757 17.809-11.635 27.94-11.635s20.262 3.878 28.019 11.635l128.856 128.777c3.641 3.641 6.569 7.994 8.548 12.822 1.979 4.749 3.087 9.973 3.087 15.276s-1.108 10.369-3.087 15.197z" /></symbol>
  <symbol id="bathroom" viewBox="0 0 1024 1024"><path d="M463.642 542.403c10.991 88.549 85.345 157.228 175.054 157.228s164.063-68.679 175.054-157.228h-350.108zM684.359 777.378c-7.92 101.905-90.841 182.622-192.673 182.622h-169.478c-107.085 0-194.208-88.879-194.208-198.122v-784.654c0-22.756 18.023-41.224 40.41-41.224 22.306 0 40.41 18.468 40.41 41.224v784.654c0 63.814 50.835 115.674 113.389 115.674h169.478c56.977 0 103.772-43.203 111.773-99.102-125.108-17.726-222.091-126.392-222.091-258.803v-18.468c0-22.756 18.103-41.224 40.41-41.224h433.837c22.306 0 40.41 18.468 40.41 41.224v18.468c0 128.783-91.568 235.635-211.665 257.731v0zM449.434 383.221c-22.306 0-40.41-18.468-40.41-41.224v-94.155c0-22.756 18.103-41.224 40.41-41.224s40.41 18.468 40.41 41.224v94.155c0 22.756-18.103 41.224-40.41 41.224zM638.696 383.221c-22.306 0-40.41-18.468-40.41-41.224v-94.155c0-22.756 18.103-41.224 40.41-41.224s40.41 18.468 40.41 41.224v94.155c0 22.756-18.103 41.224-40.41 41.224zM827.958 383.221c-22.306 0-40.41-18.468-40.41-41.224v-94.155c0-22.756 18.103-41.224 40.41-41.224s40.41 18.468 40.41 41.224v94.155c0 22.756-18.103 41.224-40.41 41.224z" /></symbol>
  <symbol id="bedroom" viewBox="0 0 1024 1024"><path d="M81.672 280.754v183.746h860.657v-183.746h-860.657zM648.555 547.419h-273.11c15.926 37.562 52.678 63.93 95.474 63.93h82.080c42.796 0 79.63-26.368 95.556-63.93v0zM200.749 718.313c0 34.577 27.768 62.769 61.907 62.769h498.688c34.057 0 61.825-28.192 61.825-62.769v-170.894h-89.431c-18.703 83.913-92.452 146.848-180.74 146.848h-82.080c-88.205 0-161.955-62.935-180.658-146.848h-89.512v170.894zM983.164 547.419h-78.323v170.894c0 80.348-64.357 145.687-143.497 145.687h-498.688c-79.14 0-143.579-65.339-143.579-145.687v-170.894h-78.242c-22.541 0-40.836-18.574-40.836-41.459v-432.501c0-22.968 18.294-41.459 40.836-41.459s40.836 18.491 40.836 41.459v124.377h860.657v-124.377c0-22.968 18.213-41.459 40.836-41.459 22.541 0 40.836 18.491 40.836 41.459v432.501c0 22.885-18.294 41.459-40.836 41.459v0z" /></symbol>
  <symbol id="wifi" viewBox="0 0 1024 1024"><path d="M981.917 711.702c-128.993 121.333-295.842 188.074-469.94 188.074-174.020 0-340.87-66.741-469.863-188.074-15.035-14.2-16.114-38.183-2.236-53.566 13.878-15.541 37.395-16.488 52.43-2.288 115.191 108.395 264.308 168.115 419.669 168.115 155.439 0 304.478-59.72 419.746-168.115 7.171-6.706 16.114-10.019 25.135-10.019 9.946 0 19.97 4.102 27.294 12.307 13.801 15.384 12.799 39.366-2.236 53.566zM512.008 171.044c-47.187 0-85.43-39.13-85.43-87.41s38.243-87.41 85.43-87.41c47.187 0 85.43 39.13 85.43 87.41s-38.243 87.41-85.43 87.41zM512.008 657.402c-129.995 0-252.973-51.358-346.268-144.527-14.649-14.674-14.958-38.656-0.617-53.645s37.703-15.226 52.43-0.631c79.339 79.285 183.89 122.911 294.455 122.911s215.116-43.626 294.455-122.911c7.248-7.179 16.577-10.808 25.906-10.808 9.638 0 19.276 3.787 26.523 11.439 14.341 14.989 14.033 38.972-0.617 53.645-93.294 93.169-216.273 144.527-346.268 144.527zM512.008 415.951c-84.427 0-165.462-37.946-222.21-104.214-13.493-15.699-11.951-39.682 3.393-53.488 15.343-13.727 38.783-12.307 52.353 3.471 42.638 49.78 103.317 78.338 166.464 78.338s123.827-28.558 166.464-78.338c7.402-8.52 17.579-12.859 27.911-12.859 8.635 0 17.425 3.077 24.442 9.388 15.343 13.806 16.885 37.788 3.393 53.488-56.747 66.268-137.782 104.214-222.21 104.214z" /></symbol>
</svg>
