<?xml version="1.0" encoding="UTF-8"?> <svg xmlns:xlink="http://www.w3.org/1999/xlink" xmlns="http://www.w3.org/2000/svg" width="451px" height="264px" viewBox="0 0 451 264" version="1.1"><g id="logo"><path d="M18 259.156L18 242.05L20.3076 242.05L20.3076 257.037L29.1533 257.037L29.1533 259.156L18 259.156ZM42.9508 246.188L45.1622 246.188L45.1622 259.156L43.0469 259.156L43.0469 257.188C42.6142 257.844 41.9893 258.349 41.2681 258.752C40.547 259.105 39.7298 259.307 38.8644 259.307L38.8644 259.307C37.2299 259.307 35.9319 258.853 34.9704 257.895C34.0089 256.936 33.5281 255.523 33.5281 253.656L33.5281 253.656L33.5281 246.188L35.7396 246.188L35.7396 253.353C35.7396 254.615 36.028 255.573 36.6049 256.179C37.1818 256.835 37.9991 257.138 39.0567 257.138L39.0567 257.138C40.2586 257.138 41.172 256.784 41.845 256.028C42.5181 255.271 42.8546 254.211 42.8546 252.849L42.8546 252.849L42.8546 246.138L42.9508 246.188ZM62.1806 259.156L59.6327 259.156L56.0751 254.211L52.4695 259.156L49.9697 259.156L54.8252 252.546L50.21 246.239L52.7099 246.239L56.1232 250.881L59.4884 246.239L61.9403 246.239L57.277 252.546L62.1806 259.156ZM75.9781 246.188L78.1895 246.188L78.1895 259.156L76.0742 259.156L76.0742 257.188C75.6415 257.844 75.0166 258.349 74.2955 258.752C73.5743 259.105 72.7571 259.307 71.8917 259.307L71.8917 259.307C70.2572 259.307 68.9592 258.853 67.9977 257.895C67.0362 256.936 66.5554 255.523 66.5554 253.656L66.5554 253.656L66.5554 246.188L68.7669 246.188L68.7669 253.353C68.7669 254.615 69.0553 255.573 69.6322 256.179C70.2091 256.835 71.0264 257.138 72.084 257.138L72.084 257.138C73.2859 257.138 74.1993 256.784 74.8723 256.028C75.5454 255.271 75.8819 254.211 75.8819 252.849L75.8819 252.849L75.8819 246.138L75.9781 246.188ZM86.9391 248.358C87.3237 247.601 87.9006 247.046 88.6698 246.642C89.439 246.239 90.3524 246.037 91.4581 246.037L91.4581 246.037L91.4581 248.307C91.4581 248.307 91.1697 248.307 90.9293 248.307L90.9293 248.307C89.7274 248.307 88.7659 248.711 88.0929 249.468C87.4198 250.225 87.0352 251.284 87.0352 252.697L87.0352 252.697L87.0352 259.156L84.8238 259.156L84.8238 246.188L86.9872 246.188L86.9872 248.358L86.9391 248.358ZM105.736 246.188L107.948 246.188L101.986 260.417C101.458 261.729 100.833 262.688 100.16 263.193C99.4385 263.748 98.6212 264 97.6117 264L97.6117 264C96.9867 264 96.4098 263.899 95.8329 263.697C95.256 263.495 94.7753 263.193 94.4387 262.789L94.4387 262.789L95.4002 261.023C96.0252 261.679 96.7944 261.982 97.6117 261.982L97.6117 261.982C98.1405 261.982 98.6212 261.83 98.9578 261.528C99.2943 261.225 99.6308 260.72 99.9673 259.963L99.9673 259.963L100.352 259.055L94.9195 246.138L97.2271 246.138L101.554 256.482L105.832 246.138L105.736 246.188ZM127.61 242.05C129.726 242.05 131.36 242.555 132.61 243.615C133.86 244.674 134.437 246.138 134.437 248.005L134.437 248.005C134.437 249.872 133.812 251.335 132.61 252.395C131.408 253.454 129.726 253.959 127.61 253.959L123.572 253.959L123.572 259.156L121.264 259.156L121.264 242.05L127.61 242.05ZM127.562 251.839C129.053 251.839 130.158 251.486 130.927 250.83C131.697 250.174 132.081 249.216 132.081 248.005L132.081 248.005C132.081 246.743 131.697 245.835 130.927 245.179C130.158 244.523 129.004 244.17 127.562 244.17L123.62 244.17L123.62 251.839L127.562 251.839L127.562 251.839ZM141.792 248.358C142.177 247.601 142.754 247.046 143.523 246.642C144.292 246.239 145.206 246.037 146.311 246.037L146.311 246.037L146.311 248.307C146.311 248.307 146.023 248.307 145.783 248.307L145.783 248.307C144.581 248.307 143.619 248.711 142.946 249.468C142.273 250.225 141.888 251.284 141.888 252.697L141.888 252.697L141.888 259.156L139.677 259.156L139.677 246.188L141.84 246.188L141.84 248.358L141.792 248.358ZM156.551 259.257C155.301 259.257 154.244 258.954 153.234 258.399C152.273 257.844 151.503 257.037 150.926 256.028C150.398 255.018 150.109 253.908 150.109 252.596L150.109 252.596C150.109 251.335 150.398 250.174 150.926 249.165C151.455 248.156 152.225 247.399 153.234 246.844C154.244 246.289 155.301 245.986 156.551 245.986L156.551 245.986C157.801 245.986 158.859 246.289 159.868 246.844C160.83 247.399 161.599 248.206 162.128 249.165C162.657 250.124 162.945 251.284 162.945 252.596L162.945 252.596C162.945 253.858 162.657 255.018 162.128 256.028C161.599 257.037 160.83 257.794 159.868 258.399C158.907 258.954 157.801 259.257 156.551 259.257L156.551 259.257ZM156.551 257.188C157.32 257.188 158.042 256.986 158.667 256.633C159.291 256.229 159.772 255.725 160.157 255.018C160.493 254.312 160.686 253.555 160.686 252.647L160.686 252.647C160.686 251.739 160.493 250.982 160.157 250.275C159.82 249.569 159.291 249.064 158.667 248.661C158.042 248.307 157.32 248.105 156.551 248.105L156.551 248.105C155.782 248.105 155.061 248.307 154.436 248.661C153.811 249.014 153.33 249.569 152.946 250.275C152.561 250.982 152.417 251.739 152.417 252.647L152.417 252.647C152.417 253.555 152.609 254.312 152.946 255.018C153.33 255.725 153.811 256.229 154.436 256.633C155.061 257.037 155.782 257.188 156.551 257.188L156.551 257.188ZM174.916 246.037C176.118 246.037 177.175 246.289 178.137 246.844C179.098 247.399 179.819 248.156 180.348 249.165C180.877 250.174 181.165 251.284 181.165 252.596L181.165 252.596C181.165 253.908 180.877 255.069 180.348 256.078C179.819 257.087 179.05 257.844 178.137 258.399C177.175 258.954 176.118 259.206 174.916 259.206L174.916 259.206C174.05 259.206 173.233 259.005 172.464 258.651C171.743 258.298 171.118 257.794 170.589 257.087L170.589 257.087L170.589 263.798L168.378 263.798L168.378 246.087L170.541 246.087L170.541 248.156C171.022 247.45 171.647 246.895 172.416 246.541C173.185 246.188 174.002 245.986 174.916 245.986L174.916 245.986L174.916 246.037ZM174.723 257.188C175.493 257.188 176.214 256.986 176.839 256.633C177.464 256.229 177.944 255.725 178.329 255.018C178.714 254.312 178.858 253.555 178.858 252.647L178.858 252.647C178.858 251.739 178.666 250.982 178.329 250.275C177.944 249.569 177.464 249.064 176.839 248.661C176.214 248.307 175.493 248.105 174.723 248.105L174.723 248.105C173.954 248.105 173.233 248.307 172.608 248.661C171.983 249.014 171.502 249.569 171.118 250.275C170.733 250.982 170.589 251.739 170.589 252.647L170.589 252.647C170.589 253.555 170.781 254.312 171.118 255.018C171.454 255.725 171.983 256.229 172.608 256.633C173.233 257.037 173.954 257.188 174.723 257.188L174.723 257.188ZM197.703 252.697C197.703 252.697 197.703 253.101 197.703 253.404L187.704 253.404C187.848 254.564 188.329 255.472 189.146 256.128C189.963 256.835 190.973 257.188 192.175 257.188L192.175 257.188C193.665 257.188 194.819 256.683 195.732 255.624L195.732 255.624L196.982 257.138C196.405 257.844 195.732 258.349 194.915 258.702C194.098 259.055 193.136 259.257 192.126 259.257L192.126 259.257C190.828 259.257 189.675 258.954 188.665 258.399C187.656 257.844 186.886 257.037 186.309 256.028C185.781 255.018 185.492 253.858 185.492 252.596L185.492 252.596C185.492 251.335 185.781 250.225 186.309 249.216C186.838 248.206 187.559 247.399 188.521 246.844C189.482 246.289 190.54 245.986 191.694 245.986L191.694 245.986C192.896 245.986 193.905 246.289 194.867 246.844C195.828 247.399 196.501 248.206 197.03 249.216C197.559 250.225 197.799 251.385 197.799 252.697L197.799 252.697L197.703 252.697ZM191.598 248.005C190.54 248.005 189.627 248.358 188.905 249.014C188.184 249.72 187.752 250.578 187.656 251.688L195.588 251.688C195.444 250.578 195.059 249.72 194.338 249.014C193.617 248.307 192.703 247.954 191.646 247.954L191.646 247.954L191.598 248.005ZM205.251 248.307C205.635 247.55 206.212 246.995 206.982 246.592C207.751 246.188 208.664 245.986 209.77 245.986L209.77 245.986L209.77 248.257C209.77 248.257 209.481 248.257 209.241 248.257L209.241 248.257C208.039 248.257 207.078 248.661 206.405 249.417C205.732 250.174 205.347 251.234 205.347 252.647L205.347 252.647L205.347 259.105L203.136 259.105L203.136 246.138L205.299 246.138L205.299 248.307L205.251 248.307ZM221.548 256.633L222.269 258.298C221.933 258.601 221.548 258.803 221.067 258.954C220.587 259.105 220.106 259.206 219.577 259.206L219.577 259.206C218.327 259.206 217.366 258.853 216.693 258.147C216.02 257.44 215.683 256.431 215.683 255.119L215.683 255.119L215.683 248.005L213.568 248.005L213.568 246.087L215.683 246.087L215.683 243.261L217.895 243.261L217.895 246.087L221.452 246.087L221.452 248.005L217.895 248.005L217.895 255.018C217.895 255.725 218.039 256.28 218.375 256.633C218.712 256.986 219.193 257.188 219.818 257.188L219.818 257.188C220.491 257.188 221.067 256.986 221.548 256.583L221.548 256.583L221.548 256.633ZM235.778 246.138L237.99 246.138L232.028 260.367C231.5 261.679 230.875 262.638 230.202 263.142C229.481 263.697 228.663 263.95 227.654 263.95L227.654 263.95C227.029 263.95 226.452 263.849 225.875 263.647C225.298 263.445 224.817 263.142 224.481 262.739L224.481 262.739L225.442 260.972C226.067 261.628 226.836 261.931 227.654 261.931L227.654 261.931C228.182 261.931 228.663 261.78 229 261.477C229.384 261.174 229.673 260.67 230.009 259.913L230.009 259.913L230.394 259.005L224.961 246.087L227.269 246.087L231.596 256.431L235.874 246.087L235.778 246.138ZM268.661 259.105L266.45 259.105L266.45 246.642C266.45 246.642 260.537 257.037 260.537 257.037L259.479 257.037L253.566 246.743L253.566 259.105L251.354 259.105L251.354 242L253.277 242L260.056 254.009L266.738 242L268.661 242L268.661 259.105L268.661 259.105ZM280.055 246.037C281.786 246.037 283.084 246.491 283.997 247.349C284.911 248.206 285.343 249.518 285.343 251.284L285.343 251.284L285.343 259.105L283.228 259.105L283.228 257.39C282.843 257.995 282.315 258.45 281.642 258.752C280.969 259.055 280.151 259.206 279.19 259.206L279.19 259.206C277.796 259.206 276.69 258.853 275.873 258.147C275.055 257.44 274.623 256.532 274.623 255.372L274.623 255.372C274.623 254.211 275.007 253.303 275.825 252.647C276.594 251.94 277.892 251.587 279.574 251.587L283.132 251.587L283.132 251.133C283.132 250.124 282.843 249.367 282.315 248.812C281.738 248.257 280.92 248.005 279.863 248.005L279.863 248.005C279.142 248.005 278.421 248.156 277.699 248.408C276.978 248.661 276.401 249.014 275.921 249.417L275.921 249.417L275.007 247.651C275.632 247.096 276.401 246.693 277.267 246.44C278.132 246.138 279.094 246.037 280.103 246.037L280.103 246.037L280.055 246.037ZM279.526 257.44C280.392 257.44 281.113 257.239 281.738 256.835C282.363 256.431 282.795 255.876 283.084 255.119L283.084 255.119L283.084 253.303L279.622 253.303C277.747 253.303 276.786 253.959 276.786 255.321L276.786 255.321C276.786 255.977 277.026 256.482 277.507 256.885C277.988 257.289 278.661 257.44 279.526 257.44L279.526 257.44ZM298.372 246.037C299.958 246.037 301.208 246.491 302.121 247.45C303.035 248.408 303.516 249.821 303.516 251.638L303.516 251.638L303.516 259.105L301.304 259.105L301.304 251.94C301.304 250.679 301.016 249.72 300.439 249.115C299.862 248.459 299.045 248.156 297.987 248.156L297.987 248.156C296.785 248.156 295.824 248.509 295.102 249.266C294.381 250.023 294.045 251.083 294.045 252.445L294.045 252.445L294.045 259.105L291.833 259.105L291.833 246.138L293.997 246.138L293.997 248.105C294.429 247.45 295.054 246.945 295.824 246.541C296.593 246.188 297.458 245.986 298.42 245.986L298.42 245.986L298.372 246.037ZM314.477 246.037C316.207 246.037 317.505 246.491 318.419 247.349C319.332 248.206 319.765 249.518 319.765 251.284L319.765 251.284L319.765 259.105L317.649 259.105L317.649 257.39C317.265 257.995 316.736 258.45 316.063 258.752C315.39 259.055 314.573 259.206 313.611 259.206L313.611 259.206C312.217 259.206 311.111 258.853 310.294 258.147C309.477 257.44 309.044 256.532 309.044 255.372L309.044 255.372C309.044 254.211 309.429 253.303 310.246 252.647C311.015 251.94 312.313 251.587 313.996 251.587L317.553 251.587L317.553 251.133C317.553 250.124 317.265 249.367 316.736 248.812C316.159 248.257 315.342 248.005 314.284 248.005L314.284 248.005C313.563 248.005 312.842 248.156 312.121 248.408C311.4 248.661 310.823 249.014 310.342 249.417L310.342 249.417L309.429 247.651C310.054 247.096 310.823 246.693 311.688 246.44C312.554 246.138 313.515 246.037 314.525 246.037L314.525 246.037L314.477 246.037ZM313.948 257.44C314.813 257.44 315.534 257.239 316.159 256.835C316.784 256.431 317.217 255.876 317.505 255.119L317.505 255.119L317.505 253.303L314.044 253.303C312.169 253.303 311.207 253.959 311.207 255.321L311.207 255.321C311.207 255.977 311.448 256.482 311.929 256.885C312.409 257.239 313.082 257.44 313.948 257.44L313.948 257.44ZM335.966 246.138L338.081 246.138L338.081 257.339C338.081 259.61 337.552 261.275 336.495 262.385C335.437 263.445 333.803 264 331.687 264L331.687 264C330.534 264 329.428 263.849 328.37 263.495C327.312 263.142 326.447 262.688 325.822 262.083L325.822 262.083L326.88 260.266C327.457 260.771 328.178 261.174 328.995 261.477C329.812 261.78 330.726 261.931 331.591 261.931L331.591 261.931C333.033 261.931 334.091 261.578 334.812 260.872C335.485 260.165 335.87 259.055 335.87 257.592L335.87 257.592L335.87 256.583C335.341 257.239 334.716 257.743 333.947 258.096C333.178 258.45 332.36 258.601 331.447 258.601L331.447 258.601C330.245 258.601 329.187 258.349 328.226 257.794C327.264 257.289 326.543 256.532 325.966 255.573C325.438 254.615 325.149 253.555 325.149 252.294L325.149 252.294C325.149 251.083 325.438 249.972 325.966 249.014C326.495 248.055 327.264 247.349 328.226 246.794C329.187 246.289 330.245 246.037 331.447 246.037L331.447 246.037C332.36 246.037 333.226 246.239 334.043 246.592C334.86 246.945 335.485 247.5 336.014 248.156L336.014 248.156L336.014 246.138L335.966 246.138ZM331.639 256.482C332.456 256.482 333.178 256.28 333.803 255.927C334.428 255.573 334.956 255.069 335.293 254.413C335.677 253.757 335.822 253.05 335.822 252.243L335.822 252.243C335.822 250.982 335.437 249.972 334.62 249.216C333.851 248.459 332.793 248.055 331.591 248.055L331.591 248.055C330.341 248.055 329.332 248.459 328.514 249.216C327.745 249.972 327.312 250.982 327.312 252.243L327.312 252.243C327.312 253.05 327.505 253.807 327.841 254.413C328.226 255.069 328.707 255.573 329.332 255.927C329.957 256.28 330.726 256.482 331.543 256.482L331.543 256.482L331.639 256.482ZM355.821 252.647C355.821 252.647 355.821 253.05 355.821 253.353L345.821 253.353C345.965 254.514 346.446 255.422 347.263 256.078C348.081 256.784 349.09 257.138 350.292 257.138L350.292 257.138C351.783 257.138 352.936 256.633 353.85 255.573L353.85 255.573L355.1 257.087C354.523 257.794 353.85 258.298 353.032 258.651C352.215 259.005 351.254 259.206 350.244 259.206L350.244 259.206C348.946 259.206 347.792 258.904 346.783 258.349C345.773 257.794 345.004 256.986 344.427 255.977C343.898 254.968 343.61 253.807 343.61 252.546L343.61 252.546C343.61 251.284 343.898 250.174 344.427 249.165C344.956 248.156 345.677 247.349 346.639 246.794C347.6 246.239 348.658 245.936 349.811 245.936L349.811 245.936C351.013 245.936 352.023 246.239 352.984 246.794C353.946 247.349 354.619 248.156 355.148 249.165C355.677 250.174 355.917 251.335 355.917 252.647L355.917 252.647L355.821 252.647ZM349.715 247.954C348.658 247.954 347.744 248.307 347.023 248.963C346.302 249.67 345.869 250.528 345.773 251.638L353.705 251.638C353.561 250.528 353.177 249.67 352.456 248.963C351.734 248.257 350.821 247.904 349.763 247.904L349.763 247.904L349.715 247.954ZM376.685 245.986C378.224 245.986 379.474 246.44 380.387 247.399C381.3 248.358 381.733 249.72 381.733 251.587L381.733 251.587L381.733 259.055L379.522 259.055L379.522 251.89C379.522 250.628 379.233 249.67 378.704 249.064C378.176 248.408 377.358 248.105 376.349 248.105L376.349 248.105C375.195 248.105 374.33 248.459 373.656 249.216C372.983 249.972 372.647 251.032 372.647 252.395L372.647 252.395L372.647 259.055L370.435 259.055L370.435 251.89C370.435 250.628 370.147 249.67 369.618 249.064C369.089 248.408 368.272 248.105 367.263 248.105L367.263 248.105C366.109 248.105 365.243 248.459 364.57 249.216C363.897 249.972 363.561 251.032 363.561 252.395L363.561 252.395L363.561 259.055L361.349 259.055L361.349 246.087L363.513 246.087L363.513 248.005C363.945 247.349 364.57 246.844 365.292 246.491C366.013 246.138 366.83 245.986 367.791 245.986L367.791 245.986C368.753 245.986 369.618 246.188 370.339 246.592C371.06 246.995 371.637 247.601 372.07 248.358L372.07 248.358C372.551 247.601 373.176 247.046 373.993 246.592C374.81 246.188 375.772 245.936 376.781 245.936L376.781 245.936L376.685 245.986ZM399.424 252.647C399.424 252.647 399.424 253.05 399.424 253.353L389.425 253.353C389.569 254.514 390.05 255.422 390.867 256.078C391.684 256.784 392.694 257.138 393.896 257.138L393.896 257.138C395.386 257.138 396.54 256.633 397.453 255.573L397.453 255.573L398.703 257.087C398.126 257.794 397.453 258.298 396.636 258.651C395.819 259.005 394.857 259.206 393.848 259.206L393.848 259.206C392.55 259.206 391.396 258.904 390.386 258.349C389.377 257.794 388.608 256.986 388.031 255.977C387.502 254.968 387.214 253.807 387.214 252.546L387.214 252.546C387.214 251.284 387.502 250.174 388.031 249.165C388.56 248.156 389.281 247.349 390.242 246.794C391.204 246.239 392.261 245.936 393.415 245.936L393.415 245.936C394.617 245.936 395.627 246.239 396.588 246.794C397.55 247.349 398.223 248.156 398.751 249.165C399.28 250.174 399.521 251.335 399.521 252.647L399.521 252.647L399.424 252.647ZM393.319 247.954C392.261 247.954 391.348 248.307 390.627 248.963C389.906 249.67 389.473 250.528 389.377 251.638L397.309 251.638C397.165 250.528 396.78 249.67 396.059 248.963C395.338 248.257 394.425 247.904 393.367 247.904L393.367 247.904L393.319 247.954ZM411.443 245.986C413.03 245.986 414.28 246.44 415.193 247.399C416.106 248.358 416.587 249.771 416.587 251.587L416.587 251.587L416.587 259.055L414.376 259.055L414.376 251.89C414.376 250.628 414.087 249.67 413.51 249.064C412.934 248.408 412.116 248.105 411.059 248.105L411.059 248.105C409.857 248.105 408.895 248.459 408.174 249.216C407.453 249.972 407.116 251.032 407.116 252.395L407.116 252.395L407.116 259.055L404.905 259.055L404.905 246.087L407.068 246.087L407.068 248.055C407.501 247.399 408.126 246.895 408.895 246.491C409.664 246.138 410.53 245.936 411.491 245.936L411.491 245.936L411.443 245.986ZM429.279 256.633L430 258.298C429.663 258.601 429.279 258.803 428.798 258.954C428.317 259.105 427.837 259.206 427.308 259.206L427.308 259.206C426.058 259.206 425.096 258.853 424.423 258.147C423.75 257.44 423.414 256.431 423.414 255.119L423.414 255.119L423.414 248.005L421.298 248.005L421.298 246.087L423.414 246.087L423.414 243.261L425.625 243.261L425.625 246.087L429.183 246.087L429.183 248.005L425.625 248.005L425.625 255.018C425.625 255.725 425.769 256.28 426.106 256.633C426.442 256.986 426.923 257.188 427.548 257.188L427.548 257.188C428.221 257.188 428.798 256.986 429.279 256.583L429.279 256.583L429.279 256.633Z" id="Shape" fill="#B09E80" stroke="none"></path><g id="Group" transform="translate(150 69)"><path d="M135 95L34.7377 95L34.7377 58.4429L84.8448 0L134.952 58.4429L134.952 95L135 95Z" id="Path" fill="#B09E80" fill-opacity="0.98039216" stroke="none"></path><path d="M53.4797 95L0 95L0 75.4867L26.7398 44.2559L53.4797 75.4867L53.4797 95L53.4797 95Z" id="Path" fill="#E9E9E9" stroke="none"></path><path d="M25.8726 74.3731L25.8726 80.7161L19.561 80.7161L19.561 74.3731L25.8726 74.3731Z" id="Path" fill="#B09E80" fill-opacity="0.98039216" stroke="none"></path><path d="M33.8223 74.3731L33.8223 80.7161L27.5107 80.7161L27.5107 74.3731L33.8223 74.3731Z" id="Path" fill="#B09E80" fill-opacity="0.98039216" stroke="none"></path><path d="M25.8726 82.3624L25.8726 88.7054L19.561 88.7054L19.561 82.3624L25.8726 82.3624L25.8726 82.3624Z" id="Path" fill="#B09E80" fill-opacity="0.98039216" stroke="none"></path><path d="M33.8223 82.3624L33.8223 88.7054L27.5107 88.7054L27.5107 82.3624L33.8223 82.3624L33.8223 82.3624Z" id="Path" fill="#B09E80" fill-opacity="0.98039216" stroke="none"></path></g><path d="M1 161L210 161L210 164L1 164L1 161Z" id="Rectangle" fill="#B09E80" fill-opacity="0.98039216" stroke="none"></path><path d="M263 161L451 161L451 164L263 164L263 161Z" id="Rectangle" fill="#B09E80" fill-opacity="0.98039216" stroke="none"></path><path d="M24.7691 223.519L0 223.519L0 222.798L3.80692 220.971L3.80692 196.596L0 194.721L0 194L14.8422 194L14.8422 194.721L10.6016 196.548L10.6016 221.019L20.4321 221.019L24.0463 212.558L24.7691 212.558L24.7691 223.471L24.7691 223.519ZM45.0084 223.952L45.0084 223.952C42.3581 223.952 40.045 223.375 38.0692 222.269C36.0453 221.115 34.4551 219.577 33.2985 217.654C32.142 215.683 31.5637 213.471 31.5637 210.971L31.5637 210.971C31.5637 208.519 32.142 206.26 33.2985 204.337C34.4551 202.365 36.0453 200.827 38.0692 199.673C40.0932 198.519 42.4062 197.99 45.0084 197.99L45.0084 197.99C47.6588 197.99 49.9719 198.567 51.9958 199.673C54.0198 200.827 55.61 202.365 56.7665 204.337C57.9231 206.308 58.5013 208.519 58.5013 210.971L58.5013 210.971C58.5013 213.471 57.9231 215.683 56.7665 217.654C55.61 219.625 54.0198 221.163 51.9958 222.269C49.9719 223.423 47.6588 223.952 45.0084 223.952ZM45.6349 221.644L45.6349 221.644C47.5625 221.644 49.0563 220.731 50.1165 218.952C51.2248 217.173 51.7549 214.865 51.7549 212.077L51.7549 212.077C51.7549 209.769 51.4658 207.75 50.8393 205.971C50.2128 204.192 49.3936 202.798 48.2853 201.788C47.1769 200.779 45.9722 200.25 44.5266 200.25L44.5266 200.25C43.2736 200.25 42.1653 200.635 41.2497 201.452C40.2859 202.269 39.5631 203.375 39.033 204.817C38.5029 206.26 38.262 207.894 38.262 209.769L38.262 209.769C38.262 212.077 38.5993 214.096 39.2258 215.875C39.8522 217.654 40.7196 219.048 41.828 220.058C42.9363 221.067 44.1892 221.596 45.6349 221.596L45.6349 221.644ZM79.6563 223.76L76.7167 223.76L66.5007 200.731L63.8503 199.288L63.8503 198.519L76.524 198.519L76.524 199.288L73.4881 200.635L80.1382 215.923L80.4755 215.923L87.1255 200.635L83.9933 199.288L83.9933 198.519L92.3299 198.519L92.3299 199.288L90.0651 200.538L79.7045 223.76L79.6563 223.76ZM120.087 223.519L97.3898 223.519L97.3898 222.798L100.715 221.308L100.715 200.683L97.3898 199.192L97.3898 198.471L119.027 198.471L119.027 205.154L118.304 205.154L115.412 200.731L107.269 200.731L107.269 209.481L113.051 209.481L115.123 206.26L115.798 206.26L115.798 214.769L115.123 214.769L113.051 211.596L107.269 211.596L107.269 221.212L116.328 221.212L119.412 215.442L120.135 215.442L120.135 223.471L120.087 223.519ZM148.807 223.519L126.64 223.519L126.64 222.798L129.965 221.308L129.965 200.683L126.64 199.192L126.64 198.471L140.182 198.471L140.182 199.192L136.519 200.683L136.519 221.212L144.759 221.212L148.133 213.952L148.856 213.952L148.856 223.519L148.807 223.519ZM175.215 223.519L161.818 223.519L161.818 222.798L165.288 221.308L165.288 211.692L157.24 200.779L154.301 199.192L154.301 198.471L167.071 198.471L167.071 199.192L164.228 200.587L164.228 200.731L170.733 209.385L176.612 200.827L176.612 200.635L173.673 199.192L173.673 198.471L182.588 198.471L182.588 199.192L179.793 200.49L171.89 211.74L171.89 221.308L175.311 222.798L175.311 223.519L175.215 223.519ZM211.646 223.519L200.948 223.519L200.948 222.798L204.755 220.971L205.718 196.596L201.767 194.769L201.767 194.048L212.85 194.048L221.862 214.817L230.777 194.048L241.523 194.048L241.523 194.769L237.62 196.163L238.391 221.019L241.812 222.846L241.812 223.567L228.223 223.567L228.223 222.846L231.789 221.067L231.355 199.865L221.139 223.808L218.633 223.808L208.321 199.962L207.742 221.115L211.646 222.894L211.646 223.615L211.646 223.519ZM270.533 223.519L247.836 223.519L247.836 222.798L251.161 221.308L251.161 200.683L247.836 199.192L247.836 198.471L269.472 198.471L269.472 205.154L268.75 205.154L265.858 200.731L257.714 200.731L257.714 209.481L263.497 209.481L265.569 206.26L266.244 206.26L266.244 214.769L265.569 214.769L263.497 211.596L257.714 211.596L257.714 221.212L266.774 221.212L269.858 215.442L270.581 215.442L270.581 223.471L270.533 223.519ZM286.339 223.519L276.99 223.519L276.99 222.798L280.315 221.26L281.134 200.635L277.713 199.192L277.713 198.471L288.266 198.471L295.494 214.769L302.723 198.471L312.939 198.471L312.939 199.192L309.566 200.25L310.192 221.26L313.18 222.798L313.18 223.519L300.506 223.519L300.506 222.798L303.59 221.308L303.253 203.375L294.29 223.663L292.362 223.663L283.495 203.327L283.013 221.308L286.387 222.798L286.387 223.519L286.339 223.519ZM332.937 223.952L332.937 223.952C330.287 223.952 327.974 223.375 325.998 222.269C323.974 221.115 322.384 219.577 321.227 217.654C320.071 215.683 319.492 213.471 319.492 210.971L319.492 210.971C319.492 208.519 320.071 206.26 321.227 204.337C322.384 202.365 323.974 200.827 325.998 199.673C328.022 198.519 330.335 197.99 332.937 197.99L332.937 197.99C335.588 197.99 337.901 198.567 339.925 199.673C341.948 200.827 343.539 202.365 344.695 204.337C345.852 206.308 346.43 208.519 346.43 210.971L346.43 210.971C346.43 213.471 345.852 215.683 344.695 217.654C343.539 219.625 341.948 221.163 339.925 222.269C337.901 223.423 335.588 223.952 332.937 223.952ZM333.564 221.644L333.564 221.644C335.491 221.644 336.985 220.731 338.045 218.952C339.154 217.173 339.684 214.865 339.684 212.077L339.684 212.077C339.684 209.769 339.395 207.75 338.768 205.971C338.142 204.192 337.322 202.798 336.214 201.788C335.106 200.779 333.901 200.25 332.455 200.25L332.455 200.25C331.202 200.25 330.094 200.635 329.178 201.452C328.215 202.269 327.492 203.375 326.962 204.817C326.432 206.26 326.191 207.894 326.191 209.769L326.191 209.769C326.191 212.077 326.528 214.096 327.155 215.875C327.781 217.654 328.648 219.048 329.757 220.058C330.865 221.067 332.118 221.596 333.564 221.596L333.564 221.644ZM365.561 223.519L352.839 223.519L352.839 222.798L356.164 221.308L356.164 200.683L352.839 199.192L352.839 198.471L366.525 198.471C369.223 198.471 371.392 199 372.934 200.106C374.524 201.212 375.295 202.654 375.295 204.529L375.295 204.529C375.295 207.269 373.609 209.24 370.284 210.394L370.284 210.394L377.175 221.356L380.066 222.798L380.066 223.519L370.814 223.519L364.308 212.125L362.67 212.125L362.67 221.26L365.513 222.798L365.513 223.519L365.561 223.519ZM363.971 200.538L362.718 200.538L362.718 210.01L364.115 210.01C365.706 210.01 366.862 209.577 367.633 208.712C368.404 207.846 368.79 206.644 368.79 205.202L368.79 205.202C368.79 202.125 367.199 200.538 364.019 200.538L363.971 200.538ZM396.787 223.519L384.066 223.519L384.066 222.798L387.005 221.308L387.005 200.683L384.066 199.192L384.066 198.471L396.787 198.471L396.787 199.192L393.559 200.683L393.559 221.308L396.787 222.798L396.787 223.519ZM425.701 223.519L403.004 223.519L403.004 222.798L406.329 221.308L406.329 200.683L403.004 199.192L403.004 198.471L424.641 198.471L424.641 205.154L423.918 205.154L421.026 200.731L412.883 200.731L412.883 209.481L418.665 209.481L420.737 206.26L421.412 206.26L421.412 214.769L420.737 214.769L418.665 211.596L412.883 211.596L412.883 221.212L421.942 221.212L425.026 215.442L425.749 215.442L425.749 223.471L425.701 223.519ZM441.025 223.952L441.025 223.952C439.338 223.952 437.844 223.76 436.543 223.423C435.242 223.087 433.989 222.606 432.785 221.981L432.785 221.981L432.399 215.635L433.122 215.635L436.206 220.394C437.555 221.26 439.097 221.692 440.88 221.692L440.88 221.692C442.326 221.692 443.483 221.404 444.35 220.827C445.169 220.25 445.603 219.433 445.603 218.279L445.603 218.279C445.603 217.462 445.362 216.788 444.928 216.308C444.495 215.827 443.772 215.346 442.76 214.817C441.748 214.337 440.447 213.712 438.808 212.942L438.808 212.942C436.977 212.125 435.58 211.115 434.664 210.01C433.748 208.856 433.315 207.462 433.315 205.827L433.315 205.827C433.315 204.385 433.748 203.087 434.568 201.933C435.387 200.779 436.543 199.817 437.989 199.096C439.435 198.375 440.929 198.038 442.615 198.038L442.615 198.038C443.964 198.038 445.266 198.183 446.47 198.519C447.675 198.856 448.735 199.24 449.747 199.769L449.747 199.769L450.133 205.827L449.41 205.827L446.133 201.067C445.603 200.779 445.121 200.538 444.591 200.442C444.061 200.346 443.483 200.25 442.808 200.25L442.808 200.25C441.603 200.25 440.639 200.538 439.917 201.163C439.194 201.788 438.808 202.606 438.808 203.663L438.808 203.663C438.808 204.337 439.001 204.913 439.338 205.394C439.676 205.875 440.254 206.308 441.025 206.74C441.796 207.173 442.856 207.702 444.157 208.327L444.157 208.327C445.747 209.096 447.048 209.865 448.06 210.587C449.072 211.308 449.843 212.173 450.277 213.038C450.759 213.952 451 215.01 451 216.26L451 216.26C451 217.798 450.566 219.144 449.699 220.346C448.831 221.5 447.627 222.413 446.133 223.038C444.639 223.663 442.952 224 441.073 224L441.025 223.952Z" id="Shape" fill="#E9E9E9" stroke="none"></path><path d="M229.103 13.6329C221.973 11.4842 208.486 12.0572 198.9 26.4295C199.478 12.6302 191.097 5.42018 185.364 3.12825C159.786 -8.2359 145.817 15.0176 145.817 15.0176L153.235 17.1186L155.114 14.3014L155.017 17.6438L155.355 17.7393L158.486 11.8662L157.378 18.3123L158.341 18.5988C141 27.3845 141 47.6776 141 47.6776L149.044 45.5289L150.971 45.0037L151.308 44.9082L151.212 41.2793L153.524 44.2875L167.782 40.4676C167.782 40.4676 167.686 40.6586 167.638 40.7541L171.732 43.1415L166.434 43.2848C166.289 43.619 166.145 43.9055 166 44.2397L169.806 46.6272L165.037 46.6272C164.459 48.2029 163.929 49.8263 163.399 51.593C161.809 56.0814 162.05 61.095 162.773 65.2491C163.688 65.9176 164.507 66.0608 164.507 66.0608L163.062 66.7293C163.929 70.8834 165.181 73.7961 165.181 73.7961C165.181 73.7961 168.553 73.6528 173.226 71.8861L173.466 69.642L175.152 71.0744C175.152 71.0744 175.49 70.9312 175.634 70.8357L173.804 66.3473L177.898 69.642C181.896 67.3978 186.231 63.8644 190.133 58.4688C189.989 59.1373 189.796 59.8058 189.652 60.4742L189.652 60.4742C189.025 63.1004 188.495 65.9653 188.062 69.069L188.062 69.069C188.062 69.069 188.062 69.069 188.062 69.069C186.81 77.9979 186.617 88.8369 188.64 101.299C188.64 101.442 188.64 101.538 188.64 101.538C188.64 101.538 188.64 101.538 188.64 101.538C190.374 111.995 193.65 123.598 199.286 136.203C199.237 136.299 199.286 136.394 199.43 136.538C201.212 140.453 203.187 144.464 205.403 148.618L205.596 149L229.054 149L227.272 147.663C226.935 147.424 195.721 123.55 196.106 86.6404C196.106 85.0647 196.154 83.5845 196.203 82.1521L196.251 82.1521C196.251 82.1521 196.251 81.1971 196.251 81.1971C196.588 72.2204 197.407 65.0581 198.467 59.4238C199.623 61.7157 200.827 63.8166 202.128 65.6788L212.291 61.3337L203.284 67.3023C204.199 68.5437 205.162 69.642 206.126 70.6924L215.422 66.777L208.341 72.8888C209.931 74.369 211.521 75.6583 213.062 76.7087L218.216 73.3186L215.615 78.3322C215.615 78.3322 216 78.5232 216.145 78.6187L218.264 77.1385L218.264 79.7646C223.563 82.3908 227.465 82.916 227.465 82.916C227.465 82.916 229.247 79.6214 230.74 74.8943C230.74 74.8943 230.114 73.8438 231.27 73.1753C232.571 68.4005 233.438 62.5274 232.089 57.1318C231.704 54.9832 231.222 53.0255 230.74 51.1633L225.153 50.5903L229.873 48.2029C229.729 47.8209 229.633 47.4389 229.488 47.0569L228.38 44.001C227.85 42.6163 227.272 41.4226 226.694 40.2289L243.12 47.2001L246.01 44.3352L245.336 48.1551L245.673 48.2984L247.985 45.2425L247.6 49.1101L255.789 52.5957C255.789 52.5957 260.172 21.7979 229.006 13.6329L229.103 13.6329ZM167.397 16.4501C167.397 16.4501 183.438 12.3437 192.783 23.9944C193.072 24.3286 193.216 24.5196 193.216 24.5196C193.072 24.3286 192.927 24.1854 192.783 23.9944C191.048 21.9889 183.871 15.0654 167.397 16.4501L167.397 16.4501ZM168.264 68.9735C168.264 68.9735 170.913 46.6272 191.964 30.5359C191.964 30.5359 174.093 45.4334 168.264 68.9735ZM195.239 72.6979L191.867 75.6583L193.939 75.6583L190.037 79.0962L194.709 81.3403C194.661 83.0115 194.613 84.7305 194.613 86.5449C194.565 91.654 195.095 96.4766 196.058 101.06L191.867 104.785L197.166 105.549C197.455 106.599 197.792 107.65 198.129 108.7C197.744 109.178 197.118 109.751 196.01 110.037C193.842 110.61 193.264 111.899 194.998 111.899C196.203 111.899 198.081 111.661 199.093 111.517C206.27 130.569 219.999 143.413 224.671 147.424L206.366 147.424C205.981 146.66 205.596 145.944 205.21 145.228C206.174 145.276 217.397 145.801 212.243 142.649C209.16 140.74 204.343 138.925 201.501 137.684C201.212 137.111 200.923 136.49 200.682 135.869C205.066 135.392 215.856 133.816 207.185 132.67C202.128 132.002 199.526 130.951 198.226 130.092C197.985 129.519 197.792 128.946 197.551 128.325C199.189 126.797 203.38 122.595 202.224 120.399C201.068 118.25 196.251 118.966 194.372 119.3C192.06 111.947 190.519 105.071 189.652 98.6253C190.374 97.3839 191.482 95.9991 193.216 95.2829C197.022 93.7072 193.361 92.036 191.964 91.3198C190.567 90.6036 189.844 88.5981 190.904 88.0729C191.964 87.5477 194.661 86.4972 193.216 85.1125C191.819 83.7278 188.64 79.9556 188.592 79.9079C188.736 75.133 189.17 70.7402 189.844 66.777C190.711 65.9176 191.867 64.9626 193.264 64.3896C195.576 63.4346 192.831 61.8589 190.952 60.9995C191.578 58.3733 192.253 55.9859 192.927 53.8372C193.312 53.1687 193.65 52.4525 194.035 51.7363L194.758 50.1606L194.95 50.7813C195.047 51.0678 195.095 51.3543 195.191 51.593L196.058 53.9804C196.443 55.0309 196.877 56.0336 197.311 56.9886C196.443 61.1905 195.673 66.3473 195.191 72.6024L195.239 72.6979ZM223.948 33.6873C213.688 23.9944 200.393 26.9548 200.393 26.9548C215.182 22.4664 223.948 33.6873 223.948 33.6873ZM225.442 76.5655C223.948 50.0651 202.128 30.4882 202.128 30.4882C226.79 49.3011 225.442 76.5655 225.442 76.5655L225.442 76.5655Z" id="Shape" fill="#B09E80" fill-opacity="0.98039216" stroke="none"></path></g></svg> 