<?xml version="1.0" encoding="UTF-8"?> <svg xmlns:xlink="http://www.w3.org/1999/xlink" xmlns="http://www.w3.org/2000/svg" width="32px" height="21.982452px" viewBox="0 0 32 21.982452" version="1.1"><g id="Group"><path d="M2.55224 19.4302L2.55224 3.64715L15.2981 12.0568C15.51 12.1972 15.755 12.2661 16 12.2661C16.245 12.2661 16.49 12.1972 16.7019 12.0568L29.4478 3.64715L29.4478 19.4302L2.55224 19.4302ZM26.4718 2.55224L16 9.46116L5.52815 2.55224L26.4718 2.55224ZM31.977 1.16382C31.9694 1.0796 31.9515 0.997926 31.9285 0.913702C31.903 0.829478 31.8724 0.752911 31.8316 0.676344C31.8137 0.643165 31.8111 0.607433 31.7907 0.571702C31.7652 0.535971 31.7295 0.518105 31.7014 0.484926C31.6452 0.416015 31.5865 0.354762 31.5176 0.298612C31.4538 0.247567 31.3926 0.206732 31.3211 0.168448C31.2496 0.130164 31.1782 0.0995374 31.0991 0.0765672C31.0148 0.0484926 30.9357 0.0331791 30.8489 0.0229702C30.8056 0.0204179 30.7673 0 30.7239 0L1.27612 0C1.23273 0 1.19445 0.0204179 1.15106 0.0229702C1.06428 0.0331791 0.985165 0.0484926 0.900941 0.0765672C0.821822 0.0995374 0.750359 0.130164 0.678896 0.168448C0.607433 0.204179 0.543627 0.25012 0.479821 0.301164C0.413463 0.354762 0.354762 0.416015 0.298612 0.484926C0.270538 0.518105 0.234806 0.535971 0.211836 0.571702C0.188866 0.607433 0.186314 0.643165 0.168448 0.676344C0.127612 0.752911 0.0969852 0.829478 0.074015 0.913702C0.0484926 0.997926 0.0306269 1.0796 0.0229702 1.16382C0.0178657 1.20211 0 1.23784 0 1.27612L0 20.7063C0 21.4108 0.571702 21.9825 1.27612 21.9825L30.7239 21.9825C31.4283 21.9825 32 21.4108 32 20.7063L32 1.27612C32 1.23784 31.9821 1.20211 31.977 1.16382L31.977 1.16382Z" id="Fill-1" fill="#B09E80" fill-rule="evenodd" stroke="none"></path></g></svg> 