<?xml version="1.0" encoding="UTF-8"?> <svg xmlns:xlink="http://www.w3.org/1999/xlink" xmlns="http://www.w3.org/2000/svg" width="21.894531px" height="32px" viewBox="0 0 21.894531 32" version="1.1"><defs><path d="M0 0L21.8947 0L21.8947 32L0 32L0 0Z" id="path_1"></path><clipPath id="clip_1"><use xlink:href="#path_1" clip-rule="evenodd" fill-rule="evenodd"></use></clipPath></defs><g id="Group-6"><path d="M10.9428 7.62409C9.05454 7.62409 7.52163 9.17771 7.52163 11.0972C7.52163 13.0141 9.05454 14.5703 10.9428 14.5703C12.831 14.5703 14.3639 13.0141 14.3639 11.0972C14.3639 9.17771 12.831 7.62409 10.9428 7.62409" id="Fill-1" fill="#B09E80" fill-rule="evenodd" stroke="none"></path><g id="Group-5"><path d="M0 0L21.8947 0L21.8947 32L0 32L0 0Z" id="Clip-4" fill="none" fill-rule="evenodd" stroke="none"></path><g clip-path="url(#clip_1)"><path d="M18.2157 15.3559L10.9471 28.1353L3.67843 15.3559C2.16328 12.6866 2.16328 9.50209 3.67843 6.83543C5.19611 4.16876 7.91425 2.57649 10.9471 2.57649C13.9825 2.57649 16.6981 4.16876 18.2157 6.83543C19.7334 9.50467 19.7334 12.6892 18.2157 15.3559M20.4136 5.54718C18.4365 2.07407 14.8987 0 10.9471 0L10.9471 0C6.99551 0 3.45762 2.07407 1.48311 5.54718C-0.493946 9.02029 -0.493946 13.1684 1.48057 16.6441L9.84816 31.3559C10.074 31.7552 10.4928 32 10.9471 32C11.3988 32 11.8176 31.7552 12.046 31.3559L20.4136 16.6441C22.3907 13.1684 22.3907 9.02287 20.4136 5.54718" id="Fill-3" fill="#B09E80" fill-rule="evenodd" stroke="none"></path></g></g></g></svg> 