<?xml version="1.0" encoding="UTF-8"?> <svg xmlns:xlink="http://www.w3.org/1999/xlink" xmlns="http://www.w3.org/2000/svg" width="21.982422px" height="32px" viewBox="0 0 21.982422 32" version="1.1"><g id="Group-4"><path d="M2.55224 29.4478L19.4302 29.4478L19.4302 2.55224L2.55224 2.55224L2.55224 29.4478ZM20.7063 0L1.27612 0C0.571702 0 0 0.571702 0 1.27612L0 30.7239C0 31.4283 0.571702 32 1.27612 32L20.7063 32C21.4133 32 21.9825 31.4283 21.9825 30.7239L21.9825 1.27612C21.9825 0.571702 21.4133 0 20.7063 0L20.7063 0Z" id="Fill-1" fill="#B09E80" fill-rule="evenodd" stroke="none"></path><path d="M10.9915 26.9353C11.9077 26.9353 12.6504 26.1926 12.6504 25.2764C12.6504 24.3601 11.9077 23.6174 10.9915 23.6174C10.0752 23.6174 9.33253 24.3601 9.33253 25.2764C9.33253 26.1926 10.0752 26.9353 10.9915 26.9353" id="Fill-3" fill="#B09E80" fill-rule="evenodd" stroke="none"></path></g></svg> 