<svg version="1.1" viewBox="0 0 52.8 60.50297967032967" xmlns="http://www.w3.org/2000/svg" xmlns:xlink="http://www.w3.org/1999/xlink" style="max-height: 500px" width="52.8" height="60.50297967032967"><g id="logo"><path stroke="none" fill="#B09E80" id="Shape" d="M59.0244 58.4165L59.0244 52.6025L59.85 52.6025L59.85 57.6962L63.0148 57.6962L63.0148 58.4165L59.0244 58.4165ZM67.9512 54.0089L68.7424 54.0089L68.7424 58.4165L67.9856 58.4165L67.9856 57.7476C67.8308 57.9706 67.6072 58.1421 67.3492 58.2793C67.0912 58.3994 66.7988 58.468 66.4892 58.468L66.4892 58.468C65.9044 58.468 65.44 58.3136 65.096 57.9877C64.752 57.6619 64.58 57.1817 64.58 56.5471L64.58 56.5471L64.58 54.0089L65.3712 54.0089L65.3712 56.4442C65.3712 56.873 65.4744 57.1988 65.6808 57.4046C65.8872 57.6276 66.1796 57.7305 66.558 57.7305L66.558 57.7305C66.988 57.7305 67.3148 57.6104 67.5556 57.3532C67.7964 57.0959 67.9168 56.7358 67.9168 56.2727L67.9168 56.2727L67.9168 53.9917L67.9512 54.0089ZM74.8313 58.4165L73.9197 58.4165L72.6469 56.7358L71.3569 58.4165L70.4624 58.4165L72.1997 56.1698L70.5484 54.026L71.4429 54.026L72.6641 55.6038L73.8681 54.026L74.7453 54.026L73.0769 56.1698L74.8313 58.4165ZM79.7677 54.0089L80.5589 54.0089L80.5589 58.4165L79.8021 58.4165L79.8021 57.7476C79.6473 57.9706 79.4237 58.1421 79.1657 58.2793C78.9077 58.3994 78.6153 58.468 78.3057 58.468L78.3057 58.468C77.7209 58.468 77.2565 58.3136 76.9125 57.9877C76.5685 57.6619 76.3965 57.1817 76.3965 56.5471L76.3965 56.5471L76.3965 54.0089L77.1877 54.0089L77.1877 56.4442C77.1877 56.873 77.2909 57.1988 77.4973 57.4046C77.7037 57.6276 77.9961 57.7305 78.3745 57.7305L78.3745 57.7305C78.8045 57.7305 79.1313 57.6104 79.3721 57.3532C79.6129 57.0959 79.7333 56.7358 79.7333 56.2727L79.7333 56.2727L79.7333 53.9917L79.7677 54.0089ZM83.6893 54.7463C83.8269 54.4891 84.0333 54.3004 84.3085 54.1632C84.5837 54.026 84.9105 53.9574 85.3061 53.9574L85.3061 53.9574L85.3061 54.7292C85.3061 54.7292 85.2029 54.7292 85.1169 54.7292L85.1169 54.7292C84.6869 54.7292 84.3429 54.8664 84.1021 55.1236C83.8613 55.3809 83.7237 55.741 83.7237 56.2213L83.7237 56.2213L83.7237 58.4165L82.9325 58.4165L82.9325 54.0089L83.7065 54.0089L83.7065 54.7463L83.6893 54.7463ZM90.4146 54.0089L91.2057 54.0089L89.0729 58.8453C88.8837 59.2912 88.6601 59.617 88.4193 59.7885C88.1613 59.9772 87.8689 60.0629 87.5077 60.0629L87.5077 60.0629C87.2841 60.0629 87.0777 60.0286 86.8713 59.96C86.6649 59.8914 86.4929 59.7885 86.3725 59.6513L86.3725 59.6513L86.7165 59.0511C86.9401 59.274 87.2153 59.3769 87.5077 59.3769L87.5077 59.3769C87.6969 59.3769 87.8689 59.3255 87.9893 59.2226C88.1097 59.1197 88.2301 58.9482 88.3505 58.6909L88.3505 58.6909L88.4881 58.3822L86.5445 53.9917L87.3701 53.9917L88.9181 57.5075L90.4489 53.9917L90.4146 54.0089ZM98.2406 52.6025C98.9974 52.6025 99.5822 52.774 100.029 53.1342C100.477 53.4943 100.683 53.9917 100.683 54.6263L100.683 54.6263C100.683 55.2608 100.459 55.7582 100.029 56.1184C99.5994 56.4785 98.9974 56.65 98.2406 56.65L96.7958 56.65L96.7958 58.4165L95.9702 58.4165L95.9702 52.6025L98.2406 52.6025ZM98.2234 55.9297C98.7566 55.9297 99.1522 55.8096 99.4274 55.5867C99.7026 55.3637 99.8402 55.0379 99.8402 54.6263L99.8402 54.6263C99.8402 54.1975 99.7026 53.8888 99.4274 53.6658C99.1522 53.4429 98.7394 53.3228 98.2234 53.3228L96.813 53.3228L96.813 55.9297L98.2234 55.9297L98.2234 55.9297ZM103.315 54.7463C103.452 54.4891 103.659 54.3004 103.934 54.1632C104.209 54.026 104.536 53.9574 104.931 53.9574L104.931 53.9574L104.931 54.7292C104.931 54.7292 104.828 54.7292 104.742 54.7292L104.742 54.7292C104.312 54.7292 103.968 54.8664 103.727 55.1236C103.487 55.3809 103.349 55.741 103.349 56.2213L103.349 56.2213L103.349 58.4165L102.558 58.4165L102.558 54.0089L103.332 54.0089L103.332 54.7463L103.315 54.7463ZM108.595 58.4508C108.148 58.4508 107.769 58.3479 107.408 58.1592C107.064 57.9706 106.789 57.6962 106.583 57.3532C106.393 57.0102 106.29 56.6329 106.29 56.187L106.29 56.187C106.29 55.7582 106.393 55.3637 106.583 55.0207C106.772 54.6777 107.047 54.4205 107.408 54.2318C107.769 54.0432 108.148 53.9402 108.595 53.9402L108.595 53.9402C109.042 53.9402 109.421 54.0432 109.782 54.2318C110.126 54.4205 110.401 54.6949 110.59 55.0207C110.779 55.3466 110.883 55.741 110.883 56.187L110.883 56.187C110.883 56.6157 110.779 57.0102 110.59 57.3532C110.401 57.6962 110.126 57.9534 109.782 58.1592C109.438 58.3479 109.042 58.4508 108.595 58.4508L108.595 58.4508ZM108.595 57.7476C108.87 57.7476 109.128 57.679 109.352 57.559C109.575 57.4218 109.747 57.2503 109.885 57.0102C110.005 56.7701 110.074 56.5128 110.074 56.2041L110.074 56.2041C110.074 55.8954 110.005 55.6381 109.885 55.398C109.765 55.1579 109.575 54.9864 109.352 54.8492C109.128 54.7292 108.87 54.6606 108.595 54.6606L108.595 54.6606C108.32 54.6606 108.062 54.7292 107.838 54.8492C107.615 54.9693 107.443 55.1579 107.305 55.398C107.167 55.6381 107.116 55.8954 107.116 56.2041L107.116 56.2041C107.116 56.5128 107.185 56.7701 107.305 57.0102C107.443 57.2503 107.615 57.4218 107.838 57.559C108.062 57.6962 108.32 57.7476 108.595 57.7476L108.595 57.7476ZM115.165 53.9574C115.595 53.9574 115.974 54.0432 116.318 54.2318C116.662 54.4205 116.92 54.6777 117.109 55.0207C117.298 55.3637 117.401 55.741 117.401 56.187L117.401 56.187C117.401 56.6329 117.298 57.0273 117.109 57.3703C116.92 57.7133 116.645 57.9706 116.318 58.1592C115.974 58.3479 115.595 58.4337 115.165 58.4337L115.165 58.4337C114.856 58.4337 114.563 58.3651 114.288 58.245C114.03 58.125 113.807 57.9534 113.617 57.7133L113.617 57.7133L113.617 59.9943L112.826 59.9943L112.826 53.9745L113.6 53.9745L113.6 54.6777C113.772 54.4376 113.996 54.249 114.271 54.1289C114.546 54.0089 114.839 53.9402 115.165 53.9402L115.165 53.9402L115.165 53.9574ZM115.097 57.7476C115.372 57.7476 115.63 57.679 115.853 57.559C116.077 57.4218 116.249 57.2503 116.387 57.0102C116.524 56.7701 116.576 56.5128 116.576 56.2041L116.576 56.2041C116.576 55.8954 116.507 55.6381 116.387 55.398C116.249 55.1579 116.077 54.9864 115.853 54.8492C115.63 54.7292 115.372 54.6606 115.097 54.6606L115.097 54.6606C114.821 54.6606 114.563 54.7292 114.34 54.8492C114.116 54.9693 113.944 55.1579 113.807 55.398C113.669 55.6381 113.617 55.8954 113.617 56.2041L113.617 56.2041C113.617 56.5128 113.686 56.7701 113.807 57.0102C113.927 57.2503 114.116 57.4218 114.34 57.559C114.563 57.6962 114.821 57.7476 115.097 57.7476L115.097 57.7476ZM123.318 56.2213C123.318 56.2213 123.318 56.3585 123.318 56.4614L119.741 56.4614C119.792 56.8558 119.964 57.1645 120.257 57.3875C120.549 57.6276 120.91 57.7476 121.34 57.7476L121.34 57.7476C121.874 57.7476 122.286 57.5761 122.613 57.216L122.613 57.216L123.06 57.7305C122.854 57.9706 122.613 58.1421 122.321 58.2622C122.028 58.3822 121.684 58.4508 121.323 58.4508L121.323 58.4508C120.859 58.4508 120.446 58.3479 120.085 58.1592C119.723 57.9706 119.448 57.6962 119.242 57.3532C119.053 57.0102 118.949 56.6157 118.949 56.187L118.949 56.187C118.949 55.7582 119.053 55.3809 119.242 55.0379C119.431 54.6949 119.689 54.4205 120.033 54.2318C120.377 54.0432 120.756 53.9402 121.168 53.9402L121.168 53.9402C121.598 53.9402 121.96 54.0432 122.304 54.2318C122.648 54.4205 122.888 54.6949 123.078 55.0379C123.267 55.3809 123.353 55.7753 123.353 56.2213L123.353 56.2213L123.318 56.2213ZM121.134 54.6263C120.756 54.6263 120.429 54.7463 120.171 54.9693C119.913 55.2094 119.758 55.5009 119.723 55.8782L122.562 55.8782C122.51 55.5009 122.372 55.2094 122.114 54.9693C121.856 54.7292 121.53 54.6091 121.151 54.6091L121.151 54.6091L121.134 54.6263ZM126.019 54.7292C126.156 54.4719 126.363 54.2833 126.638 54.1461C126.913 54.0089 127.24 53.9402 127.636 53.9402L127.636 53.9402L127.636 54.712C127.636 54.712 127.532 54.712 127.446 54.712L127.446 54.712C127.016 54.712 126.672 54.8492 126.432 55.1065C126.191 55.3637 126.053 55.7239 126.053 56.2041L126.053 56.2041L126.053 58.3994L125.262 58.3994L125.262 53.9917L126.036 53.9917L126.036 54.7292L126.019 54.7292ZM131.85 57.559L132.108 58.125C131.987 58.2279 131.85 58.2965 131.678 58.3479C131.506 58.3994 131.334 58.4337 131.144 58.4337L131.144 58.4337C130.697 58.4337 130.353 58.3136 130.112 58.0735C129.872 57.8334 129.751 57.4904 129.751 57.0445L129.751 57.0445L129.751 54.6263L128.994 54.6263L128.994 53.9745L129.751 53.9745L129.751 53.0141L130.542 53.0141L130.542 53.9745L131.815 53.9745L131.815 54.6263L130.542 54.6263L130.542 57.0102C130.542 57.2503 130.594 57.4389 130.714 57.559C130.835 57.679 131.007 57.7476 131.23 57.7476L131.23 57.7476C131.471 57.7476 131.678 57.679 131.85 57.5418L131.85 57.5418L131.85 57.559ZM136.941 53.9917L137.732 53.9917L135.599 58.8281C135.41 59.274 135.186 59.5999 134.946 59.7714C134.688 59.96 134.395 60.0458 134.034 60.0458L134.034 60.0458C133.81 60.0458 133.604 60.0115 133.398 59.9429C133.191 59.8743 133.019 59.7714 132.899 59.6342L132.899 59.6342L133.243 59.0339C133.466 59.2569 133.742 59.3598 134.034 59.3598L134.034 59.3598C134.223 59.3598 134.395 59.3083 134.516 59.2054C134.653 59.1025 134.756 58.931 134.877 58.6738L134.877 58.6738L135.014 58.3651L133.071 53.9745L133.896 53.9745L135.444 57.4904L136.975 53.9745L136.941 53.9917ZM148.706 58.3994L147.914 58.3994L147.914 54.1632C147.914 54.1632 145.799 57.6962 145.799 57.6962L145.42 57.6962L143.305 54.1975L143.305 58.3994L142.514 58.3994L142.514 52.5854L143.202 52.5854L145.627 56.6672L148.018 52.5854L148.706 52.5854L148.706 58.3994L148.706 58.3994ZM152.782 53.9574C153.401 53.9574 153.866 54.1118 154.192 54.4033C154.519 54.6949 154.674 55.1408 154.674 55.741L154.674 55.741L154.674 58.3994L153.917 58.3994L153.917 57.8162C153.78 58.022 153.59 58.1764 153.35 58.2793C153.109 58.3822 152.816 58.4337 152.472 58.4337L152.472 58.4337C151.974 58.4337 151.578 58.3136 151.286 58.0735C150.993 57.8334 150.838 57.5247 150.838 57.1302L150.838 57.1302C150.838 56.7358 150.976 56.4271 151.268 56.2041C151.544 55.964 152.008 55.8439 152.61 55.8439L153.883 55.8439L153.883 55.6896C153.883 55.3466 153.78 55.0893 153.59 54.9007C153.384 54.712 153.092 54.6263 152.713 54.6263L152.713 54.6263C152.455 54.6263 152.197 54.6777 151.939 54.7635C151.681 54.8492 151.475 54.9693 151.303 55.1065L151.303 55.1065L150.976 54.5062C151.2 54.3176 151.475 54.1804 151.784 54.0946C152.094 53.9917 152.438 53.9574 152.799 53.9574L152.799 53.9574L152.782 53.9574ZM152.593 57.8334C152.902 57.8334 153.16 57.7648 153.384 57.6276C153.608 57.4904 153.762 57.3017 153.866 57.0445L153.866 57.0445L153.866 56.4271L152.627 56.4271C151.956 56.4271 151.612 56.65 151.612 57.1131L151.612 57.1131C151.612 57.336 151.698 57.5075 151.87 57.6447C152.042 57.7819 152.283 57.8334 152.593 57.8334L152.593 57.8334ZM159.335 53.9574C159.903 53.9574 160.35 54.1118 160.677 54.4376C161.004 54.7635 161.176 55.2437 161.176 55.8611L161.176 55.8611L161.176 58.3994L160.385 58.3994L160.385 55.964C160.385 55.5352 160.281 55.2094 160.075 55.0036C159.868 54.7806 159.576 54.6777 159.198 54.6777L159.198 54.6777C158.768 54.6777 158.424 54.7978 158.166 55.055C157.908 55.3123 157.787 55.6724 157.787 56.1355L157.787 56.1355L157.787 58.3994L156.996 58.3994L156.996 53.9917L157.77 53.9917L157.77 54.6606C157.925 54.4376 158.148 54.2661 158.424 54.1289C158.699 54.0089 159.008 53.9402 159.353 53.9402L159.353 53.9402L159.335 53.9574ZM165.097 53.9574C165.717 53.9574 166.181 54.1118 166.508 54.4033C166.835 54.6949 166.989 55.1408 166.989 55.741L166.989 55.741L166.989 58.3994L166.233 58.3994L166.233 57.8162C166.095 58.022 165.906 58.1764 165.665 58.2793C165.424 58.3822 165.132 58.4337 164.788 58.4337L164.788 58.4337C164.289 58.4337 163.893 58.3136 163.601 58.0735C163.309 57.8334 163.154 57.5247 163.154 57.1302L163.154 57.1302C163.154 56.7358 163.291 56.4271 163.584 56.2041C163.859 55.964 164.323 55.8439 164.925 55.8439L166.198 55.8439L166.198 55.6896C166.198 55.3466 166.095 55.0893 165.906 54.9007C165.699 54.712 165.407 54.6263 165.029 54.6263L165.029 54.6263C164.771 54.6263 164.513 54.6777 164.255 54.7635C163.997 54.8492 163.79 54.9693 163.618 55.1065L163.618 55.1065L163.291 54.5062C163.515 54.3176 163.79 54.1804 164.1 54.0946C164.409 53.9917 164.753 53.9574 165.115 53.9574L165.115 53.9574L165.097 53.9574ZM164.908 57.8334C165.218 57.8334 165.476 57.7648 165.699 57.6276C165.923 57.4904 166.078 57.3017 166.181 57.0445L166.181 57.0445L166.181 56.4271L164.943 56.4271C164.272 56.4271 163.928 56.65 163.928 57.1131L163.928 57.1131C163.928 57.336 164.014 57.5075 164.186 57.6447C164.358 57.7648 164.599 57.8334 164.908 57.8334L164.908 57.8334ZM172.786 53.9917L173.543 53.9917L173.543 57.7991C173.543 58.5709 173.353 59.1368 172.975 59.5141C172.597 59.8743 172.012 60.0629 171.255 60.0629L171.255 60.0629C170.842 60.0629 170.447 60.0115 170.068 59.8914C169.69 59.7714 169.38 59.617 169.157 59.4112L169.157 59.4112L169.535 58.7938C169.741 58.9653 169.999 59.1025 170.292 59.2054C170.584 59.3083 170.911 59.3598 171.221 59.3598L171.221 59.3598C171.737 59.3598 172.115 59.2397 172.373 58.9996C172.614 58.7595 172.751 58.3822 172.751 57.8848L172.751 57.8848L172.751 57.5418C172.562 57.7648 172.339 57.9363 172.063 58.0563C171.788 58.1764 171.496 58.2279 171.169 58.2279L171.169 58.2279C170.739 58.2279 170.361 58.1421 170.017 57.9534C169.673 57.7819 169.415 57.5247 169.208 57.1988C169.019 56.873 168.916 56.5128 168.916 56.084L168.916 56.084C168.916 55.6724 169.019 55.2951 169.208 54.9693C169.397 54.6434 169.673 54.4033 170.017 54.2147C170.361 54.0432 170.739 53.9574 171.169 53.9574L171.169 53.9574C171.496 53.9574 171.805 54.026 172.098 54.1461C172.39 54.2661 172.614 54.4548 172.803 54.6777L172.803 54.6777L172.803 53.9917L172.786 53.9917ZM171.238 57.5075C171.53 57.5075 171.788 57.4389 172.012 57.3189C172.235 57.1988 172.425 57.0273 172.545 56.8044C172.683 56.5814 172.734 56.3413 172.734 56.0669L172.734 56.0669C172.734 55.6381 172.597 55.2951 172.304 55.0379C172.029 54.7806 171.651 54.6434 171.221 54.6434L171.221 54.6434C170.773 54.6434 170.412 54.7806 170.12 55.0379C169.845 55.2951 169.69 55.6381 169.69 56.0669L169.69 56.0669C169.69 56.3413 169.759 56.5986 169.879 56.8044C170.017 57.0273 170.189 57.1988 170.412 57.3189C170.636 57.4389 170.911 57.5075 171.203 57.5075L171.203 57.5075L171.238 57.5075ZM179.889 56.2041C179.889 56.2041 179.889 56.3413 179.889 56.4442L176.312 56.4442C176.363 56.8387 176.535 57.1474 176.828 57.3703C177.12 57.6104 177.481 57.7305 177.911 57.7305L177.911 57.7305C178.445 57.7305 178.857 57.559 179.184 57.1988L179.184 57.1988L179.631 57.7133C179.425 57.9534 179.184 58.125 178.892 58.245C178.599 58.3651 178.255 58.4337 177.894 58.4337L177.894 58.4337C177.43 58.4337 177.017 58.3308 176.656 58.1421C176.295 57.9534 176.019 57.679 175.813 57.336C175.624 56.993 175.521 56.5986 175.521 56.1698L175.521 56.1698C175.521 55.741 175.624 55.3637 175.813 55.0207C176.002 54.6777 176.26 54.4033 176.604 54.2147C176.948 54.026 177.327 53.9231 177.739 53.9231L177.739 53.9231C178.169 53.9231 178.531 54.026 178.875 54.2147C179.219 54.4033 179.459 54.6777 179.649 55.0207C179.838 55.3637 179.924 55.7582 179.924 56.2041L179.924 56.2041L179.889 56.2041ZM177.705 54.6091C177.327 54.6091 177 54.7292 176.742 54.9521C176.484 55.1922 176.329 55.4838 176.295 55.8611L179.133 55.8611C179.081 55.4838 178.943 55.1922 178.685 54.9521C178.427 54.712 178.101 54.592 177.722 54.592L177.722 54.592L177.705 54.6091ZM187.354 53.9402C187.905 53.9402 188.352 54.0946 188.679 54.4205C189.005 54.7463 189.16 55.2094 189.16 55.8439L189.16 55.8439L189.16 58.3822L188.369 58.3822L188.369 55.9468C188.369 55.5181 188.266 55.1922 188.077 54.9864C187.887 54.7635 187.595 54.6606 187.234 54.6606L187.234 54.6606C186.821 54.6606 186.511 54.7806 186.271 55.0379C186.03 55.2951 185.909 55.6553 185.909 56.1184L185.909 56.1184L185.909 58.3822L185.118 58.3822L185.118 55.9468C185.118 55.5181 185.015 55.1922 184.826 54.9864C184.637 54.7635 184.344 54.6606 183.983 54.6606L183.983 54.6606C183.57 54.6606 183.261 54.7806 183.02 55.0379C182.779 55.2951 182.659 55.6553 182.659 56.1184L182.659 56.1184L182.659 58.3822L181.867 58.3822L181.867 53.9745L182.641 53.9745L182.641 54.6263C182.796 54.4033 183.02 54.2318 183.278 54.1118C183.536 53.9917 183.828 53.9402 184.172 53.9402L184.172 53.9402C184.516 53.9402 184.826 54.0089 185.084 54.1461C185.342 54.2833 185.548 54.4891 185.703 54.7463L185.703 54.7463C185.875 54.4891 186.099 54.3004 186.391 54.1461C186.683 54.0089 187.027 53.9231 187.389 53.9231L187.389 53.9231L187.354 53.9402ZM195.49 56.2041C195.49 56.2041 195.49 56.3413 195.49 56.4442L191.912 56.4442C191.964 56.8387 192.136 57.1474 192.428 57.3703C192.721 57.6104 193.082 57.7305 193.512 57.7305L193.512 57.7305C194.045 57.7305 194.458 57.559 194.785 57.1988L194.785 57.1988L195.232 57.7133C195.025 57.9534 194.785 58.125 194.492 58.245C194.2 58.3651 193.856 58.4337 193.495 58.4337L193.495 58.4337C193.03 58.4337 192.617 58.3308 192.256 58.1421C191.895 57.9534 191.62 57.679 191.413 57.336C191.224 56.993 191.121 56.5986 191.121 56.1698L191.121 56.1698C191.121 55.741 191.224 55.3637 191.413 55.0207C191.603 54.6777 191.861 54.4033 192.205 54.2147C192.549 54.026 192.927 53.9231 193.34 53.9231L193.34 53.9231C193.77 53.9231 194.131 54.026 194.475 54.2147C194.819 54.4033 195.06 54.6777 195.249 55.0207C195.438 55.3637 195.524 55.7582 195.524 56.2041L195.524 56.2041L195.49 56.2041ZM193.305 54.6091C192.927 54.6091 192.6 54.7292 192.342 54.9521C192.084 55.1922 191.929 55.4838 191.895 55.8611L194.733 55.8611C194.681 55.4838 194.544 55.1922 194.286 54.9521C194.028 54.712 193.701 54.592 193.323 54.592L193.323 54.592L193.305 54.6091ZM199.79 53.9402C200.358 53.9402 200.805 54.0946 201.132 54.4205C201.458 54.7463 201.63 55.2265 201.63 55.8439L201.63 55.8439L201.63 58.3822L200.839 58.3822L200.839 55.9468C200.839 55.5181 200.736 55.1922 200.53 54.9864C200.323 54.7635 200.031 54.6606 199.652 54.6606L199.652 54.6606C199.222 54.6606 198.878 54.7806 198.62 55.0379C198.362 55.2951 198.242 55.6553 198.242 56.1184L198.242 56.1184L198.242 58.3822L197.451 58.3822L197.451 53.9745L198.225 53.9745L198.225 54.6434C198.379 54.4205 198.603 54.249 198.878 54.1118C199.154 53.9917 199.463 53.9231 199.807 53.9231L199.807 53.9231L199.79 53.9402ZM206.171 57.559L206.429 58.125C206.309 58.2279 206.171 58.2965 205.999 58.3479C205.827 58.3994 205.655 58.4337 205.466 58.4337L205.466 58.4337C205.019 58.4337 204.675 58.3136 204.434 58.0735C204.193 57.8334 204.073 57.4904 204.073 57.0445L204.073 57.0445L204.073 54.6263L203.316 54.6263L203.316 53.9745L204.073 53.9745L204.073 53.0141L204.864 53.0141L204.864 53.9745L206.137 53.9745L206.137 54.6263L204.864 54.6263L204.864 57.0102C204.864 57.2503 204.916 57.4389 205.036 57.559C205.156 57.679 205.328 57.7476 205.552 57.7476L205.552 57.7476C205.793 57.7476 205.999 57.679 206.171 57.5418L206.171 57.5418L206.171 57.559Z"/><g transform="translate(3.2336164 24.859789)" id="Group"><path stroke="none" fill-opacity="0.98039216" fill="#B09E80" id="Path" d="M48.1946 33.6491L12.4013 33.6491L12.4013 20.7006L30.2894 0L48.1774 20.7006L48.1774 33.6491L48.1946 33.6491Z"/><path stroke="none" fill="#E9E9E9" id="Path" d="M19.0921 33.6491L0 33.6491L0 26.7375L9.54605 15.6755L19.0921 26.7375L19.0921 33.6491L19.0921 33.6491Z"/><path stroke="none" fill-opacity="0.98039216" fill="#B09E80" id="Path" d="M9.23645 26.343L9.23645 28.5897L6.98324 28.5897L6.98324 26.343L9.23645 26.343Z"/><path stroke="none" fill-opacity="0.98039216" fill="#B09E80" id="Path" d="M12.0745 26.343L12.0745 28.5897L9.82125 28.5897L9.82125 26.343L12.0745 26.343Z"/><path stroke="none" fill-opacity="0.98039216" fill="#B09E80" id="Path" d="M9.23645 29.1729L9.23645 31.4196L6.98324 31.4196L6.98324 29.1729L9.23645 29.1729L9.23645 29.1729Z"/><path stroke="none" fill-opacity="0.98039216" fill="#B09E80" id="Path" d="M12.0745 29.1729L12.0745 31.4196L9.82125 31.4196L9.82125 29.1729L12.0745 29.1729L12.0745 29.1729Z"/></g><path stroke="none" fill="#E9E9E9" id="Shape" d="M67.8652 44.8718L59.0244 44.8718L59.0244 44.6146L60.3832 43.9628L60.3832 35.2676L59.0244 34.5987L59.0244 34.3415L64.322 34.3415L64.322 34.5987L62.8084 35.2504L62.8084 43.98L66.3172 43.98L67.6072 40.9615L67.8652 40.9615L67.8652 44.8547L67.8652 44.8718ZM75.0893 45.0262L75.0893 45.0262C74.1433 45.0262 73.3177 44.8204 72.6125 44.4259C71.8901 44.0143 71.3225 43.4655 70.9097 42.7795C70.4968 42.0763 70.2905 41.2874 70.2905 40.3956L70.2905 40.3956C70.2905 39.5209 70.4968 38.7148 70.9097 38.0288C71.3225 37.3256 71.8901 36.7768 72.6125 36.3652C73.3349 35.9536 74.1605 35.7649 75.0893 35.7649L75.0893 35.7649C76.0353 35.7649 76.8609 35.9708 77.5833 36.3652C78.3057 36.7768 78.8733 37.3256 79.2861 38.0288C79.6989 38.732 79.9053 39.5209 79.9053 40.3956L79.9053 40.3956C79.9053 41.2874 79.6989 42.0763 79.2861 42.7795C78.8733 43.4826 78.3057 44.0314 77.5833 44.4259C76.8609 44.8375 76.0353 45.0262 75.0893 45.0262ZM75.3129 44.203L75.3129 44.203C76.0009 44.203 76.5341 43.8771 76.9125 43.2425C77.3081 42.608 77.4973 41.7847 77.4973 40.79L77.4973 40.79C77.4973 39.9668 77.3941 39.2465 77.1705 38.6119C76.9469 37.9774 76.6545 37.48 76.2589 37.1198C75.8633 36.7597 75.4333 36.571 74.9173 36.571L74.9173 36.571C74.4701 36.571 74.0745 36.7082 73.7477 36.9998C73.4037 37.2913 73.1457 37.6858 72.9565 38.2003C72.7673 38.7148 72.6813 39.2979 72.6813 39.9668L72.6813 39.9668C72.6813 40.79 72.8017 41.5103 73.0253 42.1449C73.2489 42.7795 73.5585 43.2768 73.9541 43.637C74.3497 43.9972 74.7969 44.1858 75.3129 44.1858L75.3129 44.203ZM87.4561 44.9576L86.4069 44.9576L82.7605 36.7425L81.8145 36.228L81.8145 35.9536L86.3381 35.9536L86.3381 36.228L85.2545 36.7082L87.6281 42.1621L87.7485 42.1621L90.1221 36.7082L89.0041 36.228L89.0041 35.9536L91.9798 35.9536L91.9798 36.228L91.1714 36.6739L87.4733 44.9576L87.4561 44.9576ZM101.887 44.8718L93.7858 44.8718L93.7858 44.6146L94.9726 44.0829L94.9726 36.7254L93.7858 36.1937L93.7858 35.9365L101.509 35.9365L101.509 38.3204L101.251 38.3204L100.219 36.7425L97.3118 36.7425L97.3118 39.8639L99.3758 39.8639L100.115 38.7148L100.356 38.7148L100.356 41.7504L100.115 41.7504L99.3758 40.6185L97.3118 40.6185L97.3118 44.0486L100.545 44.0486L101.646 41.9906L101.904 41.9906L101.904 44.8547L101.887 44.8718ZM112.138 44.8718L104.226 44.8718L104.226 44.6146L105.413 44.0829L105.413 36.7254L104.226 36.1937L104.226 35.9365L109.059 35.9365L109.059 36.1937L107.752 36.7254L107.752 44.0486L110.693 44.0486L111.897 41.4589L112.155 41.4589L112.155 44.8718L112.138 44.8718ZM121.564 44.8718L116.782 44.8718L116.782 44.6146L118.021 44.0829L118.021 40.6528L115.148 36.7597L114.099 36.1937L114.099 35.9365L118.657 35.9365L118.657 36.1937L117.642 36.6911L117.642 36.7425L119.964 39.8296L122.063 36.7768L122.063 36.7082L121.014 36.1937L121.014 35.9365L124.196 35.9365L124.196 36.1937L123.198 36.6568L120.377 40.67L120.377 44.0829L121.598 44.6146L121.598 44.8718L121.564 44.8718ZM134.567 44.8718L130.749 44.8718L130.749 44.6146L132.108 43.9628L132.452 35.2676L131.041 34.6159L131.041 34.3586L134.997 34.3586L138.214 41.7676L141.396 34.3586L145.231 34.3586L145.231 34.6159L143.838 35.1132L144.113 43.98L145.334 44.6317L145.334 44.889L140.484 44.889L140.484 44.6317L141.757 43.9972L141.602 36.4338L137.956 44.9747L137.061 44.9747L133.38 36.4681L133.174 44.0143L134.567 44.6489L134.567 44.9061L134.567 44.8718ZM155.586 44.8718L147.484 44.8718L147.484 44.6146L148.671 44.0829L148.671 36.7254L147.484 36.1937L147.484 35.9365L155.207 35.9365L155.207 38.3204L154.949 38.3204L153.917 36.7425L151.01 36.7425L151.01 39.8639L153.074 39.8639L153.814 38.7148L154.055 38.7148L154.055 41.7504L153.814 41.7504L153.074 40.6185L151.01 40.6185L151.01 44.0486L154.244 44.0486L155.345 41.9906L155.603 41.9906L155.603 44.8547L155.586 44.8718ZM161.227 44.8718L157.89 44.8718L157.89 44.6146L159.077 44.0658L159.37 36.7082L158.148 36.1937L158.148 35.9365L161.915 35.9365L164.495 41.7504L167.075 35.9365L170.722 35.9365L170.722 36.1937L169.518 36.571L169.741 44.0658L170.808 44.6146L170.808 44.8718L166.284 44.8718L166.284 44.6146L167.385 44.0829L167.265 37.6858L164.065 44.9233L163.377 44.9233L160.212 37.6686L160.04 44.0829L161.245 44.6146L161.245 44.8718L161.227 44.8718ZM177.86 45.0262L177.86 45.0262C176.914 45.0262 176.088 44.8204 175.383 44.4259C174.661 44.0143 174.093 43.4655 173.68 42.7795C173.267 42.0763 173.061 41.2874 173.061 40.3956L173.061 40.3956C173.061 39.5209 173.267 38.7148 173.68 38.0288C174.093 37.3256 174.661 36.7768 175.383 36.3652C176.105 35.9536 176.931 35.7649 177.86 35.7649L177.86 35.7649C178.806 35.7649 179.631 35.9708 180.354 36.3652C181.076 36.7768 181.644 37.3256 182.057 38.0288C182.469 38.732 182.676 39.5209 182.676 40.3956L182.676 40.3956C182.676 41.2874 182.469 42.0763 182.057 42.7795C181.644 43.4826 181.076 44.0314 180.354 44.4259C179.631 44.8375 178.806 45.0262 177.86 45.0262ZM178.083 44.203L178.083 44.203C178.771 44.203 179.305 43.8771 179.683 43.2425C180.079 42.608 180.268 41.7847 180.268 40.79L180.268 40.79C180.268 39.9668 180.165 39.2465 179.941 38.6119C179.717 37.9774 179.425 37.48 179.029 37.1198C178.634 36.7597 178.204 36.571 177.688 36.571L177.688 36.571C177.241 36.571 176.845 36.7082 176.518 36.9998C176.174 37.2913 175.916 37.6858 175.727 38.2003C175.538 38.7148 175.452 39.2979 175.452 39.9668L175.452 39.9668C175.452 40.79 175.572 41.5103 175.796 42.1449C176.019 42.7795 176.329 43.2768 176.725 43.637C177.12 43.9972 177.567 44.1858 178.083 44.1858L178.083 44.203ZM189.504 44.8718L184.963 44.8718L184.963 44.6146L186.15 44.0829L186.15 36.7254L184.963 36.1937L184.963 35.9365L189.848 35.9365C190.811 35.9365 191.585 36.1251 192.136 36.5196C192.703 36.914 192.979 37.4285 192.979 38.0974L192.979 38.0974C192.979 39.075 192.377 39.7781 191.19 40.1898L191.19 40.1898L193.649 44.1001L194.681 44.6146L194.681 44.8718L191.379 44.8718L189.057 40.8072L188.472 40.8072L188.472 44.0658L189.487 44.6146L189.487 44.8718L189.504 44.8718ZM188.937 36.6739L188.489 36.6739L188.489 40.0526L188.988 40.0526C189.556 40.0526 189.969 39.8982 190.244 39.5895C190.519 39.2808 190.657 38.852 190.657 38.3375L190.657 38.3375C190.657 37.2399 190.089 36.6739 188.954 36.6739L188.937 36.6739ZM200.65 44.8718L196.109 44.8718L196.109 44.6146L197.158 44.0829L197.158 36.7254L196.109 36.1937L196.109 35.9365L200.65 35.9365L200.65 36.1937L199.497 36.7254L199.497 44.0829L200.65 44.6146L200.65 44.8718ZM210.97 44.8718L202.869 44.8718L202.869 44.6146L204.056 44.0829L204.056 36.7254L202.869 36.1937L202.869 35.9365L210.592 35.9365L210.592 38.3204L210.334 38.3204L209.302 36.7425L206.395 36.7425L206.395 39.8639L208.459 39.8639L209.198 38.7148L209.439 38.7148L209.439 41.7504L209.198 41.7504L208.459 40.6185L206.395 40.6185L206.395 44.0486L209.628 44.0486L210.729 41.9906L210.987 41.9906L210.987 44.8547L210.97 44.8718ZM216.44 45.0262L216.44 45.0262C215.838 45.0262 215.304 44.9576 214.84 44.8375C214.376 44.7175 213.928 44.546 213.498 44.323L213.498 44.323L213.361 42.0592L213.619 42.0592L214.72 43.757C215.201 44.0658 215.752 44.2201 216.388 44.2201L216.388 44.2201C216.904 44.2201 217.317 44.1172 217.626 43.9114C217.919 43.7056 218.074 43.414 218.074 43.0024L218.074 43.0024C218.074 42.7109 217.988 42.4708 217.833 42.2993C217.678 42.1278 217.42 41.9562 217.059 41.7676C216.698 41.5961 216.233 41.3731 215.648 41.0987L215.648 41.0987C214.995 40.8072 214.496 40.447 214.169 40.0526C213.842 39.6409 213.688 39.1436 213.688 38.5605L213.688 38.5605C213.688 38.046 213.842 37.5829 214.135 37.1713C214.427 36.7597 214.84 36.4167 215.356 36.1594C215.872 35.9022 216.405 35.7821 217.007 35.7821L217.007 35.7821C217.489 35.7821 217.953 35.8335 218.383 35.9536C218.813 36.0737 219.192 36.2109 219.553 36.3995L219.553 36.3995L219.69 38.5605L219.432 38.5605L218.263 36.8626C218.074 36.7597 217.902 36.6739 217.712 36.6396C217.523 36.6053 217.317 36.571 217.076 36.571L217.076 36.571C216.646 36.571 216.302 36.6739 216.044 36.8969C215.786 37.1198 215.648 37.4114 215.648 37.7887L215.648 37.7887C215.648 38.0288 215.717 38.2346 215.838 38.4061C215.958 38.5776 216.164 38.732 216.44 38.8863C216.715 39.0407 217.093 39.2293 217.558 39.4523L217.558 39.4523C218.125 39.7267 218.59 40.0011 218.951 40.2584C219.312 40.5156 219.587 40.8243 219.742 41.133C219.914 41.4589 220 41.8362 220 42.2821L220 42.2821C220 42.8309 219.845 43.3111 219.536 43.7399C219.226 44.1515 218.796 44.4774 218.263 44.7003C217.73 44.9233 217.128 45.0433 216.457 45.0433L216.44 45.0262Z"/><path stroke="none" fill-opacity="0.98039216" fill="#B09E80" id="Shape" d="M31.459 4.8967C28.9133 4.12494 24.0973 4.33074 20.6745 9.49302C20.8809 4.53655 17.8881 1.94683 15.8413 1.12361C6.70803 -2.95819 1.72001 5.39407 1.72001 5.39407L4.36882 6.14868L5.03963 5.13681L5.00523 6.33734L5.12563 6.37164L6.24363 4.26214L5.84803 6.57745L6.19203 6.68035C0 9.83602 0 17.125 0 17.125L2.87241 16.3532L3.56042 16.1645L3.68082 16.1302L3.64642 14.8268L4.47202 15.9073L9.56325 14.5352C9.56325 14.5352 9.52885 14.6038 9.51165 14.6381L10.9737 15.4957L9.08165 15.5471C9.03005 15.6672 8.97845 15.7701 8.92685 15.8901L10.2857 16.7476L8.58284 16.7476C8.37644 17.3136 8.18724 17.8967 7.99804 18.5313C7.43044 20.1434 7.51644 21.9442 7.77444 23.4363C8.10124 23.6764 8.39364 23.7279 8.39364 23.7279L7.87764 23.968C8.18724 25.4601 8.63444 26.5062 8.63444 26.5062C8.63444 26.5062 9.83845 26.4548 11.5069 25.8202L11.5929 25.0141L12.1949 25.5287C12.1949 25.5287 12.3153 25.4772 12.3669 25.4429L11.7133 23.8308L13.1753 25.0141C14.6029 24.2081 16.1509 22.9389 17.5441 21.0009C17.4925 21.241 17.4237 21.4812 17.3721 21.7213L17.3721 21.7213C17.1485 22.6645 16.9593 23.6936 16.8045 24.8083L16.8045 24.8083C16.8045 24.8083 16.8045 24.8083 16.8045 24.8083C16.3573 28.0155 16.2885 31.9086 17.0109 36.3849C17.0109 36.4363 17.0109 36.4706 17.0109 36.4706C17.0109 36.4706 17.0109 36.4706 17.0109 36.4706C17.6301 40.2266 18.7997 44.3941 20.8121 48.9218C20.7949 48.9561 20.8121 48.9904 20.8637 49.0419C21.5001 50.4482 22.2053 51.8888 22.9965 53.3809L23.0653 53.5181L31.4418 53.5181L30.8054 53.0379C30.685 52.9522 19.5393 44.377 19.6769 31.1197C19.6769 30.5537 19.6941 30.0221 19.7113 29.5075L19.7285 29.5075C19.7285 29.5075 19.7285 29.1645 19.7285 29.1645C19.8489 25.9403 20.1413 23.3677 20.5197 21.344C20.9325 22.1672 21.3625 22.9218 21.8269 23.5907L25.4561 22.03L22.2397 24.1738C22.5665 24.6197 22.9105 25.0141 23.2545 25.3915L26.5741 23.9851L24.0457 26.1804C24.6133 26.712 25.1809 27.1751 25.7313 27.5524L27.5717 26.3347L26.6429 28.1355C26.6429 28.1355 26.7805 28.2041 26.8321 28.2384L27.5889 27.7068L27.5889 28.65C29.4809 29.5933 30.8742 29.782 30.8742 29.782C30.8742 29.782 31.5106 28.5986 32.0438 26.9007C32.0438 26.9007 31.8202 26.5234 32.233 26.2833C32.6974 24.5682 33.007 22.4587 32.5254 20.5207C32.3878 19.749 32.2158 19.0458 32.0438 18.3769L30.0486 18.1711L31.7342 17.3136C31.6826 17.1764 31.6482 17.0392 31.5966 16.902L31.201 15.8044C31.0118 15.307 30.8054 14.8782 30.599 14.4495L36.4642 16.9534L37.4962 15.9244L37.2554 17.2965L37.3758 17.3479L38.2014 16.2503L38.0638 17.6395L40.9878 18.8914C40.9878 18.8914 42.553 7.82943 31.4246 4.8967L31.459 4.8967ZM9.42565 5.90858C9.42565 5.90858 15.1533 4.43364 18.4901 8.61834C18.5933 8.7384 18.6449 8.807 18.6449 8.807C18.5933 8.7384 18.5417 8.68695 18.4901 8.61834C17.8709 7.89803 15.3081 5.41122 9.42565 5.90858L9.42565 5.90858ZM9.73525 24.774C9.73525 24.774 10.6813 16.7476 18.1977 10.968C18.1977 10.968 11.8165 16.3189 9.73525 24.774ZM19.3673 26.1118L18.1633 27.1751L18.9029 27.1751L17.5097 28.4099L19.1781 29.216C19.1609 29.8163 19.1437 30.4337 19.1437 31.0854C19.1265 32.9205 19.3157 34.6527 19.6597 36.2991L18.1633 37.6368L20.0553 37.9113C20.1585 38.2886 20.2789 38.6659 20.3993 39.0432C20.2617 39.2147 20.0381 39.4205 19.6425 39.5234C18.8685 39.7292 18.6621 40.1923 19.2813 40.1923C19.7113 40.1923 20.3821 40.1065 20.7433 40.0551C23.3061 46.8981 28.2081 51.5115 29.8765 52.9522L23.3405 52.9522C23.2029 52.6778 23.0653 52.4205 22.9277 52.1633C23.2717 52.1804 27.2793 52.3691 25.4389 51.2371C24.3381 50.5511 22.6181 49.8994 21.6033 49.4535C21.5001 49.2477 21.3969 49.0247 21.3109 48.8018C22.8761 48.6303 26.7289 48.0643 23.6329 47.6527C21.8269 47.4126 20.8981 47.0353 20.4337 46.7266C20.3477 46.5208 20.2789 46.315 20.1929 46.092C20.7777 45.5432 22.2741 44.034 21.8613 43.245C21.4485 42.4733 19.7285 42.7305 19.0577 42.8506C18.2321 40.2094 17.6817 37.7398 17.3721 35.4244C17.6301 34.9785 18.0257 34.4812 18.6449 34.2239C20.0037 33.658 18.6965 33.0577 18.1977 32.8004C17.6989 32.5432 17.4409 31.8229 17.8193 31.6342C18.1977 31.4455 19.1609 31.0682 18.6449 30.5709C18.1461 30.0735 17.0109 28.7186 16.9937 28.7015C17.0453 26.9864 17.2001 25.4086 17.4409 23.9851C17.7505 23.6764 18.1633 23.3334 18.6621 23.1276C19.4877 22.7846 18.5073 22.2186 17.8365 21.9099C18.0601 20.9666 18.3009 20.1091 18.5417 19.3374C18.6793 19.0972 18.7997 18.84 18.9373 18.5827L19.1953 18.0168L19.2641 18.2397C19.2985 18.3426 19.3157 18.4455 19.3501 18.5313L19.6597 19.3888C19.7973 19.7661 19.9521 20.1263 20.1069 20.4693C19.7973 21.9785 19.5221 23.8308 19.3501 26.0775L19.3673 26.1118ZM29.6185 12.0999C25.9549 8.61834 21.2077 9.68167 21.2077 9.68167C26.4881 8.06953 29.6185 12.0999 29.6185 12.0999ZM30.1518 27.501C29.6185 17.9825 21.8269 10.9508 21.8269 10.9508C30.6334 17.7081 30.1518 27.501 30.1518 27.501L30.1518 27.501Z"/></g></svg>